{"glyphs":{"0":{"ha":913,"x_min":46,"x_max":867,"o":"m 457 -22 q 224 47 315 -22 q 90 231 133 115 q 46 488 46 346 q 70 684 46 592 q 145 846 94 776 q 274 955 196 915 q 457 994 351 994 q 640 955 563 994 q 767 846 717 915 q 842 684 818 776 q 867 488 867 592 q 823 231 867 346 q 688 47 779 115 q 457 -22 597 -22 m 457 78 q 619 131 551 78 q 722 277 686 185 q 758 488 758 369 q 722 697 758 604 q 619 842 686 789 q 457 894 551 894 q 294 842 363 894 q 190 697 226 789 q 154 488 154 604 q 190 277 154 369 q 294 131 226 185 q 457 78 363 78 z "},"1":{"ha":626,"x_min":28,"x_max":599,"o":"m 261 881 l 365 881 l 365 0 l 261 0 l 261 881 m 28 972 l 261 972 l 261 881 l 28 881 l 28 972 m 28 106 l 299 106 l 299 0 l 28 0 l 28 106 m 328 106 l 599 106 l 599 0 l 328 0 l 328 106 z "},"2":{"ha":806,"x_min":42,"x_max":764,"o":"m 165 0 l 165 94 l 42 94 q 99 235 58 176 q 196 335 140 293 q 314 410 251 378 q 436 470 376 442 q 544 530 496 499 q 622 602 593 561 q 651 700 651 643 q 588 841 651 788 q 418 894 524 894 q 226 829 288 894 q 157 664 164 764 l 50 664 q 97 837 50 763 q 226 953 144 911 q 411 994 307 994 q 606 953 529 994 q 722 845 683 911 q 760 706 760 779 q 731 578 760 631 q 656 487 703 525 q 551 419 608 449 q 433 360 493 389 q 317 295 372 331 q 222 212 263 260 q 165 94 182 164 l 764 94 l 764 0 l 165 0 z "},"3":{"ha":844,"x_min":53,"x_max":799,"o":"m 335 542 l 432 542 q 624 582 564 542 q 683 708 683 622 q 654 801 683 758 q 569 869 625 843 q 433 894 514 894 q 298 867 358 894 q 201 787 238 839 q 160 664 164 735 l 53 664 q 106 837 53 763 q 244 953 158 911 q 431 994 331 994 q 631 956 550 994 q 751 851 711 917 q 792 708 792 786 q 753 590 792 647 q 638 499 715 533 q 440 467 560 464 l 440 514 q 638 495 558 524 q 758 409 718 467 q 799 275 799 351 q 755 124 799 192 q 629 17 711 57 q 432 -22 547 -22 q 238 19 324 -22 q 103 136 153 61 q 53 308 53 211 l 160 308 q 200 190 164 242 q 297 108 236 138 q 432 78 357 78 q 572 106 514 78 q 660 178 629 133 q 690 278 690 224 q 622 403 690 363 q 436 444 553 444 l 335 444 l 335 542 z "},"4":{"ha":814,"x_min":28,"x_max":772,"o":"m 496 972 l 597 972 l 597 0 l 496 0 l 496 972 m 90 336 l 772 336 l 772 244 l 90 244 l 90 336 m 454 972 l 558 972 l 93 244 l 28 244 l 28 319 l 454 972 z "},"5":{"ha":815,"x_min":49,"x_max":781,"o":"m 433 653 q 624 608 547 653 q 741 488 701 564 q 781 315 781 411 q 738 144 781 221 q 614 22 696 67 q 414 -22 532 -22 q 232 19 315 -22 q 99 136 149 61 q 49 308 49 211 l 150 308 q 184 196 154 249 q 273 110 214 143 q 421 78 332 78 q 559 110 503 78 q 644 197 615 142 q 672 319 672 251 q 605 492 672 429 q 415 556 538 556 q 258 514 322 556 q 169 399 194 472 l 106 399 q 137 471 114 428 q 199 556 160 514 q 297 625 239 597 q 433 653 356 653 m 63 399 l 167 972 l 269 972 l 161 399 l 63 399 m 178 972 l 688 972 l 688 881 l 178 881 l 178 972 z "},"6":{"ha":851,"x_min":46,"x_max":806,"o":"m 664 697 q 646 756 660 722 q 606 821 632 789 q 537 874 579 853 q 431 894 494 894 q 283 849 346 894 q 185 704 219 803 q 151 447 151 606 l 115 444 q 177 541 132 493 q 290 621 222 589 q 440 653 357 653 q 636 608 554 653 q 762 488 718 564 q 806 315 806 411 q 761 144 806 221 q 633 22 717 67 q 432 -22 550 -22 q 284 2 354 -22 q 160 81 214 26 q 76 229 107 136 q 46 460 46 322 q 147 856 46 717 q 438 994 247 994 q 671 913 585 994 q 782 697 757 831 l 664 697 m 174 322 q 240 148 174 218 q 433 78 306 78 q 579 110 521 78 q 667 197 638 142 q 697 319 697 251 q 631 489 697 422 q 435 556 564 556 q 240 489 306 556 q 174 322 174 422 z "},"7":{"ha":715,"x_min":35,"x_max":681,"o":"m 279 0 q 314 343 279 181 q 411 642 349 506 q 557 881 474 779 l 35 881 l 35 972 l 557 972 l 557 881 l 681 881 l 681 876 q 532 677 599 799 q 426 387 465 556 q 386 0 386 218 l 279 0 z "},"8":{"ha":833,"x_min":46,"x_max":788,"o":"m 417 994 q 609 956 528 994 q 735 851 690 917 q 781 708 781 786 q 745 577 781 636 q 631 489 710 518 q 751 399 715 460 q 788 264 788 338 q 744 121 788 186 q 617 17 700 56 q 417 -22 535 -22 q 217 17 300 -22 q 90 121 133 56 q 46 264 46 186 q 82 399 46 338 q 203 489 118 460 q 88 577 124 518 q 53 708 53 636 q 98 851 53 786 q 225 956 143 917 q 417 994 307 994 m 154 271 q 185 169 154 213 q 275 101 217 125 q 417 78 333 78 q 556 101 500 78 q 638 169 611 125 q 665 271 665 213 q 606 403 665 357 q 417 449 547 449 q 220 403 286 449 q 154 271 154 357 m 161 715 q 228 583 161 629 q 417 538 294 538 q 606 583 539 538 q 672 715 672 629 q 602 844 672 793 q 417 894 532 894 q 232 844 303 894 q 161 715 161 793 z "},"9":{"ha":851,"x_min":46,"x_max":806,"o":"m 188 275 q 206 217 192 250 q 246 151 219 183 q 315 99 272 119 q 421 78 357 78 q 569 124 507 78 q 666 269 632 169 q 700 525 700 368 l 736 528 q 674 431 719 479 q 562 351 629 383 q 411 319 494 319 q 215 364 297 319 q 90 485 133 408 q 46 657 46 563 q 90 829 46 753 q 218 950 135 906 q 419 994 301 994 q 567 970 497 994 q 691 891 638 946 q 775 743 744 836 q 806 513 806 650 q 705 117 806 257 q 414 -22 604 -22 q 181 60 267 -22 q 69 275 94 142 l 188 275 m 678 650 q 612 824 678 754 q 418 894 546 894 q 272 863 331 894 q 184 776 214 831 q 154 653 154 721 q 221 484 154 551 q 417 417 288 417 q 612 483 546 417 q 678 650 678 550 z "},"A":{"ha":885,"x_min":35,"x_max":850,"o":"m 369 972 l 469 972 l 149 0 l 35 0 l 369 972 m 501 972 l 850 0 l 736 0 l 401 972 l 501 972 m 167 338 l 690 338 l 690 246 l 167 246 l 167 338 z "},"Á":{"ha":885,"x_min":35,"x_max":850,"o":"m 369 972 l 469 972 l 149 0 l 35 0 l 369 972 m 501 972 l 850 0 l 736 0 l 401 972 l 501 972 m 167 338 l 690 338 l 690 246 l 167 246 l 167 338 m 606 1250 l 476 1069 l 397 1069 l 467 1250 l 606 1250 z "},"Ă":{"ha":885,"x_min":35,"x_max":850,"o":"m 369 972 l 469 972 l 149 0 l 35 0 l 369 972 m 501 972 l 850 0 l 736 0 l 401 972 l 501 972 m 167 338 l 690 338 l 690 246 l 167 246 l 167 338 m 629 1242 q 568 1120 621 1163 q 438 1078 515 1078 q 306 1120 360 1078 q 244 1242 253 1163 l 346 1242 q 438 1163 356 1163 q 501 1181 478 1163 q 529 1242 524 1200 l 629 1242 z "},"Â":{"ha":885,"x_min":35,"x_max":850,"o":"m 369 972 l 469 972 l 149 0 l 35 0 l 369 972 m 501 972 l 850 0 l 736 0 l 401 972 l 501 972 m 167 338 l 690 338 l 690 246 l 167 246 l 167 338 m 492 1250 l 633 1069 l 522 1069 l 401 1228 l 471 1228 l 350 1069 l 239 1069 l 381 1250 l 492 1250 z "},"Ä":{"ha":885,"x_min":35,"x_max":850,"o":"m 369 972 l 469 972 l 149 0 l 35 0 l 369 972 m 501 972 l 850 0 l 736 0 l 401 972 l 501 972 m 167 338 l 690 338 l 690 246 l 167 246 l 167 338 m 260 1231 l 386 1231 l 386 1100 l 260 1100 l 260 1231 m 486 1231 l 613 1231 l 613 1100 l 486 1100 l 486 1231 z "},"À":{"ha":885,"x_min":35,"x_max":850,"o":"m 369 972 l 469 972 l 149 0 l 35 0 l 369 972 m 501 972 l 850 0 l 736 0 l 401 972 l 501 972 m 167 338 l 690 338 l 690 246 l 167 246 l 167 338 m 396 1069 l 267 1250 l 406 1250 l 475 1069 l 396 1069 z "},"Ā":{"ha":885,"x_min":35,"x_max":850,"o":"m 369 972 l 469 972 l 149 0 l 35 0 l 369 972 m 501 972 l 850 0 l 736 0 l 401 972 l 501 972 m 167 338 l 690 338 l 690 246 l 167 246 l 167 338 m 244 1207 l 626 1207 l 626 1121 l 244 1121 l 244 1207 z "},"Ą":{"ha":885,"x_min":35,"x_max":857,"o":"m 369 972 l 469 972 l 149 0 l 35 0 l 369 972 m 501 972 l 850 0 l 736 0 l 401 972 l 501 972 m 167 338 l 690 338 l 690 246 l 167 246 l 167 338 m 850 0 q 792 -23 824 -8 q 736 -60 760 -37 q 713 -117 713 -83 q 731 -163 713 -147 q 774 -184 749 -179 q 818 -189 799 -189 l 857 -189 l 857 -278 l 815 -278 q 676 -240 726 -278 q 625 -144 625 -203 q 669 -36 625 -78 q 786 49 714 6 l 850 0 z "},"Å":{"ha":885,"x_min":35,"x_max":850,"o":"m 369 972 l 469 972 l 149 0 l 35 0 l 369 972 m 501 972 l 850 0 l 736 0 l 401 972 l 501 972 m 167 338 l 690 338 l 690 246 l 167 246 l 167 338 m 436 1024 q 350 1059 386 1024 q 314 1144 314 1094 q 350 1228 314 1193 q 436 1264 386 1264 q 522 1228 486 1264 q 558 1144 558 1193 q 522 1059 558 1094 q 436 1024 486 1024 m 436 1088 q 474 1105 460 1088 q 489 1144 489 1122 q 474 1183 489 1167 q 436 1200 460 1200 q 399 1183 414 1200 q 383 1144 383 1167 q 399 1105 383 1122 q 436 1088 414 1088 z "},"Ã":{"ha":885,"x_min":35,"x_max":850,"o":"m 369 972 l 469 972 l 149 0 l 35 0 l 369 972 m 501 972 l 850 0 l 736 0 l 401 972 l 501 972 m 167 338 l 690 338 l 690 246 l 167 246 l 167 338 m 363 1143 q 331 1127 342 1143 q 321 1088 321 1111 l 243 1088 q 261 1167 243 1138 q 306 1210 279 1197 q 358 1222 332 1222 q 424 1206 399 1222 q 471 1172 450 1189 q 515 1154 492 1154 q 547 1170 538 1154 q 556 1210 556 1186 l 632 1210 q 615 1129 632 1160 q 572 1085 597 1099 q 521 1072 547 1072 q 460 1090 488 1072 q 410 1125 433 1107 q 363 1143 386 1143 z "},"Æ":{"ha":1250,"x_min":35,"x_max":1185,"o":"m 508 972 l 614 972 l 151 0 l 35 0 l 508 972 m 228 338 l 710 338 l 710 246 l 228 246 l 228 338 m 614 972 l 718 972 l 718 0 l 614 0 l 614 972 m 544 972 l 1179 972 l 1179 878 l 544 878 l 544 972 m 679 94 l 1185 94 l 1185 0 l 679 0 l 679 94 m 647 536 l 1124 536 l 1124 442 l 647 442 l 647 536 z "},"B":{"ha":846,"x_min":79,"x_max":804,"o":"m 183 0 l 183 92 l 422 92 q 576 108 515 92 q 666 161 636 124 q 696 265 696 199 q 667 365 696 325 q 578 424 638 404 q 426 444 518 444 l 183 444 l 183 536 l 382 536 q 533 553 474 536 q 620 607 592 569 q 649 707 649 644 q 623 806 649 768 q 538 863 597 844 q 375 881 478 881 l 156 881 l 156 972 l 375 972 q 567 948 481 972 q 706 865 654 924 q 757 701 757 806 q 728 599 757 649 q 645 516 699 549 q 519 483 592 483 l 519 508 q 657 480 592 508 q 763 397 722 451 q 804 265 804 343 q 753 103 804 160 q 615 23 701 46 q 422 0 528 0 l 183 0 m 79 92 l 79 972 l 183 972 l 183 92 l 79 92 z "},"C":{"ha":1017,"x_min":46,"x_max":971,"o":"m 971 396 q 908 176 961 271 q 759 30 854 82 q 526 -22 664 -22 q 265 47 372 -22 q 101 231 157 115 q 46 488 46 346 q 77 684 46 592 q 169 846 108 776 q 320 955 231 915 q 526 994 410 994 q 833 891 722 994 q 965 613 943 788 l 856 613 q 829 709 849 660 q 772 801 810 758 q 675 869 735 843 q 526 894 615 894 q 321 838 404 894 q 196 690 238 782 q 154 488 154 597 q 196 283 154 376 q 321 134 238 190 q 526 78 404 78 q 684 107 621 78 q 785 183 747 136 q 842 286 824 231 q 864 396 860 342 l 971 396 z "},"Ć":{"ha":1017,"x_min":46,"x_max":971,"o":"m 971 396 q 908 176 961 271 q 759 30 854 82 q 526 -22 664 -22 q 265 47 372 -22 q 101 231 157 115 q 46 488 46 346 q 77 684 46 592 q 169 846 108 776 q 320 955 231 915 q 526 994 410 994 q 833 891 722 994 q 965 613 943 788 l 856 613 q 829 709 849 660 q 772 801 810 758 q 675 869 735 843 q 526 894 615 894 q 321 838 404 894 q 196 690 238 782 q 154 488 154 597 q 196 283 154 376 q 321 134 238 190 q 526 78 404 78 q 684 107 621 78 q 785 183 747 136 q 842 286 824 231 q 864 396 860 342 l 971 396 m 692 1250 l 563 1069 l 483 1069 l 553 1250 l 692 1250 z "},"Č":{"ha":1017,"x_min":46,"x_max":971,"o":"m 971 396 q 908 176 961 271 q 759 30 854 82 q 526 -22 664 -22 q 265 47 372 -22 q 101 231 157 115 q 46 488 46 346 q 77 684 46 592 q 169 846 108 776 q 320 955 231 915 q 526 994 410 994 q 833 891 722 994 q 965 613 943 788 l 856 613 q 829 709 849 660 q 772 801 810 758 q 675 869 735 843 q 526 894 615 894 q 321 838 404 894 q 196 690 238 782 q 154 488 154 597 q 196 283 154 376 q 321 134 238 190 q 526 78 404 78 q 684 107 621 78 q 785 183 747 136 q 842 286 824 231 q 864 396 860 342 l 971 396 m 467 1079 l 325 1260 l 436 1260 l 557 1101 l 488 1101 l 608 1260 l 719 1260 l 578 1079 l 467 1079 z "},"Ç":{"ha":1017,"x_min":46,"x_max":971,"o":"m 971 396 q 908 176 961 271 q 759 30 854 82 q 526 -22 664 -22 q 265 47 372 -22 q 101 231 157 115 q 46 488 46 346 q 77 684 46 592 q 169 846 108 776 q 320 955 231 915 q 526 994 410 994 q 833 891 722 994 q 965 613 943 788 l 856 613 q 829 709 849 660 q 772 801 810 758 q 675 869 735 843 q 526 894 615 894 q 321 838 404 894 q 196 690 238 782 q 154 488 154 597 q 196 283 154 376 q 321 134 238 190 q 526 78 404 78 q 684 107 621 78 q 785 183 747 136 q 842 286 824 231 q 864 396 860 342 l 971 396 m 496 56 l 583 56 l 583 -124 l 496 -124 l 496 56 m 564 -124 l 564 -49 q 686 -76 647 -49 q 725 -162 725 -104 q 688 -250 725 -222 q 581 -278 651 -278 l 464 -278 l 464 -203 l 564 -203 q 619 -197 596 -203 q 642 -162 642 -192 q 619 -128 642 -133 q 564 -124 596 -124 z "},"Ĉ":{"ha":1017,"x_min":46,"x_max":971,"o":"m 971 396 q 908 176 961 271 q 759 30 854 82 q 526 -22 664 -22 q 265 47 372 -22 q 101 231 157 115 q 46 488 46 346 q 77 684 46 592 q 169 846 108 776 q 320 955 231 915 q 526 994 410 994 q 833 891 722 994 q 965 613 943 788 l 856 613 q 829 709 849 660 q 772 801 810 758 q 675 869 735 843 q 526 894 615 894 q 321 838 404 894 q 196 690 238 782 q 154 488 154 597 q 196 283 154 376 q 321 134 238 190 q 526 78 404 78 q 684 107 621 78 q 785 183 747 136 q 842 286 824 231 q 864 396 860 342 l 971 396 m 578 1250 l 719 1069 l 608 1069 l 488 1228 l 557 1228 l 436 1069 l 325 1069 l 467 1250 l 578 1250 z "},"Ċ":{"ha":1017,"x_min":46,"x_max":971,"o":"m 971 396 q 908 176 961 271 q 759 30 854 82 q 526 -22 664 -22 q 265 47 372 -22 q 101 231 157 115 q 46 488 46 346 q 77 684 46 592 q 169 846 108 776 q 320 955 231 915 q 526 994 410 994 q 833 891 722 994 q 965 613 943 788 l 856 613 q 829 709 849 660 q 772 801 810 758 q 675 869 735 843 q 526 894 615 894 q 321 838 404 894 q 196 690 238 782 q 154 488 154 597 q 196 283 154 376 q 321 134 238 190 q 526 78 404 78 q 684 107 621 78 q 785 183 747 136 q 842 286 824 231 q 864 396 860 342 l 971 396 m 458 1226 l 586 1226 l 586 1099 l 458 1099 l 458 1226 z "},"D":{"ha":899,"x_min":79,"x_max":853,"o":"m 79 972 l 183 972 l 183 94 l 79 94 l 79 972 m 183 94 l 374 94 l 374 0 l 183 0 l 183 94 m 374 94 q 582 147 500 94 q 704 288 664 199 q 744 488 744 376 q 704 685 744 597 q 582 826 664 774 q 374 878 500 878 l 374 972 q 635 909 528 972 q 797 737 742 846 q 853 488 853 628 q 797 236 853 346 q 635 63 742 126 q 374 0 528 0 l 374 94 m 183 972 l 374 972 l 374 878 l 183 878 l 183 972 z "},"Ď":{"ha":899,"x_min":79,"x_max":853,"o":"m 79 972 l 183 972 l 183 94 l 79 94 l 79 972 m 183 94 l 374 94 l 374 0 l 183 0 l 183 94 m 374 94 q 582 147 500 94 q 704 288 664 199 q 744 488 744 376 q 704 685 744 597 q 582 826 664 774 q 374 878 500 878 l 374 972 q 635 909 528 972 q 797 737 742 846 q 853 488 853 628 q 797 236 853 346 q 635 63 742 126 q 374 0 528 0 l 374 94 m 183 972 l 374 972 l 374 878 l 183 878 l 183 972 m 401 1079 l 260 1260 l 371 1260 l 492 1101 l 422 1101 l 543 1260 l 654 1260 l 513 1079 l 401 1079 z "},"Đ":{"ha":1010,"x_min":65,"x_max":964,"o":"m 190 972 l 294 972 l 294 0 l 190 0 l 190 972 m 294 94 l 485 94 l 485 0 l 294 0 l 294 94 m 485 94 q 693 147 611 94 q 815 288 775 199 q 856 488 856 376 q 815 685 856 597 q 693 826 775 774 q 485 878 611 878 l 485 972 q 746 909 639 972 q 908 737 853 846 q 964 488 964 628 q 908 236 964 346 q 746 63 853 126 q 485 0 639 0 l 485 94 m 294 972 l 485 972 l 485 878 l 294 878 l 294 972 m 65 535 l 489 535 l 489 443 l 65 443 l 65 535 z "},"Ð":{"ha":1010,"x_min":65,"x_max":964,"o":"m 190 972 l 294 972 l 294 0 l 190 0 l 190 972 m 294 94 l 485 94 l 485 0 l 294 0 l 294 94 m 485 94 q 693 147 611 94 q 815 288 775 199 q 856 488 856 376 q 815 685 856 597 q 693 826 775 774 q 485 878 611 878 l 485 972 q 746 909 639 972 q 908 737 853 846 q 964 488 964 628 q 908 236 964 346 q 746 63 853 126 q 485 0 639 0 l 485 94 m 294 972 l 485 972 l 485 878 l 294 878 l 294 972 m 65 535 l 489 535 l 489 443 l 65 443 l 65 535 z "},"E":{"ha":813,"x_min":79,"x_max":747,"o":"m 79 94 l 79 972 l 183 972 l 183 94 l 79 94 m 183 0 l 183 94 l 747 94 l 747 0 l 183 0 m 113 442 l 113 536 l 686 536 l 686 442 l 113 442 m 156 878 l 156 972 l 742 972 l 742 878 l 156 878 z "},"É":{"ha":813,"x_min":79,"x_max":747,"o":"m 79 94 l 79 972 l 183 972 l 183 94 l 79 94 m 183 0 l 183 94 l 747 94 l 747 0 l 183 0 m 113 442 l 113 536 l 686 536 l 686 442 l 113 442 m 156 878 l 156 972 l 742 972 l 742 878 l 156 878 m 576 1250 l 447 1069 l 368 1069 l 438 1250 l 576 1250 z "},"Ě":{"ha":813,"x_min":79,"x_max":747,"o":"m 79 94 l 79 972 l 183 972 l 183 94 l 79 94 m 183 0 l 183 94 l 747 94 l 747 0 l 183 0 m 113 442 l 113 536 l 686 536 l 686 442 l 113 442 m 156 878 l 156 972 l 742 972 l 742 878 l 156 878 m 351 1079 l 210 1260 l 321 1260 l 442 1101 l 372 1101 l 493 1260 l 604 1260 l 463 1079 l 351 1079 z "},"Ê":{"ha":813,"x_min":79,"x_max":747,"o":"m 79 94 l 79 972 l 183 972 l 183 94 l 79 94 m 183 0 l 183 94 l 747 94 l 747 0 l 183 0 m 113 442 l 113 536 l 686 536 l 686 442 l 113 442 m 156 878 l 156 972 l 742 972 l 742 878 l 156 878 m 463 1250 l 604 1069 l 493 1069 l 372 1228 l 442 1228 l 321 1069 l 210 1069 l 351 1250 l 463 1250 z "},"Ë":{"ha":813,"x_min":79,"x_max":747,"o":"m 79 94 l 79 972 l 183 972 l 183 94 l 79 94 m 183 0 l 183 94 l 747 94 l 747 0 l 183 0 m 113 442 l 113 536 l 686 536 l 686 442 l 113 442 m 156 878 l 156 972 l 742 972 l 742 878 l 156 878 m 231 1231 l 357 1231 l 357 1100 l 231 1100 l 231 1231 m 457 1231 l 583 1231 l 583 1100 l 457 1100 l 457 1231 z "},"Ė":{"ha":813,"x_min":79,"x_max":747,"o":"m 79 94 l 79 972 l 183 972 l 183 94 l 79 94 m 183 0 l 183 94 l 747 94 l 747 0 l 183 0 m 113 442 l 113 536 l 686 536 l 686 442 l 113 442 m 156 878 l 156 972 l 742 972 l 742 878 l 156 878 m 343 1226 l 471 1226 l 471 1099 l 343 1099 l 343 1226 z "},"È":{"ha":813,"x_min":79,"x_max":747,"o":"m 79 94 l 79 972 l 183 972 l 183 94 l 79 94 m 183 0 l 183 94 l 747 94 l 747 0 l 183 0 m 113 442 l 113 536 l 686 536 l 686 442 l 113 442 m 156 878 l 156 972 l 742 972 l 742 878 l 156 878 m 367 1069 l 238 1250 l 376 1250 l 446 1069 l 367 1069 z "},"Ē":{"ha":813,"x_min":79,"x_max":747,"o":"m 79 94 l 79 972 l 183 972 l 183 94 l 79 94 m 183 0 l 183 94 l 747 94 l 747 0 l 183 0 m 113 442 l 113 536 l 686 536 l 686 442 l 113 442 m 156 878 l 156 972 l 742 972 l 742 878 l 156 878 m 215 1207 l 597 1207 l 597 1121 l 215 1121 l 215 1207 z "},"Ę":{"ha":813,"x_min":79,"x_max":754,"o":"m 79 94 l 79 972 l 183 972 l 183 94 l 79 94 m 183 0 l 183 94 l 747 94 l 747 0 l 183 0 m 113 442 l 113 536 l 686 536 l 686 442 l 113 442 m 156 878 l 156 972 l 742 972 l 742 878 l 156 878 m 747 0 q 689 -23 721 -8 q 633 -60 657 -37 q 610 -117 610 -83 q 628 -163 610 -147 q 671 -184 646 -179 q 715 -189 696 -189 l 754 -189 l 754 -278 l 713 -278 q 573 -240 624 -278 q 522 -144 522 -203 q 567 -36 522 -78 q 683 49 611 6 l 747 0 z "},"Ẽ":{"ha":813,"x_min":79,"x_max":747,"o":"m 79 94 l 79 972 l 183 972 l 183 94 l 79 94 m 183 0 l 183 94 l 747 94 l 747 0 l 183 0 m 113 442 l 113 536 l 686 536 l 686 442 l 113 442 m 156 878 l 156 972 l 742 972 l 742 878 l 156 878 m 333 1143 q 302 1127 313 1143 q 292 1088 292 1111 l 214 1088 q 232 1167 214 1138 q 276 1210 250 1197 q 329 1222 303 1222 q 395 1206 369 1222 q 442 1172 421 1189 q 486 1154 463 1154 q 517 1170 508 1154 q 526 1210 526 1186 l 603 1210 q 585 1129 603 1160 q 543 1085 568 1099 q 492 1072 518 1072 q 431 1090 458 1072 q 381 1125 404 1107 q 333 1143 357 1143 z "},"Ə":{"ha":1024,"x_min":36,"x_max":978,"o":"m 488 -22 q 307 15 392 -22 q 160 123 222 51 q 67 298 97 194 q 50 536 36 401 l 917 536 l 917 442 l 92 442 l 158 493 q 165 321 146 397 q 228 190 183 244 q 340 106 274 135 q 488 76 406 76 q 690 128 604 76 q 822 273 775 181 q 869 488 869 365 q 822 701 869 610 q 690 844 775 793 q 488 894 604 894 q 324 857 393 894 q 216 766 256 819 q 167 661 176 713 l 47 661 q 128 835 68 760 q 279 952 188 910 q 488 994 371 994 q 747 930 636 994 q 917 751 857 865 q 978 488 978 636 q 917 223 978 338 q 747 43 857 108 q 488 -22 636 -22 z "},"F":{"ha":807,"x_min":79,"x_max":742,"o":"m 183 508 l 686 508 l 686 414 l 183 414 l 183 508 m 183 972 l 742 972 l 742 878 l 183 878 l 183 972 m 183 878 l 183 0 l 79 0 l 79 878 l 183 878 z "},"G":{"ha":1017,"x_min":46,"x_max":979,"o":"m 526 -22 q 265 47 372 -22 q 101 231 157 115 q 46 488 46 346 q 77 684 46 592 q 169 846 108 776 q 320 955 231 915 q 526 994 410 994 q 833 891 722 994 q 965 613 943 788 l 856 613 q 829 709 849 660 q 772 801 810 758 q 675 869 735 843 q 526 894 615 894 q 321 838 404 894 q 196 690 238 782 q 154 488 154 597 q 196 283 154 376 q 321 134 238 190 q 526 78 404 78 q 693 110 626 78 q 799 195 760 142 q 852 313 838 249 q 863 443 867 378 l 926 406 l 526 406 l 526 497 l 969 497 q 924 198 979 313 q 767 31 869 83 q 526 -22 664 -22 z "},"Ğ":{"ha":1017,"x_min":46,"x_max":979,"o":"m 526 -22 q 265 47 372 -22 q 101 231 157 115 q 46 488 46 346 q 77 684 46 592 q 169 846 108 776 q 320 955 231 915 q 526 994 410 994 q 833 891 722 994 q 965 613 943 788 l 856 613 q 829 709 849 660 q 772 801 810 758 q 675 869 735 843 q 526 894 615 894 q 321 838 404 894 q 196 690 238 782 q 154 488 154 597 q 196 283 154 376 q 321 134 238 190 q 526 78 404 78 q 693 110 626 78 q 799 195 760 142 q 852 313 838 249 q 863 443 867 378 l 926 406 l 526 406 l 526 497 l 969 497 q 924 198 979 313 q 767 31 869 83 q 526 -22 664 -22 m 701 1242 q 640 1120 693 1163 q 510 1078 588 1078 q 378 1120 432 1078 q 317 1242 325 1163 l 418 1242 q 510 1163 428 1163 q 573 1181 550 1163 q 601 1242 596 1200 l 701 1242 z "},"Ǧ":{"ha":1017,"x_min":46,"x_max":979,"o":"m 526 -22 q 265 47 372 -22 q 101 231 157 115 q 46 488 46 346 q 77 684 46 592 q 169 846 108 776 q 320 955 231 915 q 526 994 410 994 q 833 891 722 994 q 965 613 943 788 l 856 613 q 829 709 849 660 q 772 801 810 758 q 675 869 735 843 q 526 894 615 894 q 321 838 404 894 q 196 690 238 782 q 154 488 154 597 q 196 283 154 376 q 321 134 238 190 q 526 78 404 78 q 693 110 626 78 q 799 195 760 142 q 852 313 838 249 q 863 443 867 378 l 926 406 l 526 406 l 526 497 l 969 497 q 924 198 979 313 q 767 31 869 83 q 526 -22 664 -22 m 453 1079 l 311 1260 l 422 1260 l 543 1101 l 474 1101 l 594 1260 l 706 1260 l 564 1079 l 453 1079 z "},"Ĝ":{"ha":1017,"x_min":46,"x_max":979,"o":"m 526 -22 q 265 47 372 -22 q 101 231 157 115 q 46 488 46 346 q 77 684 46 592 q 169 846 108 776 q 320 955 231 915 q 526 994 410 994 q 833 891 722 994 q 965 613 943 788 l 856 613 q 829 709 849 660 q 772 801 810 758 q 675 869 735 843 q 526 894 615 894 q 321 838 404 894 q 196 690 238 782 q 154 488 154 597 q 196 283 154 376 q 321 134 238 190 q 526 78 404 78 q 693 110 626 78 q 799 195 760 142 q 852 313 838 249 q 863 443 867 378 l 926 406 l 526 406 l 526 497 l 969 497 q 924 198 979 313 q 767 31 869 83 q 526 -22 664 -22 m 564 1250 l 706 1069 l 594 1069 l 474 1228 l 543 1228 l 422 1069 l 311 1069 l 453 1250 l 564 1250 z "},"Ģ":{"ha":1017,"x_min":46,"x_max":979,"o":"m 526 -22 q 265 47 372 -22 q 101 231 157 115 q 46 488 46 346 q 77 684 46 592 q 169 846 108 776 q 320 955 231 915 q 526 994 410 994 q 833 891 722 994 q 965 613 943 788 l 856 613 q 829 709 849 660 q 772 801 810 758 q 675 869 735 843 q 526 894 615 894 q 321 838 404 894 q 196 690 238 782 q 154 488 154 597 q 196 283 154 376 q 321 134 238 190 q 526 78 404 78 q 693 110 626 78 q 799 195 760 142 q 852 313 838 249 q 863 443 867 378 l 926 406 l 526 406 l 526 497 l 969 497 q 924 198 979 313 q 767 31 869 83 q 526 -22 664 -22 m 472 -293 l 472 -236 q 501 -225 493 -236 q 510 -194 510 -214 l 442 -194 l 442 -65 l 574 -65 l 574 -194 q 546 -268 574 -243 q 472 -293 518 -293 z "},"Ġ":{"ha":1017,"x_min":46,"x_max":979,"o":"m 526 -22 q 265 47 372 -22 q 101 231 157 115 q 46 488 46 346 q 77 684 46 592 q 169 846 108 776 q 320 955 231 915 q 526 994 410 994 q 833 891 722 994 q 965 613 943 788 l 856 613 q 829 709 849 660 q 772 801 810 758 q 675 869 735 843 q 526 894 615 894 q 321 838 404 894 q 196 690 238 782 q 154 488 154 597 q 196 283 154 376 q 321 134 238 190 q 526 78 404 78 q 693 110 626 78 q 799 195 760 142 q 852 313 838 249 q 863 443 867 378 l 926 406 l 526 406 l 526 497 l 969 497 q 924 198 979 313 q 767 31 869 83 q 526 -22 664 -22 m 444 1226 l 572 1226 l 572 1099 l 444 1099 l 444 1226 z "},"Ḡ":{"ha":1017,"x_min":46,"x_max":979,"o":"m 526 -22 q 265 47 372 -22 q 101 231 157 115 q 46 488 46 346 q 77 684 46 592 q 169 846 108 776 q 320 955 231 915 q 526 994 410 994 q 833 891 722 994 q 965 613 943 788 l 856 613 q 829 709 849 660 q 772 801 810 758 q 675 869 735 843 q 526 894 615 894 q 321 838 404 894 q 196 690 238 782 q 154 488 154 597 q 196 283 154 376 q 321 134 238 190 q 526 78 404 78 q 693 110 626 78 q 799 195 760 142 q 852 313 838 249 q 863 443 867 378 l 926 406 l 526 406 l 526 497 l 969 497 q 924 198 979 313 q 767 31 869 83 q 526 -22 664 -22 m 317 1207 l 699 1207 l 699 1121 l 317 1121 l 317 1207 z "},"H":{"ha":921,"x_min":79,"x_max":842,"o":"m 79 972 l 183 972 l 183 0 l 79 0 l 79 972 m 738 972 l 842 972 l 842 0 l 738 0 l 738 972 m 128 535 l 811 535 l 811 443 l 128 443 l 128 535 z "},"Ħ":{"ha":1157,"x_min":72,"x_max":1085,"o":"m 197 972 l 301 972 l 301 0 l 197 0 l 197 972 m 856 972 l 960 972 l 960 0 l 856 0 l 856 972 m 246 535 l 929 535 l 929 443 l 246 443 l 246 535 m 72 819 l 1085 819 l 1085 728 l 72 728 l 72 819 z "},"Ĥ":{"ha":921,"x_min":79,"x_max":842,"o":"m 79 972 l 183 972 l 183 0 l 79 0 l 79 972 m 738 972 l 842 972 l 842 0 l 738 0 l 738 972 m 128 535 l 811 535 l 811 443 l 128 443 l 128 535 m 517 1250 l 658 1069 l 547 1069 l 426 1228 l 496 1228 l 375 1069 l 264 1069 l 406 1250 l 517 1250 z "},"I":{"ha":263,"x_min":79,"x_max":183,"o":"m 79 972 l 183 972 l 183 0 l 79 0 l 79 972 z "},"Ĳ":{"ha":699,"x_min":79,"x_max":619,"o":"m 79 972 l 183 972 l 183 0 l 79 0 l 79 972 m 619 972 l 619 183 q 576 45 619 90 q 438 0 532 0 l 297 0 l 297 86 l 436 86 q 498 107 478 86 q 518 183 518 128 l 518 972 l 619 972 z "},"Í":{"ha":263,"x_min":79,"x_max":301,"o":"m 79 972 l 183 972 l 183 0 l 79 0 l 79 972 m 301 1250 l 172 1069 l 93 1069 l 163 1250 l 301 1250 z "},"Ĭ":{"ha":263,"x_min":-4,"x_max":268,"o":"m 79 972 l 183 972 l 183 0 l 79 0 l 79 972 m 268 1242 q 233 1123 268 1168 q 132 1078 197 1078 q 31 1123 67 1078 q -4 1242 -4 1168 l 83 1242 q 94 1181 83 1203 q 132 1158 104 1158 q 170 1181 160 1158 q 181 1242 181 1203 l 268 1242 z "},"Î":{"ha":263,"x_min":4,"x_max":260,"o":"m 79 972 l 183 972 l 183 0 l 79 0 l 79 972 m 161 1250 l 88 1069 l 4 1069 l 83 1250 l 161 1250 m 103 1250 l 181 1250 l 260 1069 l 176 1069 l 103 1250 z "},"Ï":{"ha":263,"x_min":-17,"x_max":281,"o":"m 79 972 l 183 972 l 183 0 l 79 0 l 79 972 m -17 1218 l 96 1218 l 96 1101 l -17 1101 l -17 1218 m 168 1218 l 281 1218 l 281 1101 l 168 1101 l 168 1218 z "},"İ":{"ha":263,"x_min":68,"x_max":196,"o":"m 79 972 l 183 972 l 183 0 l 79 0 l 79 972 m 68 1226 l 196 1226 l 196 1099 l 68 1099 l 68 1226 z "},"Ì":{"ha":263,"x_min":-37,"x_max":183,"o":"m 79 972 l 183 972 l 183 0 l 79 0 l 79 972 m 92 1069 l -37 1250 l 101 1250 l 171 1069 l 92 1069 z "},"Ī":{"ha":263,"x_min":-60,"x_max":322,"o":"m 79 972 l 183 972 l 183 0 l 79 0 l 79 972 m -60 1207 l 322 1207 l 322 1121 l -60 1121 l -60 1207 z "},"Į":{"ha":263,"x_min":-42,"x_max":190,"o":"m 79 972 l 183 972 l 183 0 l 79 0 l 79 972 m 183 0 q 125 -23 157 -8 q 69 -60 93 -37 q 46 -117 46 -83 q 64 -163 46 -147 q 107 -184 82 -179 q 151 -189 132 -189 l 190 -189 l 190 -278 l 149 -278 q 9 -240 60 -278 q -42 -144 -42 -203 q 3 -36 -42 -78 q 119 49 47 6 l 183 0 z "},"Ĩ":{"ha":263,"x_min":-12,"x_max":275,"o":"m 79 972 l 183 972 l 183 0 l 79 0 l 79 972 m 83 1142 q 60 1128 67 1142 q 54 1099 54 1114 l -12 1099 q 15 1197 -12 1171 q 75 1224 42 1224 q 122 1211 104 1224 q 153 1185 139 1199 q 182 1172 167 1172 q 205 1186 200 1172 q 210 1215 210 1200 l 275 1215 q 250 1115 275 1143 q 194 1088 225 1088 q 151 1101 171 1088 q 115 1128 132 1115 q 83 1142 99 1142 z "},"J":{"ha":450,"x_min":49,"x_max":371,"o":"m 371 972 l 371 183 q 327 45 371 90 q 189 0 283 0 l 49 0 l 49 86 l 188 86 q 249 107 229 86 q 269 183 269 128 l 269 972 l 371 972 z "},"Ĵ":{"ha":450,"x_min":49,"x_max":449,"o":"m 371 972 l 371 183 q 327 45 371 90 q 189 0 283 0 l 49 0 l 49 86 l 188 86 q 249 107 229 86 q 269 183 269 128 l 269 972 l 371 972 m 350 1250 l 276 1069 l 193 1069 l 272 1250 l 350 1250 m 292 1250 l 369 1250 l 449 1069 l 365 1069 l 292 1250 z "},"K":{"ha":849,"x_min":79,"x_max":806,"o":"m 79 972 l 183 972 l 183 0 l 79 0 l 79 972 m 782 972 l 149 178 l 171 364 l 656 972 l 782 972 m 419 582 l 806 0 l 669 0 l 371 476 l 419 582 z "},"Ķ":{"ha":849,"x_min":79,"x_max":806,"o":"m 79 972 l 183 972 l 183 0 l 79 0 l 79 972 m 782 972 l 149 178 l 171 364 l 656 972 l 782 972 m 419 582 l 806 0 l 669 0 l 371 476 l 419 582 m 392 -293 l 392 -236 q 421 -225 413 -236 q 429 -194 429 -214 l 361 -194 l 361 -65 l 493 -65 l 493 -194 q 465 -268 493 -243 q 392 -293 438 -293 z "},"L":{"ha":685,"x_min":79,"x_max":650,"o":"m 79 972 l 183 972 l 183 0 l 79 0 l 79 972 m 118 92 l 650 92 l 650 0 l 118 0 l 118 92 z "},"Ĺ":{"ha":685,"x_min":79,"x_max":650,"o":"m 79 972 l 183 972 l 183 0 l 79 0 l 79 972 m 118 92 l 650 92 l 650 0 l 118 0 l 118 92 m 300 1250 l 171 1069 l 92 1069 l 161 1250 l 300 1250 z "},"Ľ":{"ha":685,"x_min":79,"x_max":650,"o":"m 79 972 l 183 972 l 183 0 l 79 0 l 79 972 m 118 92 l 650 92 l 650 0 l 118 0 l 118 92 m 349 744 l 349 801 q 378 813 369 801 q 386 843 386 824 l 318 843 l 318 972 l 450 972 l 450 843 q 422 769 450 794 q 349 744 394 744 z "},"Ļ":{"ha":685,"x_min":79,"x_max":650,"o":"m 79 972 l 183 972 l 183 0 l 79 0 l 79 972 m 118 92 l 650 92 l 650 0 l 118 0 l 118 92 m 314 -293 l 314 -236 q 343 -225 335 -236 q 351 -194 351 -214 l 283 -194 l 283 -65 l 415 -65 l 415 -194 q 388 -268 415 -243 q 314 -293 360 -293 z "},"Ł":{"ha":808,"x_min":72,"x_max":774,"o":"m 203 972 l 307 972 l 307 0 l 203 0 l 203 972 m 242 92 l 774 92 l 774 0 l 242 0 l 242 92 m 72 507 l 497 646 l 497 551 l 72 413 l 72 507 z "},"M":{"ha":1046,"x_min":79,"x_max":967,"o":"m 450 0 l 129 972 l 238 972 l 550 0 l 450 0 m 596 0 l 496 0 l 808 972 l 917 972 l 596 0 m 79 972 l 176 972 l 176 0 l 79 0 l 79 972 m 869 972 l 967 972 l 967 0 l 869 0 l 869 972 z "},"N":{"ha":868,"x_min":79,"x_max":789,"o":"m 651 0 l 101 972 l 217 972 l 767 0 l 651 0 m 79 972 l 176 972 l 176 0 l 79 0 l 79 972 m 692 972 l 789 972 l 789 0 l 692 0 l 692 972 z "},"Ń":{"ha":868,"x_min":79,"x_max":789,"o":"m 651 0 l 101 972 l 217 972 l 767 0 l 651 0 m 79 972 l 176 972 l 176 0 l 79 0 l 79 972 m 692 972 l 789 972 l 789 0 l 692 0 l 692 972 m 604 1250 l 475 1069 l 396 1069 l 465 1250 l 604 1250 z "},"Ň":{"ha":868,"x_min":79,"x_max":789,"o":"m 651 0 l 101 972 l 217 972 l 767 0 l 651 0 m 79 972 l 176 972 l 176 0 l 79 0 l 79 972 m 692 972 l 789 972 l 789 0 l 692 0 l 692 972 m 379 1079 l 238 1260 l 349 1260 l 469 1101 l 400 1101 l 521 1260 l 632 1260 l 490 1079 l 379 1079 z "},"Ņ":{"ha":868,"x_min":79,"x_max":789,"o":"m 651 0 l 101 972 l 217 972 l 767 0 l 651 0 m 79 972 l 176 972 l 176 0 l 79 0 l 79 972 m 692 972 l 789 972 l 789 0 l 692 0 l 692 972 m 399 -293 l 399 -236 q 428 -225 419 -236 q 436 -194 436 -214 l 368 -194 l 368 -65 l 500 -65 l 500 -194 q 472 -268 500 -243 q 399 -293 444 -293 z "},"Ñ":{"ha":868,"x_min":79,"x_max":789,"o":"m 651 0 l 101 972 l 217 972 l 767 0 l 651 0 m 79 972 l 176 972 l 176 0 l 79 0 l 79 972 m 692 972 l 789 972 l 789 0 l 692 0 l 692 972 m 361 1143 q 330 1127 340 1143 q 319 1088 319 1111 l 242 1088 q 260 1167 242 1138 q 304 1210 278 1197 q 357 1222 331 1222 q 423 1206 397 1222 q 469 1172 449 1189 q 514 1154 490 1154 q 545 1170 536 1154 q 554 1210 554 1186 l 631 1210 q 613 1129 631 1160 q 571 1085 596 1099 q 519 1072 546 1072 q 459 1090 486 1072 q 408 1125 432 1107 q 361 1143 385 1143 z "},"O":{"ha":1051,"x_min":46,"x_max":1006,"o":"m 526 -22 q 265 47 372 -22 q 101 231 157 115 q 46 488 46 346 q 77 684 46 592 q 169 846 108 776 q 320 955 231 915 q 526 994 410 994 q 731 955 642 994 q 882 846 821 915 q 974 684 943 776 q 1006 488 1006 592 q 950 231 1006 346 q 788 47 894 115 q 526 -22 681 -22 m 526 78 q 731 134 649 78 q 856 283 814 190 q 897 488 897 376 q 856 690 897 597 q 731 838 814 782 q 526 894 649 894 q 322 838 404 894 q 197 690 239 782 q 154 488 154 597 q 197 283 154 376 q 322 134 239 190 q 526 78 404 78 z "},"Ó":{"ha":1051,"x_min":46,"x_max":1006,"o":"m 526 -22 q 265 47 372 -22 q 101 231 157 115 q 46 488 46 346 q 77 684 46 592 q 169 846 108 776 q 320 955 231 915 q 526 994 410 994 q 731 955 642 994 q 882 846 821 915 q 974 684 943 776 q 1006 488 1006 592 q 950 231 1006 346 q 788 47 894 115 q 526 -22 681 -22 m 526 78 q 731 134 649 78 q 856 283 814 190 q 897 488 897 376 q 856 690 897 597 q 731 838 814 782 q 526 894 649 894 q 322 838 404 894 q 197 690 239 782 q 154 488 154 597 q 197 283 154 376 q 322 134 239 190 q 526 78 404 78 m 696 1250 l 567 1069 l 488 1069 l 557 1250 l 696 1250 z "},"Ŏ":{"ha":1051,"x_min":46,"x_max":1006,"o":"m 526 -22 q 265 47 372 -22 q 101 231 157 115 q 46 488 46 346 q 77 684 46 592 q 169 846 108 776 q 320 955 231 915 q 526 994 410 994 q 731 955 642 994 q 882 846 821 915 q 974 684 943 776 q 1006 488 1006 592 q 950 231 1006 346 q 788 47 894 115 q 526 -22 681 -22 m 526 78 q 731 134 649 78 q 856 283 814 190 q 897 488 897 376 q 856 690 897 597 q 731 838 814 782 q 526 894 649 894 q 322 838 404 894 q 197 690 239 782 q 154 488 154 597 q 197 283 154 376 q 322 134 239 190 q 526 78 404 78 m 719 1242 q 658 1120 711 1163 q 528 1078 606 1078 q 397 1120 450 1078 q 335 1242 343 1163 l 436 1242 q 528 1163 446 1163 q 591 1181 568 1163 q 619 1242 614 1200 l 719 1242 z "},"Ô":{"ha":1051,"x_min":46,"x_max":1006,"o":"m 526 -22 q 265 47 372 -22 q 101 231 157 115 q 46 488 46 346 q 77 684 46 592 q 169 846 108 776 q 320 955 231 915 q 526 994 410 994 q 731 955 642 994 q 882 846 821 915 q 974 684 943 776 q 1006 488 1006 592 q 950 231 1006 346 q 788 47 894 115 q 526 -22 681 -22 m 526 78 q 731 134 649 78 q 856 283 814 190 q 897 488 897 376 q 856 690 897 597 q 731 838 814 782 q 526 894 649 894 q 322 838 404 894 q 197 690 239 782 q 154 488 154 597 q 197 283 154 376 q 322 134 239 190 q 526 78 404 78 m 582 1250 l 724 1069 l 613 1069 l 492 1228 l 561 1228 l 440 1069 l 329 1069 l 471 1250 l 582 1250 z "},"Ö":{"ha":1051,"x_min":46,"x_max":1006,"o":"m 526 -22 q 265 47 372 -22 q 101 231 157 115 q 46 488 46 346 q 77 684 46 592 q 169 846 108 776 q 320 955 231 915 q 526 994 410 994 q 731 955 642 994 q 882 846 821 915 q 974 684 943 776 q 1006 488 1006 592 q 950 231 1006 346 q 788 47 894 115 q 526 -22 681 -22 m 526 78 q 731 134 649 78 q 856 283 814 190 q 897 488 897 376 q 856 690 897 597 q 731 838 814 782 q 526 894 649 894 q 322 838 404 894 q 197 690 239 782 q 154 488 154 597 q 197 283 154 376 q 322 134 239 190 q 526 78 404 78 m 350 1231 l 476 1231 l 476 1100 l 350 1100 l 350 1231 m 576 1231 l 703 1231 l 703 1100 l 576 1100 l 576 1231 z "},"Ò":{"ha":1051,"x_min":46,"x_max":1006,"o":"m 526 -22 q 265 47 372 -22 q 101 231 157 115 q 46 488 46 346 q 77 684 46 592 q 169 846 108 776 q 320 955 231 915 q 526 994 410 994 q 731 955 642 994 q 882 846 821 915 q 974 684 943 776 q 1006 488 1006 592 q 950 231 1006 346 q 788 47 894 115 q 526 -22 681 -22 m 526 78 q 731 134 649 78 q 856 283 814 190 q 897 488 897 376 q 856 690 897 597 q 731 838 814 782 q 526 894 649 894 q 322 838 404 894 q 197 690 239 782 q 154 488 154 597 q 197 283 154 376 q 322 134 239 190 q 526 78 404 78 m 486 1069 l 357 1250 l 496 1250 l 565 1069 l 486 1069 z "},"Ő":{"ha":1051,"x_min":46,"x_max":1006,"o":"m 526 -22 q 265 47 372 -22 q 101 231 157 115 q 46 488 46 346 q 77 684 46 592 q 169 846 108 776 q 320 955 231 915 q 526 994 410 994 q 731 955 642 994 q 882 846 821 915 q 974 684 943 776 q 1006 488 1006 592 q 950 231 1006 346 q 788 47 894 115 q 526 -22 681 -22 m 526 78 q 731 134 649 78 q 856 283 814 190 q 897 488 897 376 q 856 690 897 597 q 731 838 814 782 q 526 894 649 894 q 322 838 404 894 q 197 690 239 782 q 154 488 154 597 q 197 283 154 376 q 322 134 239 190 q 526 78 404 78 m 563 1250 l 461 1069 l 382 1069 l 424 1250 l 563 1250 m 754 1250 l 653 1069 l 574 1069 l 615 1250 l 754 1250 z "},"Ō":{"ha":1051,"x_min":46,"x_max":1006,"o":"m 526 -22 q 265 47 372 -22 q 101 231 157 115 q 46 488 46 346 q 77 684 46 592 q 169 846 108 776 q 320 955 231 915 q 526 994 410 994 q 731 955 642 994 q 882 846 821 915 q 974 684 943 776 q 1006 488 1006 592 q 950 231 1006 346 q 788 47 894 115 q 526 -22 681 -22 m 526 78 q 731 134 649 78 q 856 283 814 190 q 897 488 897 376 q 856 690 897 597 q 731 838 814 782 q 526 894 649 894 q 322 838 404 894 q 197 690 239 782 q 154 488 154 597 q 197 283 154 376 q 322 134 239 190 q 526 78 404 78 m 335 1207 l 717 1207 l 717 1121 l 335 1121 l 335 1207 z "},"Ø":{"ha":1051,"x_min":46,"x_max":1006,"o":"m 526 -22 q 265 47 372 -22 q 101 231 157 115 q 46 488 46 346 q 77 684 46 592 q 169 846 108 776 q 320 955 231 915 q 526 994 410 994 q 731 955 642 994 q 882 846 821 915 q 974 684 943 776 q 1006 488 1006 592 q 950 231 1006 346 q 788 47 894 115 q 526 -22 681 -22 m 217 -22 l 132 38 l 808 994 l 893 935 l 217 -22 m 526 78 q 685 112 618 78 q 797 204 753 146 q 862 336 840 263 q 883 488 883 410 q 862 638 883 565 q 797 768 840 710 q 685 860 753 826 q 526 894 618 894 q 365 860 435 894 q 249 768 296 826 q 178 638 201 710 q 154 488 154 565 q 178 336 154 410 q 249 204 201 263 q 365 112 296 146 q 526 78 435 78 z "},"Õ":{"ha":1051,"x_min":46,"x_max":1006,"o":"m 526 -22 q 265 47 372 -22 q 101 231 157 115 q 46 488 46 346 q 77 684 46 592 q 169 846 108 776 q 320 955 231 915 q 526 994 410 994 q 731 955 642 994 q 882 846 821 915 q 974 684 943 776 q 1006 488 1006 592 q 950 231 1006 346 q 788 47 894 115 q 526 -22 681 -22 m 526 78 q 731 134 649 78 q 856 283 814 190 q 897 488 897 376 q 856 690 897 597 q 731 838 814 782 q 526 894 649 894 q 322 838 404 894 q 197 690 239 782 q 154 488 154 597 q 197 283 154 376 q 322 134 239 190 q 526 78 404 78 m 453 1143 q 422 1127 432 1143 q 411 1088 411 1111 l 333 1088 q 351 1167 333 1138 q 396 1210 369 1197 q 449 1222 422 1222 q 515 1206 489 1222 q 561 1172 540 1189 q 606 1154 582 1154 q 637 1170 628 1154 q 646 1210 646 1186 l 722 1210 q 705 1129 722 1160 q 663 1085 688 1099 q 611 1072 638 1072 q 551 1090 578 1072 q 500 1125 524 1107 q 453 1143 476 1143 z "},"Œ":{"ha":1589,"x_min":46,"x_max":1524,"o":"m 526 -22 q 265 47 372 -22 q 101 231 157 115 q 46 488 46 346 q 77 684 46 592 q 169 846 108 776 q 320 955 231 915 q 526 994 410 994 q 723 955 642 994 q 854 846 804 915 q 927 684 904 776 q 950 488 950 592 q 927 290 950 382 q 854 127 904 197 q 723 17 804 57 q 526 -22 642 -22 m 526 78 q 685 112 618 78 q 797 204 753 146 q 862 336 840 263 q 883 488 883 410 q 862 638 883 565 q 797 768 840 710 q 685 860 753 826 q 526 894 618 894 q 365 860 435 894 q 249 768 296 826 q 178 638 201 710 q 154 488 154 565 q 178 336 154 410 q 249 204 201 263 q 365 112 296 146 q 526 78 435 78 m 949 0 l 949 94 l 1524 94 l 1524 0 l 949 0 m 883 0 l 883 972 l 988 972 l 988 0 l 883 0 m 917 442 l 917 536 l 1463 536 l 1463 442 l 917 442 m 960 878 l 960 972 l 1518 972 l 1518 878 l 960 878 z "},"P":{"ha":865,"x_min":79,"x_max":811,"o":"m 183 453 l 388 453 l 388 361 l 183 361 l 183 453 m 388 453 q 559 472 489 453 q 666 538 629 490 q 703 668 703 585 q 666 798 703 751 q 559 863 629 844 q 388 881 489 881 l 388 972 q 616 943 521 972 q 761 847 711 914 q 811 668 811 781 q 761 489 811 557 q 616 391 711 421 q 388 361 521 361 l 388 453 m 183 972 l 388 972 l 388 881 l 183 881 l 183 972 m 183 881 l 183 0 l 79 0 l 79 881 l 183 881 z "},"Þ":{"ha":847,"x_min":65,"x_max":797,"o":"m 65 972 l 169 972 l 169 0 l 65 0 l 65 972 m 142 272 l 374 272 l 374 181 l 142 181 l 142 272 m 374 272 q 545 291 475 272 q 652 357 615 310 q 689 488 689 404 q 652 617 689 571 q 545 682 615 664 q 374 700 475 700 l 374 792 q 602 763 507 792 q 747 667 697 733 q 797 488 797 600 q 747 308 797 376 q 602 210 697 240 q 374 181 507 181 l 374 272 m 142 792 l 374 792 l 374 700 l 142 700 l 142 792 z "},"Q":{"ha":1051,"x_min":46,"x_max":1006,"o":"m 526 -22 q 265 47 372 -22 q 101 231 157 115 q 46 488 46 346 q 77 684 46 592 q 169 846 108 776 q 320 955 231 915 q 526 994 410 994 q 731 955 642 994 q 882 846 821 915 q 974 684 943 776 q 1006 488 1006 592 q 950 231 1006 346 q 788 47 894 115 q 526 -22 681 -22 m 475 -186 l 475 44 l 576 44 l 576 -186 l 475 -186 m 576 -278 l 576 -186 l 797 -186 l 797 -278 l 576 -278 m 526 78 q 685 112 618 78 q 797 204 753 146 q 862 336 840 263 q 883 488 883 410 q 862 638 883 565 q 797 768 840 710 q 685 860 753 826 q 526 894 618 894 q 365 860 435 894 q 249 768 296 826 q 178 638 201 710 q 154 488 154 565 q 178 336 154 410 q 249 204 201 263 q 365 112 296 146 q 526 78 435 78 z "},"R":{"ha":899,"x_min":79,"x_max":839,"o":"m 183 467 l 415 467 l 415 375 l 183 375 l 183 467 m 415 467 q 587 484 517 467 q 694 547 657 501 q 731 675 731 592 q 694 803 731 758 q 587 864 657 847 q 415 881 517 881 l 415 972 q 644 944 549 972 q 789 852 739 917 q 839 675 839 788 q 789 498 839 564 q 644 403 739 432 q 415 375 549 375 l 415 467 m 183 972 l 415 972 l 415 881 l 183 881 l 183 972 m 496 449 l 600 449 l 818 0 l 700 0 l 496 449 m 183 881 l 183 0 l 79 0 l 79 881 l 183 881 z "},"Ŕ":{"ha":899,"x_min":79,"x_max":839,"o":"m 183 467 l 415 467 l 415 375 l 183 375 l 183 467 m 415 467 q 587 484 517 467 q 694 547 657 501 q 731 675 731 592 q 694 803 731 758 q 587 864 657 847 q 415 881 517 881 l 415 972 q 644 944 549 972 q 789 852 739 917 q 839 675 839 788 q 789 498 839 564 q 644 403 739 432 q 415 375 549 375 l 415 467 m 183 972 l 415 972 l 415 881 l 183 881 l 183 972 m 496 449 l 600 449 l 818 0 l 700 0 l 496 449 m 183 881 l 183 0 l 79 0 l 79 881 l 183 881 m 576 1250 l 447 1069 l 368 1069 l 438 1250 l 576 1250 z "},"Ř":{"ha":899,"x_min":79,"x_max":839,"o":"m 183 467 l 415 467 l 415 375 l 183 375 l 183 467 m 415 467 q 587 484 517 467 q 694 547 657 501 q 731 675 731 592 q 694 803 731 758 q 587 864 657 847 q 415 881 517 881 l 415 972 q 644 944 549 972 q 789 852 739 917 q 839 675 839 788 q 789 498 839 564 q 644 403 739 432 q 415 375 549 375 l 415 467 m 183 972 l 415 972 l 415 881 l 183 881 l 183 972 m 496 449 l 600 449 l 818 0 l 700 0 l 496 449 m 183 881 l 183 0 l 79 0 l 79 881 l 183 881 m 351 1079 l 210 1260 l 321 1260 l 442 1101 l 372 1101 l 493 1260 l 604 1260 l 463 1079 l 351 1079 z "},"Ŗ":{"ha":899,"x_min":79,"x_max":839,"o":"m 183 467 l 415 467 l 415 375 l 183 375 l 183 467 m 415 467 q 587 484 517 467 q 694 547 657 501 q 731 675 731 592 q 694 803 731 758 q 587 864 657 847 q 415 881 517 881 l 415 972 q 644 944 549 972 q 789 852 739 917 q 839 675 839 788 q 789 498 839 564 q 644 403 739 432 q 415 375 549 375 l 415 467 m 183 972 l 415 972 l 415 881 l 183 881 l 183 972 m 496 449 l 600 449 l 818 0 l 700 0 l 496 449 m 183 881 l 183 0 l 79 0 l 79 881 l 183 881 m 408 -293 l 408 -236 q 438 -225 429 -236 q 446 -194 446 -214 l 378 -194 l 378 -65 l 510 -65 l 510 -194 q 482 -268 510 -243 q 408 -293 454 -293 z "},"S":{"ha":897,"x_min":56,"x_max":842,"o":"m 171 310 q 215 184 176 236 q 319 105 254 132 q 464 78 383 78 q 660 128 588 78 q 733 263 733 178 q 697 349 733 318 q 601 397 661 381 q 471 426 542 414 q 329 453 400 438 q 199 496 258 468 q 103 574 139 524 q 67 708 67 625 q 113 851 67 786 q 246 956 160 917 q 450 994 332 994 q 640 953 554 994 q 776 837 725 911 q 826 664 826 763 l 713 664 q 642 835 707 775 q 443 894 578 894 q 242 844 310 894 q 175 708 175 794 q 211 615 175 649 q 307 565 247 582 q 438 537 367 547 q 579 512 508 526 q 710 470 650 497 q 806 394 769 443 q 842 263 842 344 q 740 52 842 126 q 456 -22 638 -22 q 253 22 343 -22 q 112 140 164 65 q 56 310 60 215 l 171 310 z "},"Ś":{"ha":897,"x_min":56,"x_max":842,"o":"m 171 310 q 215 184 176 236 q 319 105 254 132 q 464 78 383 78 q 660 128 588 78 q 733 263 733 178 q 697 349 733 318 q 601 397 661 381 q 471 426 542 414 q 329 453 400 438 q 199 496 258 468 q 103 574 139 524 q 67 708 67 625 q 113 851 67 786 q 246 956 160 917 q 450 994 332 994 q 640 953 554 994 q 776 837 725 911 q 826 664 826 763 l 713 664 q 642 835 707 775 q 443 894 578 894 q 242 844 310 894 q 175 708 175 794 q 211 615 175 649 q 307 565 247 582 q 438 537 367 547 q 579 512 508 526 q 710 470 650 497 q 806 394 769 443 q 842 263 842 344 q 740 52 842 126 q 456 -22 638 -22 q 253 22 343 -22 q 112 140 164 65 q 56 310 60 215 l 171 310 m 618 1250 l 489 1069 l 410 1069 l 479 1250 l 618 1250 z "},"Š":{"ha":897,"x_min":56,"x_max":842,"o":"m 171 310 q 215 184 176 236 q 319 105 254 132 q 464 78 383 78 q 660 128 588 78 q 733 263 733 178 q 697 349 733 318 q 601 397 661 381 q 471 426 542 414 q 329 453 400 438 q 199 496 258 468 q 103 574 139 524 q 67 708 67 625 q 113 851 67 786 q 246 956 160 917 q 450 994 332 994 q 640 953 554 994 q 776 837 725 911 q 826 664 826 763 l 713 664 q 642 835 707 775 q 443 894 578 894 q 242 844 310 894 q 175 708 175 794 q 211 615 175 649 q 307 565 247 582 q 438 537 367 547 q 579 512 508 526 q 710 470 650 497 q 806 394 769 443 q 842 263 842 344 q 740 52 842 126 q 456 -22 638 -22 q 253 22 343 -22 q 112 140 164 65 q 56 310 60 215 l 171 310 m 393 1079 l 251 1260 l 363 1260 l 483 1101 l 414 1101 l 535 1260 l 646 1260 l 504 1079 l 393 1079 z "},"Ş":{"ha":897,"x_min":56,"x_max":842,"o":"m 171 310 q 215 184 176 236 q 319 105 254 132 q 464 78 383 78 q 660 128 588 78 q 733 263 733 178 q 697 349 733 318 q 601 397 661 381 q 471 426 542 414 q 329 453 400 438 q 199 496 258 468 q 103 574 139 524 q 67 708 67 625 q 113 851 67 786 q 246 956 160 917 q 450 994 332 994 q 640 953 554 994 q 776 837 725 911 q 826 664 826 763 l 713 664 q 642 835 707 775 q 443 894 578 894 q 242 844 310 894 q 175 708 175 794 q 211 615 175 649 q 307 565 247 582 q 438 537 367 547 q 579 512 508 526 q 710 470 650 497 q 806 394 769 443 q 842 263 842 344 q 740 52 842 126 q 456 -22 638 -22 q 253 22 343 -22 q 112 140 164 65 q 56 310 60 215 l 171 310 m 429 56 l 517 56 l 517 -124 l 429 -124 l 429 56 m 497 -124 l 497 -49 q 619 -76 581 -49 q 658 -162 658 -104 q 622 -250 658 -222 q 514 -278 585 -278 l 397 -278 l 397 -203 l 497 -203 q 552 -197 529 -203 q 575 -162 575 -192 q 552 -128 575 -133 q 497 -124 529 -124 z "},"Ŝ":{"ha":897,"x_min":56,"x_max":842,"o":"m 171 310 q 215 184 176 236 q 319 105 254 132 q 464 78 383 78 q 660 128 588 78 q 733 263 733 178 q 697 349 733 318 q 601 397 661 381 q 471 426 542 414 q 329 453 400 438 q 199 496 258 468 q 103 574 139 524 q 67 708 67 625 q 113 851 67 786 q 246 956 160 917 q 450 994 332 994 q 640 953 554 994 q 776 837 725 911 q 826 664 826 763 l 713 664 q 642 835 707 775 q 443 894 578 894 q 242 844 310 894 q 175 708 175 794 q 211 615 175 649 q 307 565 247 582 q 438 537 367 547 q 579 512 508 526 q 710 470 650 497 q 806 394 769 443 q 842 263 842 344 q 740 52 842 126 q 456 -22 638 -22 q 253 22 343 -22 q 112 140 164 65 q 56 310 60 215 l 171 310 m 504 1250 l 646 1069 l 535 1069 l 414 1228 l 483 1228 l 363 1069 l 251 1069 l 393 1250 l 504 1250 z "},"Ș":{"ha":897,"x_min":56,"x_max":842,"o":"m 171 310 q 215 184 176 236 q 319 105 254 132 q 464 78 383 78 q 660 128 588 78 q 733 263 733 178 q 697 349 733 318 q 601 397 661 381 q 471 426 542 414 q 329 453 400 438 q 199 496 258 468 q 103 574 139 524 q 67 708 67 625 q 113 851 67 786 q 246 956 160 917 q 450 994 332 994 q 640 953 554 994 q 776 837 725 911 q 826 664 826 763 l 713 664 q 642 835 707 775 q 443 894 578 894 q 242 844 310 894 q 175 708 175 794 q 211 615 175 649 q 307 565 247 582 q 438 537 367 547 q 579 512 508 526 q 710 470 650 497 q 806 394 769 443 q 842 263 842 344 q 740 52 842 126 q 456 -22 638 -22 q 253 22 343 -22 q 112 140 164 65 q 56 310 60 215 l 171 310 m 413 -293 l 413 -236 q 442 -225 433 -236 q 450 -194 450 -214 l 382 -194 l 382 -65 l 514 -65 l 514 -194 q 486 -268 514 -243 q 413 -293 458 -293 z "},"ẞ":{"ha":901,"x_min":79,"x_max":860,"o":"m 357 0 l 357 92 l 475 92 q 621 109 558 92 q 717 167 683 126 q 751 276 751 207 q 723 384 751 344 q 631 441 694 424 q 460 458 567 458 l 404 458 l 404 550 l 708 929 l 732 881 l 183 881 l 183 0 l 79 0 l 79 972 l 800 972 l 800 881 l 492 500 l 464 549 q 691 531 604 558 q 819 440 778 503 q 860 282 860 376 q 828 142 860 197 q 743 56 797 86 q 618 13 689 25 q 468 0 547 0 l 357 0 z "},"T":{"ha":793,"x_min":35,"x_max":758,"o":"m 344 972 l 449 972 l 449 0 l 344 0 l 344 972 m 35 972 l 758 972 l 758 881 l 35 881 l 35 972 z "},"Ť":{"ha":793,"x_min":35,"x_max":758,"o":"m 344 972 l 449 972 l 449 0 l 344 0 l 344 972 m 35 972 l 758 972 l 758 881 l 35 881 l 35 972 m 342 1079 l 200 1260 l 311 1260 l 432 1101 l 363 1101 l 483 1260 l 594 1260 l 453 1079 l 342 1079 z "},"Ţ":{"ha":793,"x_min":35,"x_max":758,"o":"m 344 972 l 449 972 l 449 0 l 344 0 l 344 972 m 35 972 l 758 972 l 758 881 l 35 881 l 35 972 m 353 56 l 440 56 l 440 -124 l 353 -124 l 353 56 m 421 -124 l 421 -49 q 543 -76 504 -49 q 582 -162 582 -104 q 545 -250 582 -222 q 438 -278 508 -278 l 321 -278 l 321 -203 l 421 -203 q 476 -197 453 -203 q 499 -162 499 -192 q 476 -128 499 -133 q 421 -124 453 -124 z "},"Ț":{"ha":793,"x_min":35,"x_max":758,"o":"m 344 972 l 449 972 l 449 0 l 344 0 l 344 972 m 35 972 l 758 972 l 758 881 l 35 881 l 35 972 m 361 -293 l 361 -236 q 390 -225 382 -236 q 399 -194 399 -214 l 331 -194 l 331 -65 l 463 -65 l 463 -194 q 435 -268 463 -243 q 361 -293 407 -293 z "},"U":{"ha":865,"x_min":72,"x_max":793,"o":"m 793 417 q 758 181 793 279 q 643 31 722 83 q 433 -22 564 -22 q 223 31 303 -22 q 108 181 143 83 q 72 417 72 279 l 176 417 q 199 233 176 308 q 278 117 222 157 q 433 78 333 78 q 588 117 532 78 q 666 233 643 157 q 689 417 689 308 l 793 417 m 72 972 l 176 972 l 176 417 l 72 417 l 72 972 m 689 972 l 793 972 l 793 417 l 689 417 l 689 972 z "},"Ú":{"ha":865,"x_min":72,"x_max":793,"o":"m 793 417 q 758 181 793 279 q 643 31 722 83 q 433 -22 564 -22 q 223 31 303 -22 q 108 181 143 83 q 72 417 72 279 l 176 417 q 199 233 176 308 q 278 117 222 157 q 433 78 333 78 q 588 117 532 78 q 666 233 643 157 q 689 417 689 308 l 793 417 m 72 972 l 176 972 l 176 417 l 72 417 l 72 972 m 689 972 l 793 972 l 793 417 l 689 417 l 689 972 m 603 1250 l 474 1069 l 394 1069 l 464 1250 l 603 1250 z "},"Ŭ":{"ha":865,"x_min":72,"x_max":793,"o":"m 793 417 q 758 181 793 279 q 643 31 722 83 q 433 -22 564 -22 q 223 31 303 -22 q 108 181 143 83 q 72 417 72 279 l 176 417 q 199 233 176 308 q 278 117 222 157 q 433 78 333 78 q 588 117 532 78 q 666 233 643 157 q 689 417 689 308 l 793 417 m 72 972 l 176 972 l 176 417 l 72 417 l 72 972 m 689 972 l 793 972 l 793 417 l 689 417 l 689 972 m 626 1242 q 565 1120 618 1163 q 435 1078 513 1078 q 303 1120 357 1078 q 242 1242 250 1163 l 343 1242 q 435 1163 353 1163 q 498 1181 475 1163 q 526 1242 521 1200 l 626 1242 z "},"Û":{"ha":865,"x_min":72,"x_max":793,"o":"m 793 417 q 758 181 793 279 q 643 31 722 83 q 433 -22 564 -22 q 223 31 303 -22 q 108 181 143 83 q 72 417 72 279 l 176 417 q 199 233 176 308 q 278 117 222 157 q 433 78 333 78 q 588 117 532 78 q 666 233 643 157 q 689 417 689 308 l 793 417 m 72 972 l 176 972 l 176 417 l 72 417 l 72 972 m 689 972 l 793 972 l 793 417 l 689 417 l 689 972 m 489 1250 l 631 1069 l 519 1069 l 399 1228 l 468 1228 l 347 1069 l 236 1069 l 378 1250 l 489 1250 z "},"Ü":{"ha":865,"x_min":72,"x_max":793,"o":"m 793 417 q 758 181 793 279 q 643 31 722 83 q 433 -22 564 -22 q 223 31 303 -22 q 108 181 143 83 q 72 417 72 279 l 176 417 q 199 233 176 308 q 278 117 222 157 q 433 78 333 78 q 588 117 532 78 q 666 233 643 157 q 689 417 689 308 l 793 417 m 72 972 l 176 972 l 176 417 l 72 417 l 72 972 m 689 972 l 793 972 l 793 417 l 689 417 l 689 972 m 257 1231 l 383 1231 l 383 1100 l 257 1100 l 257 1231 m 483 1231 l 610 1231 l 610 1100 l 483 1100 l 483 1231 z "},"Ù":{"ha":865,"x_min":72,"x_max":793,"o":"m 793 417 q 758 181 793 279 q 643 31 722 83 q 433 -22 564 -22 q 223 31 303 -22 q 108 181 143 83 q 72 417 72 279 l 176 417 q 199 233 176 308 q 278 117 222 157 q 433 78 333 78 q 588 117 532 78 q 666 233 643 157 q 689 417 689 308 l 793 417 m 72 972 l 176 972 l 176 417 l 72 417 l 72 972 m 689 972 l 793 972 l 793 417 l 689 417 l 689 972 m 393 1069 l 264 1250 l 403 1250 l 472 1069 l 393 1069 z "},"Ű":{"ha":865,"x_min":72,"x_max":793,"o":"m 793 417 q 758 181 793 279 q 643 31 722 83 q 433 -22 564 -22 q 223 31 303 -22 q 108 181 143 83 q 72 417 72 279 l 176 417 q 199 233 176 308 q 278 117 222 157 q 433 78 333 78 q 588 117 532 78 q 666 233 643 157 q 689 417 689 308 l 793 417 m 72 972 l 176 972 l 176 417 l 72 417 l 72 972 m 689 972 l 793 972 l 793 417 l 689 417 l 689 972 m 469 1250 l 368 1069 l 289 1069 l 331 1250 l 469 1250 m 661 1250 l 560 1069 l 481 1069 l 522 1250 l 661 1250 z "},"Ū":{"ha":865,"x_min":72,"x_max":793,"o":"m 793 417 q 758 181 793 279 q 643 31 722 83 q 433 -22 564 -22 q 223 31 303 -22 q 108 181 143 83 q 72 417 72 279 l 176 417 q 199 233 176 308 q 278 117 222 157 q 433 78 333 78 q 588 117 532 78 q 666 233 643 157 q 689 417 689 308 l 793 417 m 72 972 l 176 972 l 176 417 l 72 417 l 72 972 m 689 972 l 793 972 l 793 417 l 689 417 l 689 972 m 242 1207 l 624 1207 l 624 1121 l 242 1121 l 242 1207 z "},"Ų":{"ha":865,"x_min":72,"x_max":793,"o":"m 793 417 q 758 181 793 279 q 643 31 722 83 q 433 -22 564 -22 q 223 31 303 -22 q 108 181 143 83 q 72 417 72 279 l 176 417 q 199 233 176 308 q 278 117 222 157 q 433 78 333 78 q 588 117 532 78 q 666 233 643 157 q 689 417 689 308 l 793 417 m 72 972 l 176 972 l 176 417 l 72 417 l 72 972 m 689 972 l 793 972 l 793 417 l 689 417 l 689 972 m 579 0 q 521 -23 553 -8 q 465 -60 489 -37 q 442 -117 442 -83 q 460 -163 442 -147 q 503 -184 478 -179 q 547 -189 528 -189 l 586 -189 l 586 -278 l 544 -278 q 405 -240 456 -278 q 354 -144 354 -203 q 399 -36 354 -78 q 515 49 443 6 l 579 0 z "},"Ů":{"ha":865,"x_min":72,"x_max":793,"o":"m 793 417 q 758 181 793 279 q 643 31 722 83 q 433 -22 564 -22 q 223 31 303 -22 q 108 181 143 83 q 72 417 72 279 l 176 417 q 199 233 176 308 q 278 117 222 157 q 433 78 333 78 q 588 117 532 78 q 666 233 643 157 q 689 417 689 308 l 793 417 m 72 972 l 176 972 l 176 417 l 72 417 l 72 972 m 689 972 l 793 972 l 793 417 l 689 417 l 689 972 m 433 1065 q 347 1101 383 1065 q 311 1186 311 1136 q 347 1270 311 1235 q 433 1306 383 1306 q 519 1270 483 1306 q 556 1186 556 1235 q 519 1101 556 1136 q 433 1065 483 1065 m 433 1129 q 472 1147 457 1129 q 486 1186 486 1164 q 472 1225 486 1208 q 433 1242 457 1242 q 396 1225 411 1242 q 381 1186 381 1208 q 396 1147 381 1164 q 433 1129 411 1129 z "},"Ũ":{"ha":865,"x_min":72,"x_max":793,"o":"m 793 417 q 758 181 793 279 q 643 31 722 83 q 433 -22 564 -22 q 223 31 303 -22 q 108 181 143 83 q 72 417 72 279 l 176 417 q 199 233 176 308 q 278 117 222 157 q 433 78 333 78 q 588 117 532 78 q 666 233 643 157 q 689 417 689 308 l 793 417 m 72 972 l 176 972 l 176 417 l 72 417 l 72 972 m 689 972 l 793 972 l 793 417 l 689 417 l 689 972 m 360 1143 q 328 1127 339 1143 q 318 1088 318 1111 l 240 1088 q 258 1167 240 1138 q 303 1210 276 1197 q 356 1222 329 1222 q 422 1206 396 1222 q 468 1172 447 1189 q 513 1154 489 1154 q 544 1170 535 1154 q 553 1210 553 1186 l 629 1210 q 612 1129 629 1160 q 569 1085 594 1099 q 518 1072 544 1072 q 458 1090 485 1072 q 407 1125 431 1107 q 360 1143 383 1143 z "},"V":{"ha":885,"x_min":35,"x_max":850,"o":"m 369 0 l 35 972 l 149 972 l 469 0 l 369 0 m 501 0 l 401 0 l 736 972 l 850 972 l 501 0 z "},"W":{"ha":1260,"x_min":35,"x_max":1225,"o":"m 286 0 l 35 972 l 143 972 l 381 0 l 286 0 m 419 0 l 325 0 l 563 972 l 671 972 l 419 0 m 840 0 l 589 972 l 697 972 l 935 0 l 840 0 m 974 0 l 879 0 l 1117 972 l 1225 972 l 974 0 z "},"Ẃ":{"ha":1260,"x_min":35,"x_max":1225,"o":"m 286 0 l 35 972 l 143 972 l 381 0 l 286 0 m 419 0 l 325 0 l 563 972 l 671 972 l 419 0 m 840 0 l 589 972 l 697 972 l 935 0 l 840 0 m 974 0 l 879 0 l 1117 972 l 1225 972 l 974 0 m 800 1250 l 671 1069 l 592 1069 l 661 1250 l 800 1250 z "},"Ŵ":{"ha":1260,"x_min":35,"x_max":1225,"o":"m 286 0 l 35 972 l 143 972 l 381 0 l 286 0 m 419 0 l 325 0 l 563 972 l 671 972 l 419 0 m 840 0 l 589 972 l 697 972 l 935 0 l 840 0 m 974 0 l 879 0 l 1117 972 l 1225 972 l 974 0 m 686 1250 l 828 1069 l 717 1069 l 596 1228 l 665 1228 l 544 1069 l 433 1069 l 575 1250 l 686 1250 z "},"Ẅ":{"ha":1260,"x_min":35,"x_max":1225,"o":"m 286 0 l 35 972 l 143 972 l 381 0 l 286 0 m 419 0 l 325 0 l 563 972 l 671 972 l 419 0 m 840 0 l 589 972 l 697 972 l 935 0 l 840 0 m 974 0 l 879 0 l 1117 972 l 1225 972 l 974 0 m 454 1231 l 581 1231 l 581 1100 l 454 1100 l 454 1231 m 681 1231 l 807 1231 l 807 1100 l 681 1100 l 681 1231 z "},"Ẁ":{"ha":1260,"x_min":35,"x_max":1225,"o":"m 286 0 l 35 972 l 143 972 l 381 0 l 286 0 m 419 0 l 325 0 l 563 972 l 671 972 l 419 0 m 840 0 l 589 972 l 697 972 l 935 0 l 840 0 m 974 0 l 879 0 l 1117 972 l 1225 972 l 974 0 m 590 1069 l 461 1250 l 600 1250 l 669 1069 l 590 1069 z "},"X":{"ha":832,"x_min":35,"x_max":797,"o":"m 675 0 l 39 972 l 161 972 l 797 0 l 675 0 m 157 0 l 35 0 l 671 972 l 793 972 l 157 0 z "},"Y":{"ha":801,"x_min":35,"x_max":767,"o":"m 368 308 l 35 972 l 157 972 l 419 413 l 383 413 l 644 972 l 767 972 l 433 308 l 368 308 m 349 429 l 453 429 l 453 0 l 349 0 l 349 429 z "},"Ý":{"ha":801,"x_min":35,"x_max":767,"o":"m 368 308 l 35 972 l 157 972 l 419 413 l 383 413 l 644 972 l 767 972 l 433 308 l 368 308 m 349 429 l 453 429 l 453 0 l 349 0 l 349 429 m 571 1250 l 442 1069 l 363 1069 l 432 1250 l 571 1250 z "},"Ŷ":{"ha":801,"x_min":35,"x_max":767,"o":"m 368 308 l 35 972 l 157 972 l 419 413 l 383 413 l 644 972 l 767 972 l 433 308 l 368 308 m 349 429 l 453 429 l 453 0 l 349 0 l 349 429 m 457 1250 l 599 1069 l 488 1069 l 367 1228 l 436 1228 l 315 1069 l 204 1069 l 346 1250 l 457 1250 z "},"Ÿ":{"ha":801,"x_min":35,"x_max":767,"o":"m 368 308 l 35 972 l 157 972 l 419 413 l 383 413 l 644 972 l 767 972 l 433 308 l 368 308 m 349 429 l 453 429 l 453 0 l 349 0 l 349 429 m 225 1231 l 351 1231 l 351 1100 l 225 1100 l 225 1231 m 451 1231 l 578 1231 l 578 1100 l 451 1100 l 451 1231 z "},"Ỳ":{"ha":801,"x_min":35,"x_max":767,"o":"m 368 308 l 35 972 l 157 972 l 419 413 l 383 413 l 644 972 l 767 972 l 433 308 l 368 308 m 349 429 l 453 429 l 453 0 l 349 0 l 349 429 m 361 1069 l 232 1250 l 371 1250 l 440 1069 l 361 1069 z "},"Ỹ":{"ha":801,"x_min":35,"x_max":767,"o":"m 368 308 l 35 972 l 157 972 l 419 413 l 383 413 l 644 972 l 767 972 l 433 308 l 368 308 m 349 429 l 453 429 l 453 0 l 349 0 l 349 429 m 328 1143 q 297 1127 307 1143 q 286 1088 286 1111 l 208 1088 q 226 1167 208 1138 q 271 1210 244 1197 q 324 1222 297 1222 q 390 1206 364 1222 q 436 1172 415 1189 q 481 1154 457 1154 q 512 1170 503 1154 q 521 1210 521 1186 l 597 1210 q 580 1129 597 1160 q 538 1085 563 1099 q 486 1072 513 1072 q 426 1090 453 1072 q 375 1125 399 1107 q 328 1143 351 1143 z "},"Z":{"ha":813,"x_min":49,"x_max":764,"o":"m 63 972 l 758 972 l 758 913 l 650 881 l 63 881 l 63 972 m 126 0 l 49 60 l 682 972 l 758 972 l 758 913 l 126 0 m 764 0 l 49 0 l 49 60 l 157 92 l 764 92 l 764 0 z "},"Ź":{"ha":813,"x_min":49,"x_max":764,"o":"m 63 972 l 758 972 l 758 913 l 650 881 l 63 881 l 63 972 m 126 0 l 49 60 l 682 972 l 758 972 l 758 913 l 126 0 m 764 0 l 49 0 l 49 60 l 157 92 l 764 92 l 764 0 m 576 1250 l 447 1069 l 368 1069 l 438 1250 l 576 1250 z "},"Ž":{"ha":813,"x_min":49,"x_max":764,"o":"m 63 972 l 758 972 l 758 913 l 650 881 l 63 881 l 63 972 m 126 0 l 49 60 l 682 972 l 758 972 l 758 913 l 126 0 m 764 0 l 49 0 l 49 60 l 157 92 l 764 92 l 764 0 m 351 1079 l 210 1260 l 321 1260 l 442 1101 l 372 1101 l 493 1260 l 604 1260 l 463 1079 l 351 1079 z "},"Ż":{"ha":813,"x_min":49,"x_max":764,"o":"m 63 972 l 758 972 l 758 913 l 650 881 l 63 881 l 63 972 m 126 0 l 49 60 l 682 972 l 758 972 l 758 913 l 126 0 m 764 0 l 49 0 l 49 60 l 157 92 l 764 92 l 764 0 m 343 1226 l 471 1226 l 471 1099 l 343 1099 l 343 1226 z "},"Ꞌ":{"ha":271,"x_min":76,"x_max":194,"o":"m 76 994 l 194 994 l 167 553 l 104 553 l 76 994 z "},"a":{"ha":758,"x_min":56,"x_max":690,"o":"m 343 -22 q 204 6 267 -22 q 105 89 142 35 q 68 221 68 143 q 114 365 68 313 q 236 442 160 418 q 405 472 313 467 q 589 475 497 478 l 589 396 q 278 359 382 404 q 174 226 174 314 q 222 103 174 146 q 369 61 271 61 q 492 97 443 61 q 565 188 540 132 q 589 307 589 244 l 589 396 l 690 396 l 690 0 l 589 0 l 589 97 q 494 8 553 39 q 343 -22 435 -22 m 56 490 q 93 640 56 569 q 203 756 131 711 q 382 800 276 800 q 606 713 529 800 q 689 475 682 625 l 589 475 q 532 646 583 586 q 382 706 481 706 q 260 676 308 706 q 189 599 213 647 q 165 490 165 550 l 56 490 z "},"á":{"ha":758,"x_min":56,"x_max":690,"o":"m 343 -22 q 204 6 267 -22 q 105 89 142 35 q 68 221 68 143 q 114 365 68 313 q 236 442 160 418 q 405 472 313 467 q 589 475 497 478 l 589 396 q 278 359 382 404 q 174 226 174 314 q 222 103 174 146 q 369 61 271 61 q 492 97 443 61 q 565 188 540 132 q 589 307 589 244 l 589 396 l 690 396 l 690 0 l 589 0 l 589 97 q 494 8 553 39 q 343 -22 435 -22 m 56 490 q 93 640 56 569 q 203 756 131 711 q 382 800 276 800 q 606 713 529 800 q 689 475 682 625 l 589 475 q 532 646 583 586 q 382 706 481 706 q 260 676 308 706 q 189 599 213 647 q 165 490 165 550 l 56 490 m 546 1056 l 417 875 l 338 875 l 407 1056 l 546 1056 z "},"ă":{"ha":758,"x_min":56,"x_max":690,"o":"m 343 -22 q 204 6 267 -22 q 105 89 142 35 q 68 221 68 143 q 114 365 68 313 q 236 442 160 418 q 405 472 313 467 q 589 475 497 478 l 589 396 q 278 359 382 404 q 174 226 174 314 q 222 103 174 146 q 369 61 271 61 q 492 97 443 61 q 565 188 540 132 q 589 307 589 244 l 589 396 l 690 396 l 690 0 l 589 0 l 589 97 q 494 8 553 39 q 343 -22 435 -22 m 56 490 q 93 640 56 569 q 203 756 131 711 q 382 800 276 800 q 606 713 529 800 q 689 475 682 625 l 589 475 q 532 646 583 586 q 382 706 481 706 q 260 676 308 706 q 189 599 213 647 q 165 490 165 550 l 56 490 m 569 1047 q 508 926 561 968 q 378 883 456 883 q 247 926 300 883 q 185 1047 193 968 l 286 1047 q 378 968 296 968 q 441 987 418 968 q 469 1047 464 1006 l 569 1047 z "},"â":{"ha":758,"x_min":56,"x_max":690,"o":"m 343 -22 q 204 6 267 -22 q 105 89 142 35 q 68 221 68 143 q 114 365 68 313 q 236 442 160 418 q 405 472 313 467 q 589 475 497 478 l 589 396 q 278 359 382 404 q 174 226 174 314 q 222 103 174 146 q 369 61 271 61 q 492 97 443 61 q 565 188 540 132 q 589 307 589 244 l 589 396 l 690 396 l 690 0 l 589 0 l 589 97 q 494 8 553 39 q 343 -22 435 -22 m 56 490 q 93 640 56 569 q 203 756 131 711 q 382 800 276 800 q 606 713 529 800 q 689 475 682 625 l 589 475 q 532 646 583 586 q 382 706 481 706 q 260 676 308 706 q 189 599 213 647 q 165 490 165 550 l 56 490 m 432 1056 l 574 875 l 463 875 l 342 1033 l 411 1033 l 290 875 l 179 875 l 321 1056 l 432 1056 z "},"ä":{"ha":758,"x_min":56,"x_max":690,"o":"m 343 -22 q 204 6 267 -22 q 105 89 142 35 q 68 221 68 143 q 114 365 68 313 q 236 442 160 418 q 405 472 313 467 q 589 475 497 478 l 589 396 q 278 359 382 404 q 174 226 174 314 q 222 103 174 146 q 369 61 271 61 q 492 97 443 61 q 565 188 540 132 q 589 307 589 244 l 589 396 l 690 396 l 690 0 l 589 0 l 589 97 q 494 8 553 39 q 343 -22 435 -22 m 56 490 q 93 640 56 569 q 203 756 131 711 q 382 800 276 800 q 606 713 529 800 q 689 475 682 625 l 589 475 q 532 646 583 586 q 382 706 481 706 q 260 676 308 706 q 189 599 213 647 q 165 490 165 550 l 56 490 m 200 1036 l 326 1036 l 326 906 l 200 906 l 200 1036 m 426 1036 l 553 1036 l 553 906 l 426 906 l 426 1036 z "},"à":{"ha":758,"x_min":56,"x_max":690,"o":"m 343 -22 q 204 6 267 -22 q 105 89 142 35 q 68 221 68 143 q 114 365 68 313 q 236 442 160 418 q 405 472 313 467 q 589 475 497 478 l 589 396 q 278 359 382 404 q 174 226 174 314 q 222 103 174 146 q 369 61 271 61 q 492 97 443 61 q 565 188 540 132 q 589 307 589 244 l 589 396 l 690 396 l 690 0 l 589 0 l 589 97 q 494 8 553 39 q 343 -22 435 -22 m 56 490 q 93 640 56 569 q 203 756 131 711 q 382 800 276 800 q 606 713 529 800 q 689 475 682 625 l 589 475 q 532 646 583 586 q 382 706 481 706 q 260 676 308 706 q 189 599 213 647 q 165 490 165 550 l 56 490 m 336 875 l 207 1056 l 346 1056 l 415 875 l 336 875 z "},"ā":{"ha":758,"x_min":56,"x_max":690,"o":"m 343 -22 q 204 6 267 -22 q 105 89 142 35 q 68 221 68 143 q 114 365 68 313 q 236 442 160 418 q 405 472 313 467 q 589 475 497 478 l 589 396 q 278 359 382 404 q 174 226 174 314 q 222 103 174 146 q 369 61 271 61 q 492 97 443 61 q 565 188 540 132 q 589 307 589 244 l 589 396 l 690 396 l 690 0 l 589 0 l 589 97 q 494 8 553 39 q 343 -22 435 -22 m 56 490 q 93 640 56 569 q 203 756 131 711 q 382 800 276 800 q 606 713 529 800 q 689 475 682 625 l 589 475 q 532 646 583 586 q 382 706 481 706 q 260 676 308 706 q 189 599 213 647 q 165 490 165 550 l 56 490 m 185 1013 l 567 1013 l 567 926 l 185 926 l 185 1013 z "},"ą":{"ha":758,"x_min":56,"x_max":697,"o":"m 343 -22 q 204 6 267 -22 q 105 89 142 35 q 68 221 68 143 q 114 365 68 313 q 236 442 160 418 q 405 472 313 467 q 589 475 497 478 l 589 396 q 278 359 382 404 q 174 226 174 314 q 222 103 174 146 q 369 61 271 61 q 492 97 443 61 q 565 188 540 132 q 589 307 589 244 l 589 396 l 690 396 l 690 0 l 589 0 l 589 97 q 494 8 553 39 q 343 -22 435 -22 m 56 490 q 93 640 56 569 q 203 756 131 711 q 382 800 276 800 q 606 713 529 800 q 689 475 682 625 l 589 475 q 532 646 583 586 q 382 706 481 706 q 260 676 308 706 q 189 599 213 647 q 165 490 165 550 l 56 490 m 690 0 q 632 -23 664 -8 q 576 -60 600 -37 q 553 -117 553 -83 q 571 -163 553 -147 q 614 -184 589 -179 q 658 -189 639 -189 l 697 -189 l 697 -278 l 656 -278 q 516 -240 567 -278 q 465 -144 465 -203 q 510 -36 465 -78 q 626 49 554 6 l 690 0 z "},"å":{"ha":758,"x_min":56,"x_max":690,"o":"m 343 -22 q 204 6 267 -22 q 105 89 142 35 q 68 221 68 143 q 114 365 68 313 q 236 442 160 418 q 405 472 313 467 q 589 475 497 478 l 589 396 q 278 359 382 404 q 174 226 174 314 q 222 103 174 146 q 369 61 271 61 q 492 97 443 61 q 565 188 540 132 q 589 307 589 244 l 589 396 l 690 396 l 690 0 l 589 0 l 589 97 q 494 8 553 39 q 343 -22 435 -22 m 56 490 q 93 640 56 569 q 203 756 131 711 q 382 800 276 800 q 606 713 529 800 q 689 475 682 625 l 589 475 q 532 646 583 586 q 382 706 481 706 q 260 676 308 706 q 189 599 213 647 q 165 490 165 550 l 56 490 m 376 871 q 290 906 326 871 q 254 992 254 942 q 290 1076 254 1040 q 376 1111 326 1111 q 463 1076 426 1111 q 499 992 499 1040 q 463 906 499 942 q 376 871 426 871 m 376 935 q 415 952 400 935 q 429 992 429 969 q 415 1031 429 1014 q 376 1047 400 1047 q 339 1031 354 1047 q 324 992 324 1014 q 339 952 324 969 q 376 935 354 935 z "},"ã":{"ha":758,"x_min":56,"x_max":690,"o":"m 343 -22 q 204 6 267 -22 q 105 89 142 35 q 68 221 68 143 q 114 365 68 313 q 236 442 160 418 q 405 472 313 467 q 589 475 497 478 l 589 396 q 278 359 382 404 q 174 226 174 314 q 222 103 174 146 q 369 61 271 61 q 492 97 443 61 q 565 188 540 132 q 589 307 589 244 l 589 396 l 690 396 l 690 0 l 589 0 l 589 97 q 494 8 553 39 q 343 -22 435 -22 m 56 490 q 93 640 56 569 q 203 756 131 711 q 382 800 276 800 q 606 713 529 800 q 689 475 682 625 l 589 475 q 532 646 583 586 q 382 706 481 706 q 260 676 308 706 q 189 599 213 647 q 165 490 165 550 l 56 490 m 303 949 q 272 933 282 949 q 261 893 261 917 l 183 893 q 201 973 183 943 q 246 1015 219 1003 q 299 1028 272 1028 q 365 1011 339 1028 q 411 977 390 994 q 456 960 432 960 q 487 976 478 960 q 496 1015 496 992 l 572 1015 q 555 935 572 965 q 513 891 538 904 q 461 878 488 878 q 401 895 428 878 q 350 931 374 913 q 303 949 326 949 z "},"æ":{"ha":1385,"x_min":56,"x_max":1349,"o":"m 986 -22 q 777 30 867 -22 q 638 175 688 82 q 589 388 589 268 q 638 601 589 508 q 777 747 688 694 q 986 800 867 800 q 1133 770 1065 800 q 1251 683 1201 740 q 1324 542 1300 625 q 1342 354 1349 460 l 647 354 l 647 446 l 1308 446 l 1249 396 q 1217 557 1249 488 q 1126 666 1185 626 q 986 706 1068 706 q 829 665 894 706 q 729 552 764 624 q 694 388 694 481 q 729 224 694 296 q 829 113 764 153 q 986 72 894 72 q 1151 123 1093 72 q 1232 246 1210 174 l 1339 246 q 1272 106 1319 165 q 1153 12 1225 46 q 986 -22 1081 -22 m 343 -22 q 204 6 267 -22 q 105 89 142 35 q 68 221 68 143 q 99 345 68 296 q 182 424 129 394 q 302 467 235 454 q 444 481 369 481 q 594 475 519 482 l 624 390 q 288 367 401 417 q 174 226 174 318 q 222 103 174 146 q 369 61 271 61 q 492 97 443 61 q 565 188 540 132 q 589 307 589 244 l 664 214 q 558 38 633 97 q 343 -22 482 -22 m 589 444 q 566 587 589 529 q 497 675 543 644 q 382 706 451 706 q 260 676 308 706 q 189 599 213 647 q 165 490 165 550 l 56 490 q 93 640 56 569 q 203 756 131 711 q 382 800 276 800 q 553 756 485 800 q 656 633 622 713 q 690 444 690 554 l 589 444 m 589 271 l 589 444 l 690 444 l 690 271 l 589 271 z "},"b":{"ha":844,"x_min":74,"x_max":803,"o":"m 453 -22 q 275 27 344 -22 q 171 159 206 76 q 135 342 136 242 l 132 431 q 174 622 136 539 q 281 753 211 706 q 453 800 351 800 q 635 747 557 800 q 758 601 714 694 q 803 388 803 508 q 758 175 803 268 q 635 30 714 82 q 453 -22 557 -22 m 74 0 l 74 1042 l 175 1042 l 175 0 l 74 0 m 446 72 q 577 110 521 72 q 665 218 633 147 q 697 388 697 289 q 665 559 697 488 q 577 668 633 631 q 446 706 521 706 q 297 665 357 706 q 206 552 236 624 q 175 388 175 481 q 206 224 175 296 q 297 113 236 153 q 446 72 357 72 z "},"c":{"ha":846,"x_min":42,"x_max":804,"o":"m 804 326 q 752 147 797 226 q 628 23 707 68 q 439 -22 549 -22 q 229 30 318 -22 q 91 175 140 82 q 42 388 42 268 q 91 601 42 508 q 229 747 140 694 q 439 800 318 800 q 624 753 544 800 q 749 633 703 707 q 801 472 794 558 l 696 472 q 660 584 689 531 q 576 672 631 638 q 439 706 522 706 q 282 665 347 706 q 182 552 217 624 q 147 388 147 481 q 182 224 147 296 q 282 113 217 153 q 439 72 347 72 q 585 108 529 72 q 667 203 640 144 q 701 326 694 261 l 804 326 z "},"ć":{"ha":846,"x_min":42,"x_max":804,"o":"m 804 326 q 752 147 797 226 q 628 23 707 68 q 439 -22 549 -22 q 229 30 318 -22 q 91 175 140 82 q 42 388 42 268 q 91 601 42 508 q 229 747 140 694 q 439 800 318 800 q 624 753 544 800 q 749 633 703 707 q 801 472 794 558 l 696 472 q 660 584 689 531 q 576 672 631 638 q 439 706 522 706 q 282 665 347 706 q 182 552 217 624 q 147 388 147 481 q 182 224 147 296 q 282 113 217 153 q 439 72 347 72 q 585 108 529 72 q 667 203 640 144 q 701 326 694 261 l 804 326 m 593 1056 l 464 875 l 385 875 l 454 1056 l 593 1056 z "},"č":{"ha":846,"x_min":42,"x_max":804,"o":"m 804 326 q 752 147 797 226 q 628 23 707 68 q 439 -22 549 -22 q 229 30 318 -22 q 91 175 140 82 q 42 388 42 268 q 91 601 42 508 q 229 747 140 694 q 439 800 318 800 q 624 753 544 800 q 749 633 703 707 q 801 472 794 558 l 696 472 q 660 584 689 531 q 576 672 631 638 q 439 706 522 706 q 282 665 347 706 q 182 552 217 624 q 147 388 147 481 q 182 224 147 296 q 282 113 217 153 q 439 72 347 72 q 585 108 529 72 q 667 203 640 144 q 701 326 694 261 l 804 326 m 368 885 l 226 1065 l 338 1065 l 458 907 l 389 907 l 510 1065 l 621 1065 l 479 885 l 368 885 z "},"ç":{"ha":846,"x_min":42,"x_max":804,"o":"m 804 326 q 752 147 797 226 q 628 23 707 68 q 439 -22 549 -22 q 229 30 318 -22 q 91 175 140 82 q 42 388 42 268 q 91 601 42 508 q 229 747 140 694 q 439 800 318 800 q 624 753 544 800 q 749 633 703 707 q 801 472 794 558 l 696 472 q 660 584 689 531 q 576 672 631 638 q 439 706 522 706 q 282 665 347 706 q 182 552 217 624 q 147 388 147 481 q 182 224 147 296 q 282 113 217 153 q 439 72 347 72 q 585 108 529 72 q 667 203 640 144 q 701 326 694 261 l 804 326 m 404 56 l 492 56 l 492 -124 l 404 -124 l 404 56 m 472 -124 l 472 -49 q 594 -76 556 -49 q 633 -162 633 -104 q 597 -250 633 -222 q 489 -278 560 -278 l 372 -278 l 372 -203 l 472 -203 q 527 -197 504 -203 q 550 -162 550 -192 q 527 -128 550 -133 q 472 -124 504 -124 z "},"ĉ":{"ha":846,"x_min":42,"x_max":804,"o":"m 804 326 q 752 147 797 226 q 628 23 707 68 q 439 -22 549 -22 q 229 30 318 -22 q 91 175 140 82 q 42 388 42 268 q 91 601 42 508 q 229 747 140 694 q 439 800 318 800 q 624 753 544 800 q 749 633 703 707 q 801 472 794 558 l 696 472 q 660 584 689 531 q 576 672 631 638 q 439 706 522 706 q 282 665 347 706 q 182 552 217 624 q 147 388 147 481 q 182 224 147 296 q 282 113 217 153 q 439 72 347 72 q 585 108 529 72 q 667 203 640 144 q 701 326 694 261 l 804 326 m 479 1056 l 621 875 l 510 875 l 389 1033 l 458 1033 l 338 875 l 226 875 l 368 1056 l 479 1056 z "},"ċ":{"ha":846,"x_min":42,"x_max":804,"o":"m 804 326 q 752 147 797 226 q 628 23 707 68 q 439 -22 549 -22 q 229 30 318 -22 q 91 175 140 82 q 42 388 42 268 q 91 601 42 508 q 229 747 140 694 q 439 800 318 800 q 624 753 544 800 q 749 633 703 707 q 801 472 794 558 l 696 472 q 660 584 689 531 q 576 672 631 638 q 439 706 522 706 q 282 665 347 706 q 182 552 217 624 q 147 388 147 481 q 182 224 147 296 q 282 113 217 153 q 439 72 347 72 q 585 108 529 72 q 667 203 640 144 q 701 326 694 261 l 804 326 m 360 1032 l 488 1032 l 488 904 l 360 904 l 360 1032 z "},"d":{"ha":844,"x_min":42,"x_max":771,"o":"m 392 -22 q 210 30 289 -22 q 86 175 131 82 q 42 388 42 268 q 86 601 42 508 q 210 747 131 694 q 392 800 289 800 q 563 753 493 800 q 669 625 632 706 l 669 150 q 565 26 635 74 q 392 -22 496 -22 m 399 72 q 549 113 489 72 q 639 224 608 153 q 669 388 669 296 q 639 552 669 481 q 549 665 608 624 q 399 706 489 706 q 268 668 325 706 q 179 559 211 631 q 147 388 147 488 q 179 218 147 289 q 268 110 211 147 q 399 72 325 72 m 669 0 l 669 1042 l 771 1042 l 771 0 l 669 0 z "},"ď":{"ha":844,"x_min":42,"x_max":947,"o":"m 392 -22 q 210 30 289 -22 q 86 175 131 82 q 42 388 42 268 q 86 601 42 508 q 210 747 131 694 q 392 800 289 800 q 563 753 493 800 q 669 625 632 706 l 669 150 q 565 26 635 74 q 392 -22 496 -22 m 399 72 q 549 113 489 72 q 639 224 608 153 q 669 388 669 296 q 639 552 669 481 q 549 665 608 624 q 399 706 489 706 q 268 668 325 706 q 179 559 211 631 q 147 388 147 488 q 179 218 147 289 q 268 110 211 147 q 399 72 325 72 m 669 0 l 669 1042 l 771 1042 l 771 0 l 669 0 m 846 814 l 846 871 q 875 882 867 871 q 883 913 883 893 l 815 913 l 815 1042 l 947 1042 l 947 913 q 919 839 947 864 q 846 814 892 814 z "},"đ":{"ha":949,"x_min":42,"x_max":882,"o":"m 392 -22 q 210 30 289 -22 q 86 175 131 82 q 42 388 42 268 q 86 601 42 508 q 210 747 131 694 q 392 800 289 800 q 563 753 493 800 q 669 625 632 706 l 669 150 q 565 26 635 74 q 392 -22 496 -22 m 399 72 q 549 113 489 72 q 639 224 608 153 q 669 388 669 296 q 639 552 669 481 q 549 665 608 624 q 399 706 489 706 q 268 668 325 706 q 179 559 211 631 q 147 388 147 488 q 179 218 147 289 q 268 110 211 147 q 399 72 325 72 m 669 0 l 669 1042 l 771 1042 l 771 0 l 669 0 m 461 944 l 882 944 l 882 867 l 461 867 l 461 944 z "},"ð":{"ha":844,"x_min":42,"x_max":771,"o":"m 392 -22 q 210 28 289 -22 q 86 166 131 78 q 42 367 42 254 q 86 569 42 481 q 210 708 131 657 q 392 758 289 758 q 561 708 482 758 q 683 557 640 658 l 665 564 q 601 767 650 681 q 466 903 553 854 q 250 951 379 951 l 250 1042 q 492 990 392 1042 q 653 849 592 939 q 742 642 714 758 q 771 394 771 525 q 722 172 771 265 q 588 28 674 78 q 392 -22 503 -22 m 399 72 q 549 110 489 72 q 639 215 608 149 q 669 367 669 282 q 639 520 669 453 q 549 626 608 588 q 399 664 489 664 q 268 628 325 664 q 179 526 211 593 q 147 367 147 460 q 179 209 147 275 q 268 108 211 143 q 399 72 325 72 m 371 847 l 590 1067 l 646 1013 l 426 793 l 371 847 z "},"e":{"ha":836,"x_min":42,"x_max":800,"o":"m 149 354 l 149 446 l 760 446 l 700 396 q 668 557 700 488 q 578 666 636 626 q 438 706 519 706 q 239 633 314 706 q 149 446 164 561 l 43 446 q 107 631 56 551 q 243 756 158 711 q 438 800 328 800 q 585 770 517 800 q 702 683 653 740 q 776 542 751 625 q 793 354 800 460 l 149 354 m 438 -22 q 237 26 324 -22 q 99 158 150 74 q 42 354 49 243 l 149 354 q 233 151 158 229 q 438 72 307 72 q 603 123 544 72 q 683 246 661 174 l 790 246 q 724 106 771 165 q 604 12 676 46 q 438 -22 532 -22 z "},"é":{"ha":836,"x_min":42,"x_max":800,"o":"m 149 354 l 149 446 l 760 446 l 700 396 q 668 557 700 488 q 578 666 636 626 q 438 706 519 706 q 239 633 314 706 q 149 446 164 561 l 43 446 q 107 631 56 551 q 243 756 158 711 q 438 800 328 800 q 585 770 517 800 q 702 683 653 740 q 776 542 751 625 q 793 354 800 460 l 149 354 m 438 -22 q 237 26 324 -22 q 99 158 150 74 q 42 354 49 243 l 149 354 q 233 151 158 229 q 438 72 307 72 q 603 123 544 72 q 683 246 661 174 l 790 246 q 724 106 771 165 q 604 12 676 46 q 438 -22 532 -22 m 588 1056 l 458 875 l 379 875 l 449 1056 l 588 1056 z "},"ě":{"ha":836,"x_min":42,"x_max":800,"o":"m 149 354 l 149 446 l 760 446 l 700 396 q 668 557 700 488 q 578 666 636 626 q 438 706 519 706 q 239 633 314 706 q 149 446 164 561 l 43 446 q 107 631 56 551 q 243 756 158 711 q 438 800 328 800 q 585 770 517 800 q 702 683 653 740 q 776 542 751 625 q 793 354 800 460 l 149 354 m 438 -22 q 237 26 324 -22 q 99 158 150 74 q 42 354 49 243 l 149 354 q 233 151 158 229 q 438 72 307 72 q 603 123 544 72 q 683 246 661 174 l 790 246 q 724 106 771 165 q 604 12 676 46 q 438 -22 532 -22 m 363 885 l 221 1065 l 332 1065 l 453 907 l 383 907 l 504 1065 l 615 1065 l 474 885 l 363 885 z "},"ê":{"ha":836,"x_min":42,"x_max":800,"o":"m 149 354 l 149 446 l 760 446 l 700 396 q 668 557 700 488 q 578 666 636 626 q 438 706 519 706 q 239 633 314 706 q 149 446 164 561 l 43 446 q 107 631 56 551 q 243 756 158 711 q 438 800 328 800 q 585 770 517 800 q 702 683 653 740 q 776 542 751 625 q 793 354 800 460 l 149 354 m 438 -22 q 237 26 324 -22 q 99 158 150 74 q 42 354 49 243 l 149 354 q 233 151 158 229 q 438 72 307 72 q 603 123 544 72 q 683 246 661 174 l 790 246 q 724 106 771 165 q 604 12 676 46 q 438 -22 532 -22 m 474 1056 l 615 875 l 504 875 l 383 1033 l 453 1033 l 332 875 l 221 875 l 363 1056 l 474 1056 z "},"ë":{"ha":836,"x_min":42,"x_max":800,"o":"m 149 354 l 149 446 l 760 446 l 700 396 q 668 557 700 488 q 578 666 636 626 q 438 706 519 706 q 239 633 314 706 q 149 446 164 561 l 43 446 q 107 631 56 551 q 243 756 158 711 q 438 800 328 800 q 585 770 517 800 q 702 683 653 740 q 776 542 751 625 q 793 354 800 460 l 149 354 m 438 -22 q 237 26 324 -22 q 99 158 150 74 q 42 354 49 243 l 149 354 q 233 151 158 229 q 438 72 307 72 q 603 123 544 72 q 683 246 661 174 l 790 246 q 724 106 771 165 q 604 12 676 46 q 438 -22 532 -22 m 242 1036 l 368 1036 l 368 906 l 242 906 l 242 1036 m 468 1036 l 594 1036 l 594 906 l 468 906 l 468 1036 z "},"ė":{"ha":836,"x_min":42,"x_max":800,"o":"m 149 354 l 149 446 l 760 446 l 700 396 q 668 557 700 488 q 578 666 636 626 q 438 706 519 706 q 239 633 314 706 q 149 446 164 561 l 43 446 q 107 631 56 551 q 243 756 158 711 q 438 800 328 800 q 585 770 517 800 q 702 683 653 740 q 776 542 751 625 q 793 354 800 460 l 149 354 m 438 -22 q 237 26 324 -22 q 99 158 150 74 q 42 354 49 243 l 149 354 q 233 151 158 229 q 438 72 307 72 q 603 123 544 72 q 683 246 661 174 l 790 246 q 724 106 771 165 q 604 12 676 46 q 438 -22 532 -22 m 354 1032 l 482 1032 l 482 904 l 354 904 l 354 1032 z "},"è":{"ha":836,"x_min":42,"x_max":800,"o":"m 149 354 l 149 446 l 760 446 l 700 396 q 668 557 700 488 q 578 666 636 626 q 438 706 519 706 q 239 633 314 706 q 149 446 164 561 l 43 446 q 107 631 56 551 q 243 756 158 711 q 438 800 328 800 q 585 770 517 800 q 702 683 653 740 q 776 542 751 625 q 793 354 800 460 l 149 354 m 438 -22 q 237 26 324 -22 q 99 158 150 74 q 42 354 49 243 l 149 354 q 233 151 158 229 q 438 72 307 72 q 603 123 544 72 q 683 246 661 174 l 790 246 q 724 106 771 165 q 604 12 676 46 q 438 -22 532 -22 m 378 875 l 249 1056 l 388 1056 l 457 875 l 378 875 z "},"ē":{"ha":836,"x_min":42,"x_max":800,"o":"m 149 354 l 149 446 l 760 446 l 700 396 q 668 557 700 488 q 578 666 636 626 q 438 706 519 706 q 239 633 314 706 q 149 446 164 561 l 43 446 q 107 631 56 551 q 243 756 158 711 q 438 800 328 800 q 585 770 517 800 q 702 683 653 740 q 776 542 751 625 q 793 354 800 460 l 149 354 m 438 -22 q 237 26 324 -22 q 99 158 150 74 q 42 354 49 243 l 149 354 q 233 151 158 229 q 438 72 307 72 q 603 123 544 72 q 683 246 661 174 l 790 246 q 724 106 771 165 q 604 12 676 46 q 438 -22 532 -22 m 226 1013 l 608 1013 l 608 926 l 226 926 l 226 1013 z "},"ę":{"ha":836,"x_min":42,"x_max":800,"o":"m 149 354 l 149 446 l 760 446 l 700 396 q 668 557 700 488 q 578 666 636 626 q 438 706 519 706 q 239 633 314 706 q 149 446 164 561 l 43 446 q 107 631 56 551 q 243 756 158 711 q 438 800 328 800 q 585 770 517 800 q 702 683 653 740 q 776 542 751 625 q 793 354 800 460 l 149 354 m 438 -22 q 237 26 324 -22 q 99 158 150 74 q 42 354 49 243 l 149 354 q 233 151 158 229 q 438 72 307 72 q 603 123 544 72 q 683 246 661 174 l 790 246 q 724 106 771 165 q 604 12 676 46 q 438 -22 532 -22 m 575 0 q 517 -23 549 -8 q 461 -60 485 -37 q 438 -117 438 -83 q 456 -163 438 -147 q 499 -184 474 -179 q 543 -189 524 -189 l 582 -189 l 582 -278 l 540 -278 q 401 -240 451 -278 q 350 -144 350 -203 q 394 -36 350 -78 q 511 49 439 6 l 575 0 z "},"ẽ":{"ha":836,"x_min":42,"x_max":800,"o":"m 149 354 l 149 446 l 760 446 l 700 396 q 668 557 700 488 q 578 666 636 626 q 438 706 519 706 q 239 633 314 706 q 149 446 164 561 l 43 446 q 107 631 56 551 q 243 756 158 711 q 438 800 328 800 q 585 770 517 800 q 702 683 653 740 q 776 542 751 625 q 793 354 800 460 l 149 354 m 438 -22 q 237 26 324 -22 q 99 158 150 74 q 42 354 49 243 l 149 354 q 233 151 158 229 q 438 72 307 72 q 603 123 544 72 q 683 246 661 174 l 790 246 q 724 106 771 165 q 604 12 676 46 q 438 -22 532 -22 m 344 949 q 313 933 324 949 q 303 893 303 917 l 225 893 q 243 973 225 943 q 288 1015 261 1003 q 340 1028 314 1028 q 406 1011 381 1028 q 453 977 432 994 q 497 960 474 960 q 528 976 519 960 q 538 1015 538 992 l 614 1015 q 597 935 614 965 q 554 891 579 904 q 503 878 529 878 q 442 895 469 878 q 392 931 415 913 q 344 949 368 949 z "},"ə":{"ha":838,"x_min":36,"x_max":796,"o":"m 399 -22 q 251 8 319 -22 q 134 95 183 38 q 60 235 85 153 q 43 424 36 318 l 738 424 l 738 332 l 76 332 l 136 382 q 169 221 138 290 q 259 112 200 151 q 399 72 318 72 q 556 113 492 72 q 656 226 621 154 q 690 390 690 297 q 656 554 690 483 q 556 665 621 625 q 399 706 492 706 q 235 656 293 706 q 153 532 176 606 l 46 532 q 113 672 67 613 q 232 766 160 732 q 399 800 304 800 q 608 748 519 800 q 747 603 697 696 q 796 390 796 511 q 747 176 796 269 q 608 31 697 83 q 399 -22 519 -22 z "},"f":{"ha":515,"x_min":35,"x_max":467,"o":"m 124 1042 l 467 1042 l 467 956 l 225 956 l 225 0 l 124 0 l 124 1042 m 35 778 l 433 778 l 433 692 l 35 692 l 35 778 z "},"g":{"ha":842,"x_min":42,"x_max":771,"o":"m 392 6 q 210 54 289 6 q 86 192 131 103 q 42 401 42 282 q 86 612 42 522 q 210 751 131 701 q 392 800 289 800 q 626 703 544 800 q 713 444 707 606 l 710 356 q 674 176 708 256 q 569 51 639 97 q 392 6 500 6 m 440 -300 q 242 -261 317 -300 q 130 -160 167 -222 q 82 -33 93 -99 l 189 -33 q 264 -160 201 -115 q 440 -206 326 -206 q 567 -178 517 -206 q 644 -97 618 -151 q 669 42 669 -42 l 771 42 q 730 -144 771 -68 q 615 -260 689 -221 q 440 -300 542 -300 m 399 100 q 601 181 533 100 q 669 401 669 263 q 601 624 669 542 q 399 706 533 706 q 217 628 288 706 q 147 401 147 551 q 217 176 147 253 q 399 100 288 100 m 669 42 l 669 778 l 771 778 l 771 42 l 669 42 z "},"ğ":{"ha":842,"x_min":42,"x_max":771,"o":"m 392 6 q 210 54 289 6 q 86 192 131 103 q 42 401 42 282 q 86 612 42 522 q 210 751 131 701 q 392 800 289 800 q 626 703 544 800 q 713 444 707 606 l 710 356 q 674 176 708 256 q 569 51 639 97 q 392 6 500 6 m 440 -300 q 242 -261 317 -300 q 130 -160 167 -222 q 82 -33 93 -99 l 189 -33 q 264 -160 201 -115 q 440 -206 326 -206 q 567 -178 517 -206 q 644 -97 618 -151 q 669 42 669 -42 l 771 42 q 730 -144 771 -68 q 615 -260 689 -221 q 440 -300 542 -300 m 399 100 q 601 181 533 100 q 669 401 669 263 q 601 624 669 542 q 399 706 533 706 q 217 628 288 706 q 147 401 147 551 q 217 176 147 253 q 399 100 288 100 m 669 42 l 669 778 l 771 778 l 771 42 l 669 42 m 608 1047 q 547 926 600 968 q 417 883 494 883 q 285 926 339 883 q 224 1047 232 968 l 325 1047 q 417 968 335 968 q 480 987 457 968 q 508 1047 503 1006 l 608 1047 z "},"ǧ":{"ha":842,"x_min":42,"x_max":771,"o":"m 392 6 q 210 54 289 6 q 86 192 131 103 q 42 401 42 282 q 86 612 42 522 q 210 751 131 701 q 392 800 289 800 q 626 703 544 800 q 713 444 707 606 l 710 356 q 674 176 708 256 q 569 51 639 97 q 392 6 500 6 m 440 -300 q 242 -261 317 -300 q 130 -160 167 -222 q 82 -33 93 -99 l 189 -33 q 264 -160 201 -115 q 440 -206 326 -206 q 567 -178 517 -206 q 644 -97 618 -151 q 669 42 669 -42 l 771 42 q 730 -144 771 -68 q 615 -260 689 -221 q 440 -300 542 -300 m 399 100 q 601 181 533 100 q 669 401 669 263 q 601 624 669 542 q 399 706 533 706 q 217 628 288 706 q 147 401 147 551 q 217 176 147 253 q 399 100 288 100 m 669 42 l 669 778 l 771 778 l 771 42 l 669 42 m 360 885 l 218 1065 l 329 1065 l 450 907 l 381 907 l 501 1065 l 613 1065 l 471 885 l 360 885 z "},"ĝ":{"ha":842,"x_min":42,"x_max":771,"o":"m 392 6 q 210 54 289 6 q 86 192 131 103 q 42 401 42 282 q 86 612 42 522 q 210 751 131 701 q 392 800 289 800 q 626 703 544 800 q 713 444 707 606 l 710 356 q 674 176 708 256 q 569 51 639 97 q 392 6 500 6 m 440 -300 q 242 -261 317 -300 q 130 -160 167 -222 q 82 -33 93 -99 l 189 -33 q 264 -160 201 -115 q 440 -206 326 -206 q 567 -178 517 -206 q 644 -97 618 -151 q 669 42 669 -42 l 771 42 q 730 -144 771 -68 q 615 -260 689 -221 q 440 -300 542 -300 m 399 100 q 601 181 533 100 q 669 401 669 263 q 601 624 669 542 q 399 706 533 706 q 217 628 288 706 q 147 401 147 551 q 217 176 147 253 q 399 100 288 100 m 669 42 l 669 778 l 771 778 l 771 42 l 669 42 m 471 1056 l 613 875 l 501 875 l 381 1033 l 450 1033 l 329 875 l 218 875 l 360 1056 l 471 1056 z "},"ģ":{"ha":842,"x_min":42,"x_max":771,"o":"m 392 6 q 210 54 289 6 q 86 192 131 103 q 42 401 42 282 q 86 612 42 522 q 210 751 131 701 q 392 800 289 800 q 626 703 544 800 q 713 444 707 606 l 710 356 q 674 176 708 256 q 569 51 639 97 q 392 6 500 6 m 440 -300 q 242 -261 317 -300 q 130 -160 167 -222 q 82 -33 93 -99 l 189 -33 q 264 -160 201 -115 q 440 -206 326 -206 q 567 -178 517 -206 q 644 -97 618 -151 q 669 42 669 -42 l 771 42 q 730 -144 771 -68 q 615 -260 689 -221 q 440 -300 542 -300 m 399 100 q 601 181 533 100 q 669 401 669 263 q 601 624 669 542 q 399 706 533 706 q 217 628 288 706 q 147 401 147 551 q 217 176 147 253 q 399 100 288 100 m 669 42 l 669 778 l 771 778 l 771 42 l 669 42 m 450 1101 l 450 1044 q 421 1033 429 1044 q 413 1003 413 1022 l 481 1003 l 481 874 l 349 874 l 349 1003 q 376 1076 349 1051 q 450 1101 404 1101 z "},"ġ":{"ha":842,"x_min":42,"x_max":771,"o":"m 392 6 q 210 54 289 6 q 86 192 131 103 q 42 401 42 282 q 86 612 42 522 q 210 751 131 701 q 392 800 289 800 q 626 703 544 800 q 713 444 707 606 l 710 356 q 674 176 708 256 q 569 51 639 97 q 392 6 500 6 m 440 -300 q 242 -261 317 -300 q 130 -160 167 -222 q 82 -33 93 -99 l 189 -33 q 264 -160 201 -115 q 440 -206 326 -206 q 567 -178 517 -206 q 644 -97 618 -151 q 669 42 669 -42 l 771 42 q 730 -144 771 -68 q 615 -260 689 -221 q 440 -300 542 -300 m 399 100 q 601 181 533 100 q 669 401 669 263 q 601 624 669 542 q 399 706 533 706 q 217 628 288 706 q 147 401 147 551 q 217 176 147 253 q 399 100 288 100 m 669 42 l 669 778 l 771 778 l 771 42 l 669 42 m 351 1032 l 479 1032 l 479 904 l 351 904 l 351 1032 z "},"ḡ":{"ha":842,"x_min":42,"x_max":771,"o":"m 392 6 q 210 54 289 6 q 86 192 131 103 q 42 401 42 282 q 86 612 42 522 q 210 751 131 701 q 392 800 289 800 q 626 703 544 800 q 713 444 707 606 l 710 356 q 674 176 708 256 q 569 51 639 97 q 392 6 500 6 m 440 -300 q 242 -261 317 -300 q 130 -160 167 -222 q 82 -33 93 -99 l 189 -33 q 264 -160 201 -115 q 440 -206 326 -206 q 567 -178 517 -206 q 644 -97 618 -151 q 669 42 669 -42 l 771 42 q 730 -144 771 -68 q 615 -260 689 -221 q 440 -300 542 -300 m 399 100 q 601 181 533 100 q 669 401 669 263 q 601 624 669 542 q 399 706 533 706 q 217 628 288 706 q 147 401 147 551 q 217 176 147 253 q 399 100 288 100 m 669 42 l 669 778 l 771 778 l 771 42 l 669 42 m 224 1013 l 606 1013 l 606 926 l 224 926 l 224 1013 z "},"h":{"ha":775,"x_min":74,"x_max":707,"o":"m 74 1042 l 175 1042 l 175 0 l 74 0 l 74 1042 m 175 394 l 153 540 q 167 621 153 576 q 216 706 182 665 q 306 774 250 747 q 442 800 361 800 q 577 769 517 800 q 672 669 638 739 q 707 479 707 599 l 707 0 l 606 0 l 606 461 q 588 597 606 542 q 528 682 569 653 q 421 711 488 711 q 296 670 351 711 q 208 558 240 629 q 175 394 175 488 z "},"ħ":{"ha":879,"x_min":67,"x_max":811,"o":"m 710 0 l 710 461 q 692 597 710 542 q 633 682 674 653 q 525 711 592 711 q 400 670 456 711 q 312 558 344 629 q 279 394 279 488 l 257 540 q 272 621 257 576 q 320 706 286 665 q 410 774 354 747 q 546 800 465 800 q 681 769 621 800 q 776 669 742 739 q 811 479 811 599 l 811 0 l 710 0 m 178 0 l 178 1042 l 279 1042 l 279 0 l 178 0 m 67 867 l 67 944 l 488 944 l 488 867 l 67 867 z "},"ĥ":{"ha":775,"x_min":74,"x_max":707,"o":"m 74 1042 l 175 1042 l 175 0 l 74 0 l 74 1042 m 175 394 l 153 540 q 167 621 153 576 q 216 706 182 665 q 306 774 250 747 q 442 800 361 800 q 577 769 517 800 q 672 669 638 739 q 707 479 707 599 l 707 0 l 606 0 l 606 461 q 588 597 606 542 q 528 682 569 653 q 421 711 488 711 q 296 670 351 711 q 208 558 240 629 q 175 394 175 488 m 439 1278 l 581 1097 l 469 1097 l 349 1256 l 418 1256 l 297 1097 l 186 1097 l 328 1278 l 439 1278 z "},"i":{"ha":294,"x_min":74,"x_max":221,"o":"m 108 778 l 210 778 l 210 0 l 108 0 l 108 778 m 74 1042 l 194 1067 l 221 940 l 100 915 l 74 1042 z "},"ı":{"ha":249,"x_min":74,"x_max":175,"o":"m 74 778 l 175 778 l 175 0 l 74 0 l 74 778 z "},"í":{"ha":249,"x_min":74,"x_max":294,"o":"m 74 778 l 175 778 l 175 0 l 74 0 l 74 778 m 294 1056 l 165 875 l 86 875 l 156 1056 l 294 1056 z "},"ĭ":{"ha":249,"x_min":-11,"x_max":261,"o":"m 74 778 l 175 778 l 175 0 l 74 0 l 74 778 m 261 1047 q 226 928 261 974 q 125 883 190 883 q 24 928 60 883 q -11 1047 -11 974 l 76 1047 q 87 986 76 1008 q 125 964 97 964 q 163 986 153 964 q 174 1047 174 1008 l 261 1047 z "},"î":{"ha":249,"x_min":-3,"x_max":253,"o":"m 74 778 l 175 778 l 175 0 l 74 0 l 74 778 m 154 1056 l 81 875 l -3 875 l 76 1056 l 154 1056 m 96 1056 l 174 1056 l 253 875 l 169 875 l 96 1056 z "},"ï":{"ha":249,"x_min":-24,"x_max":274,"o":"m 74 778 l 175 778 l 175 0 l 74 0 l 74 778 m -24 1024 l 89 1024 l 89 907 l -24 907 l -24 1024 m 161 1024 l 274 1024 l 274 907 l 161 907 l 161 1024 z "},"ì":{"ha":249,"x_min":-44,"x_max":175,"o":"m 74 778 l 175 778 l 175 0 l 74 0 l 74 778 m 85 875 l -44 1056 l 94 1056 l 164 875 l 85 875 z "},"ī":{"ha":249,"x_min":-11,"x_max":260,"o":"m 74 778 l 175 778 l 175 0 l 74 0 l 74 778 m -11 1013 l 260 1013 l 260 926 l -11 926 l -11 1013 z "},"į":{"ha":249,"x_min":-50,"x_max":189,"o":"m 74 778 l 175 778 l 175 0 l 74 0 l 74 778 m 61 1032 l 189 1032 l 189 904 l 61 904 l 61 1032 m 175 0 q 117 -23 149 -8 q 61 -60 85 -37 q 38 -117 38 -83 q 56 -163 38 -147 q 99 -184 74 -179 q 143 -189 124 -189 l 182 -189 l 182 -278 l 140 -278 q 1 -240 51 -278 q -50 -144 -50 -203 q -6 -36 -50 -78 q 111 49 39 6 l 175 0 z "},"ĩ":{"ha":249,"x_min":-19,"x_max":268,"o":"m 74 778 l 175 778 l 175 0 l 74 0 l 74 778 m 76 947 q 53 933 60 947 q 47 904 47 919 l -19 904 q 8 1003 -19 976 q 68 1029 35 1029 q 115 1017 97 1029 q 146 991 132 1004 q 175 978 160 978 q 198 992 193 978 q 203 1021 203 1006 l 268 1021 q 243 921 268 949 q 188 893 218 893 q 144 907 164 893 q 108 934 125 921 q 76 947 92 947 z "},"ĳ":{"ha":574,"x_min":74,"x_max":493,"o":"m 108 778 l 210 778 l 210 0 l 108 0 l 108 778 m 74 1042 l 194 1067 l 221 940 l 100 915 l 74 1042 m 167 -278 l 167 -192 l 381 -192 l 381 778 l 482 778 l 482 -278 l 167 -278 m 372 915 l 346 1042 l 467 1067 l 493 940 l 372 915 z "},"j":{"ha":335,"x_min":-65,"x_max":261,"o":"m -65 -278 l -65 -192 l 149 -192 l 149 778 l 250 778 l 250 -278 l -65 -278 m 140 915 l 114 1042 l 235 1067 l 261 940 l 140 915 z "},"ȷ":{"ha":344,"x_min":-65,"x_max":257,"o":"m 257 778 l 257 -94 q 213 -233 257 -187 q 75 -278 169 -278 l -65 -278 l -65 -192 l 74 -192 q 135 -171 115 -192 q 156 -94 156 -150 l 156 778 l 257 778 z "},"ĵ":{"ha":344,"x_min":-65,"x_max":333,"o":"m 257 778 l 257 -94 q 213 -233 257 -187 q 75 -278 169 -278 l -65 -278 l -65 -192 l 74 -192 q 135 -171 115 -192 q 156 -94 156 -150 l 156 778 l 257 778 m 235 1056 l 161 875 l 78 875 l 157 1056 l 235 1056 m 176 1056 l 254 1056 l 333 875 l 250 875 l 176 1056 z "},"k":{"ha":710,"x_min":74,"x_max":679,"o":"m 74 1042 l 175 1042 l 175 0 l 74 0 l 74 1042 m 269 443 l 358 493 l 679 0 l 554 0 l 269 443 m 633 778 l 114 175 l 126 338 l 506 778 l 633 778 z "},"ķ":{"ha":710,"x_min":74,"x_max":679,"o":"m 74 1042 l 175 1042 l 175 0 l 74 0 l 74 1042 m 269 443 l 358 493 l 679 0 l 554 0 l 269 443 m 633 778 l 114 175 l 126 338 l 506 778 l 633 778 m 317 -293 l 317 -236 q 346 -225 338 -236 q 354 -194 354 -214 l 286 -194 l 286 -65 l 418 -65 l 418 -194 q 390 -268 418 -243 q 317 -293 363 -293 z "},"l":{"ha":249,"x_min":74,"x_max":175,"o":"m 74 1042 l 175 1042 l 175 0 l 74 0 l 74 1042 z "},"ĺ":{"ha":249,"x_min":74,"x_max":294,"o":"m 74 1042 l 175 1042 l 175 0 l 74 0 l 74 1042 m 294 1319 l 165 1139 l 86 1139 l 156 1319 l 294 1319 z "},"ľ":{"ha":249,"x_min":74,"x_max":369,"o":"m 74 1042 l 175 1042 l 175 0 l 74 0 l 74 1042 m 268 814 l 268 871 q 297 882 289 871 q 306 913 306 893 l 238 913 l 238 1042 l 369 1042 l 369 913 q 342 839 369 864 q 268 814 314 814 z "},"ļ":{"ha":249,"x_min":58,"x_max":190,"o":"m 74 1042 l 175 1042 l 175 0 l 74 0 l 74 1042 m 89 -293 l 89 -236 q 118 -225 110 -236 q 126 -194 126 -214 l 58 -194 l 58 -65 l 190 -65 l 190 -194 q 163 -268 190 -243 q 89 -293 135 -293 z "},"ł":{"ha":485,"x_min":67,"x_max":418,"o":"m 192 1042 l 293 1042 l 293 0 l 192 0 l 192 1042 m 67 524 l 418 635 l 418 540 l 67 429 l 67 524 z "},"m":{"ha":1193,"x_min":71,"x_max":1125,"o":"m 71 778 l 172 778 l 172 0 l 71 0 l 71 778 m 172 394 l 150 540 q 163 621 150 576 q 206 706 176 665 q 285 774 236 747 q 404 800 333 800 q 534 769 479 800 q 619 669 589 739 q 649 479 649 599 l 649 0 l 547 0 l 547 461 q 534 597 547 542 q 485 682 521 653 q 383 711 450 711 q 274 670 321 711 q 199 558 226 629 q 172 394 172 488 m 649 394 l 626 540 q 640 621 626 576 q 683 706 653 665 q 761 774 713 747 q 881 800 810 800 q 1010 769 956 800 q 1095 669 1065 739 q 1125 479 1125 599 l 1125 0 l 1024 0 l 1024 461 q 1010 597 1024 542 q 962 682 997 653 q 860 711 926 711 q 750 670 797 711 q 676 558 703 629 q 649 394 649 488 z "},"n":{"ha":772,"x_min":71,"x_max":704,"o":"m 71 778 l 172 778 l 172 642 q 224 718 190 682 q 310 777 257 754 q 439 800 364 800 q 574 769 514 800 q 669 669 635 739 q 704 479 704 599 l 704 0 l 603 0 l 603 461 q 585 597 603 542 q 526 682 567 653 q 418 711 485 711 q 293 670 349 711 q 205 558 238 629 q 172 394 172 488 l 172 0 l 71 0 l 71 778 z "},"ń":{"ha":772,"x_min":71,"x_max":704,"o":"m 71 778 l 172 778 l 172 642 q 224 718 190 682 q 310 777 257 754 q 439 800 364 800 q 574 769 514 800 q 669 669 635 739 q 704 479 704 599 l 704 0 l 603 0 l 603 461 q 585 597 603 542 q 526 682 567 653 q 418 711 485 711 q 293 670 349 711 q 205 558 238 629 q 172 394 172 488 l 172 0 l 71 0 l 71 778 m 556 1056 l 426 875 l 347 875 l 417 1056 l 556 1056 z "},"ň":{"ha":772,"x_min":71,"x_max":704,"o":"m 71 778 l 172 778 l 172 642 q 224 718 190 682 q 310 777 257 754 q 439 800 364 800 q 574 769 514 800 q 669 669 635 739 q 704 479 704 599 l 704 0 l 603 0 l 603 461 q 585 597 603 542 q 526 682 567 653 q 418 711 485 711 q 293 670 349 711 q 205 558 238 629 q 172 394 172 488 l 172 0 l 71 0 l 71 778 m 331 885 l 189 1065 l 300 1065 l 421 907 l 351 907 l 472 1065 l 583 1065 l 442 885 l 331 885 z "},"ņ":{"ha":772,"x_min":71,"x_max":704,"o":"m 71 778 l 172 778 l 172 642 q 224 718 190 682 q 310 777 257 754 q 439 800 364 800 q 574 769 514 800 q 669 669 635 739 q 704 479 704 599 l 704 0 l 603 0 l 603 461 q 585 597 603 542 q 526 682 567 653 q 418 711 485 711 q 293 670 349 711 q 205 558 238 629 q 172 394 172 488 l 172 0 l 71 0 l 71 778 m 350 -293 l 350 -236 q 379 -225 371 -236 q 388 -194 388 -214 l 319 -194 l 319 -65 l 451 -65 l 451 -194 q 424 -268 451 -243 q 350 -293 396 -293 z "},"ñ":{"ha":772,"x_min":71,"x_max":704,"o":"m 71 778 l 172 778 l 172 642 q 224 718 190 682 q 310 777 257 754 q 439 800 364 800 q 574 769 514 800 q 669 669 635 739 q 704 479 704 599 l 704 0 l 603 0 l 603 461 q 585 597 603 542 q 526 682 567 653 q 418 711 485 711 q 293 670 349 711 q 205 558 238 629 q 172 394 172 488 l 172 0 l 71 0 l 71 778 m 313 949 q 281 933 292 949 q 271 893 271 917 l 193 893 q 211 973 193 943 q 256 1015 229 1003 q 308 1028 282 1028 q 374 1011 349 1028 q 421 977 400 994 q 465 960 442 960 q 497 976 488 960 q 506 1015 506 992 l 582 1015 q 565 935 582 965 q 522 891 547 904 q 471 878 497 878 q 410 895 438 878 q 360 931 383 913 q 313 949 336 949 z "},"o":{"ha":878,"x_min":42,"x_max":836,"o":"m 439 -22 q 229 30 318 -22 q 91 175 140 82 q 42 388 42 268 q 91 601 42 508 q 229 747 140 694 q 439 800 318 800 q 649 747 560 800 q 787 601 738 694 q 836 388 836 508 q 787 175 836 268 q 649 30 738 82 q 439 -22 560 -22 m 439 72 q 590 110 524 72 q 693 218 656 147 q 731 388 731 289 q 693 559 731 488 q 590 668 656 631 q 439 706 524 706 q 288 668 354 706 q 185 559 222 631 q 147 388 147 488 q 185 218 147 289 q 288 110 222 147 q 439 72 354 72 z "},"ó":{"ha":878,"x_min":42,"x_max":836,"o":"m 439 -22 q 229 30 318 -22 q 91 175 140 82 q 42 388 42 268 q 91 601 42 508 q 229 747 140 694 q 439 800 318 800 q 649 747 560 800 q 787 601 738 694 q 836 388 836 508 q 787 175 836 268 q 649 30 738 82 q 439 -22 560 -22 m 439 72 q 590 110 524 72 q 693 218 656 147 q 731 388 731 289 q 693 559 731 488 q 590 668 656 631 q 439 706 524 706 q 288 668 354 706 q 185 559 222 631 q 147 388 147 488 q 185 218 147 289 q 288 110 222 147 q 439 72 354 72 m 608 1056 l 479 875 l 400 875 l 469 1056 l 608 1056 z "},"ŏ":{"ha":878,"x_min":42,"x_max":836,"o":"m 439 -22 q 229 30 318 -22 q 91 175 140 82 q 42 388 42 268 q 91 601 42 508 q 229 747 140 694 q 439 800 318 800 q 649 747 560 800 q 787 601 738 694 q 836 388 836 508 q 787 175 836 268 q 649 30 738 82 q 439 -22 560 -22 m 439 72 q 590 110 524 72 q 693 218 656 147 q 731 388 731 289 q 693 559 731 488 q 590 668 656 631 q 439 706 524 706 q 288 668 354 706 q 185 559 222 631 q 147 388 147 488 q 185 218 147 289 q 288 110 222 147 q 439 72 354 72 m 632 1047 q 571 926 624 968 q 440 883 518 883 q 309 926 363 883 q 247 1047 256 968 l 349 1047 q 440 968 358 968 q 503 987 481 968 q 532 1047 526 1006 l 632 1047 z "},"ô":{"ha":878,"x_min":42,"x_max":836,"o":"m 439 -22 q 229 30 318 -22 q 91 175 140 82 q 42 388 42 268 q 91 601 42 508 q 229 747 140 694 q 439 800 318 800 q 649 747 560 800 q 787 601 738 694 q 836 388 836 508 q 787 175 836 268 q 649 30 738 82 q 439 -22 560 -22 m 439 72 q 590 110 524 72 q 693 218 656 147 q 731 388 731 289 q 693 559 731 488 q 590 668 656 631 q 439 706 524 706 q 288 668 354 706 q 185 559 222 631 q 147 388 147 488 q 185 218 147 289 q 288 110 222 147 q 439 72 354 72 m 494 1056 l 636 875 l 525 875 l 404 1033 l 474 1033 l 353 875 l 242 875 l 383 1056 l 494 1056 z "},"ö":{"ha":878,"x_min":42,"x_max":836,"o":"m 439 -22 q 229 30 318 -22 q 91 175 140 82 q 42 388 42 268 q 91 601 42 508 q 229 747 140 694 q 439 800 318 800 q 649 747 560 800 q 787 601 738 694 q 836 388 836 508 q 787 175 836 268 q 649 30 738 82 q 439 -22 560 -22 m 439 72 q 590 110 524 72 q 693 218 656 147 q 731 388 731 289 q 693 559 731 488 q 590 668 656 631 q 439 706 524 706 q 288 668 354 706 q 185 559 222 631 q 147 388 147 488 q 185 218 147 289 q 288 110 222 147 q 439 72 354 72 m 263 1036 l 389 1036 l 389 906 l 263 906 l 263 1036 m 489 1036 l 615 1036 l 615 906 l 489 906 l 489 1036 z "},"ò":{"ha":878,"x_min":42,"x_max":836,"o":"m 439 -22 q 229 30 318 -22 q 91 175 140 82 q 42 388 42 268 q 91 601 42 508 q 229 747 140 694 q 439 800 318 800 q 649 747 560 800 q 787 601 738 694 q 836 388 836 508 q 787 175 836 268 q 649 30 738 82 q 439 -22 560 -22 m 439 72 q 590 110 524 72 q 693 218 656 147 q 731 388 731 289 q 693 559 731 488 q 590 668 656 631 q 439 706 524 706 q 288 668 354 706 q 185 559 222 631 q 147 388 147 488 q 185 218 147 289 q 288 110 222 147 q 439 72 354 72 m 399 875 l 269 1056 l 408 1056 l 478 875 l 399 875 z "},"ő":{"ha":878,"x_min":42,"x_max":836,"o":"m 439 -22 q 229 30 318 -22 q 91 175 140 82 q 42 388 42 268 q 91 601 42 508 q 229 747 140 694 q 439 800 318 800 q 649 747 560 800 q 787 601 738 694 q 836 388 836 508 q 787 175 836 268 q 649 30 738 82 q 439 -22 560 -22 m 439 72 q 590 110 524 72 q 693 218 656 147 q 731 388 731 289 q 693 559 731 488 q 590 668 656 631 q 439 706 524 706 q 288 668 354 706 q 185 559 222 631 q 147 388 147 488 q 185 218 147 289 q 288 110 222 147 q 439 72 354 72 m 475 1056 l 374 875 l 294 875 l 336 1056 l 475 1056 m 667 1056 l 565 875 l 486 875 l 528 1056 l 667 1056 z "},"ō":{"ha":878,"x_min":42,"x_max":836,"o":"m 439 -22 q 229 30 318 -22 q 91 175 140 82 q 42 388 42 268 q 91 601 42 508 q 229 747 140 694 q 439 800 318 800 q 649 747 560 800 q 787 601 738 694 q 836 388 836 508 q 787 175 836 268 q 649 30 738 82 q 439 -22 560 -22 m 439 72 q 590 110 524 72 q 693 218 656 147 q 731 388 731 289 q 693 559 731 488 q 590 668 656 631 q 439 706 524 706 q 288 668 354 706 q 185 559 222 631 q 147 388 147 488 q 185 218 147 289 q 288 110 222 147 q 439 72 354 72 m 247 1013 l 629 1013 l 629 926 l 247 926 l 247 1013 z "},"ø":{"ha":878,"x_min":42,"x_max":836,"o":"m 439 -22 q 229 30 318 -22 q 91 175 140 82 q 42 388 42 268 q 91 601 42 508 q 229 747 140 694 q 439 800 318 800 q 649 747 560 800 q 787 601 738 694 q 836 388 836 508 q 787 175 836 268 q 649 30 738 82 q 439 -22 560 -22 m 439 72 q 590 110 524 72 q 693 218 656 147 q 731 388 731 289 q 693 559 731 488 q 590 668 656 631 q 439 706 524 706 q 288 668 354 706 q 185 559 222 631 q 147 388 147 488 q 185 218 147 289 q 288 110 222 147 q 439 72 354 72 m 217 -22 l 132 38 l 674 801 l 758 742 l 217 -22 z "},"õ":{"ha":878,"x_min":42,"x_max":836,"o":"m 439 -22 q 229 30 318 -22 q 91 175 140 82 q 42 388 42 268 q 91 601 42 508 q 229 747 140 694 q 439 800 318 800 q 649 747 560 800 q 787 601 738 694 q 836 388 836 508 q 787 175 836 268 q 649 30 738 82 q 439 -22 560 -22 m 439 72 q 590 110 524 72 q 693 218 656 147 q 731 388 731 289 q 693 559 731 488 q 590 668 656 631 q 439 706 524 706 q 288 668 354 706 q 185 559 222 631 q 147 388 147 488 q 185 218 147 289 q 288 110 222 147 q 439 72 354 72 m 365 949 q 334 933 344 949 q 324 893 324 917 l 246 893 q 264 973 246 943 q 308 1015 282 1003 q 361 1028 335 1028 q 427 1011 401 1028 q 474 977 453 994 q 518 960 494 960 q 549 976 540 960 q 558 1015 558 992 l 635 1015 q 617 935 635 965 q 575 891 600 904 q 524 878 550 878 q 463 895 490 878 q 413 931 436 913 q 365 949 389 949 z "},"œ":{"ha":1526,"x_min":42,"x_max":1490,"o":"m 1128 -22 q 919 30 1008 -22 q 780 175 829 82 q 731 388 731 268 q 780 601 731 508 q 919 747 829 694 q 1128 800 1008 800 q 1275 770 1207 800 q 1392 683 1343 740 q 1466 542 1442 625 q 1483 354 1490 460 l 789 354 l 789 446 l 1450 446 l 1390 396 q 1358 557 1390 488 q 1268 666 1326 626 q 1128 706 1210 706 q 971 665 1036 706 q 871 552 906 624 q 836 388 836 481 q 871 224 836 296 q 971 113 906 153 q 1128 72 1036 72 q 1293 123 1235 72 q 1374 246 1351 174 l 1481 246 q 1414 106 1461 165 q 1294 12 1367 46 q 1128 -22 1222 -22 m 439 -22 q 229 30 318 -22 q 91 175 140 82 q 42 388 42 268 q 91 601 42 508 q 229 747 140 694 q 439 800 318 800 q 649 747 560 800 q 787 601 738 694 q 836 388 836 508 q 787 175 836 268 q 649 30 738 82 q 439 -22 560 -22 m 439 72 q 590 110 524 72 q 693 218 656 147 q 731 388 731 289 q 693 559 731 488 q 590 668 656 631 q 439 706 524 706 q 288 668 354 706 q 185 559 222 631 q 147 388 147 488 q 185 218 147 289 q 288 110 222 147 q 439 72 354 72 z "},"p":{"ha":844,"x_min":74,"x_max":803,"o":"m 453 -22 q 280 26 349 -22 q 175 150 211 74 l 175 625 q 282 753 213 706 q 453 800 351 800 q 635 747 557 800 q 758 601 714 694 q 803 388 803 508 q 758 175 803 268 q 635 30 714 82 q 453 -22 557 -22 m 74 -278 l 74 778 l 175 778 l 175 -278 l 74 -278 m 446 72 q 577 110 521 72 q 665 218 633 147 q 697 388 697 289 q 665 559 697 488 q 577 668 633 631 q 446 706 521 706 q 297 665 357 706 q 206 552 236 624 q 175 388 175 481 q 206 224 175 296 q 297 113 236 153 q 446 72 357 72 z "},"þ":{"ha":844,"x_min":74,"x_max":803,"o":"m 453 -22 q 280 26 349 -22 q 175 150 211 74 l 175 625 q 282 753 213 706 q 453 800 351 800 q 635 747 557 800 q 758 601 714 694 q 803 388 803 508 q 758 175 803 268 q 635 30 714 82 q 453 -22 557 -22 m 74 -278 l 74 1042 l 175 1042 l 175 -278 l 74 -278 m 446 72 q 577 110 521 72 q 665 218 633 147 q 697 388 697 289 q 665 559 697 488 q 577 668 633 631 q 446 706 521 706 q 297 665 357 706 q 206 552 236 624 q 175 388 175 481 q 206 224 175 296 q 297 113 236 153 q 446 72 357 72 z "},"q":{"ha":844,"x_min":42,"x_max":771,"o":"m 392 -22 q 210 30 289 -22 q 86 175 131 82 q 42 388 42 268 q 86 601 42 508 q 210 747 131 694 q 392 800 289 800 q 564 753 494 800 q 671 622 633 706 q 713 431 708 539 l 710 342 q 674 159 708 242 q 569 27 639 76 q 392 -22 500 -22 m 399 72 q 549 113 489 72 q 639 224 608 153 q 669 388 669 296 q 639 552 669 481 q 549 665 608 624 q 399 706 489 706 q 268 668 325 706 q 179 559 211 631 q 147 388 147 488 q 179 218 147 289 q 268 110 211 147 q 399 72 325 72 m 669 -278 l 669 778 l 771 778 l 771 -278 l 669 -278 z "},"r":{"ha":478,"x_min":71,"x_max":446,"o":"m 71 778 l 172 778 l 172 0 l 71 0 l 71 778 m 172 436 l 151 524 q 163 607 151 560 q 205 698 174 654 q 294 771 236 742 q 446 800 353 800 l 446 693 q 302 667 364 693 q 206 585 240 642 q 172 436 172 529 z "},"ŕ":{"ha":478,"x_min":71,"x_max":446,"o":"m 71 778 l 172 778 l 172 0 l 71 0 l 71 778 m 172 436 l 151 524 q 163 607 151 560 q 205 698 174 654 q 294 771 236 742 q 446 800 353 800 l 446 693 q 302 667 364 693 q 206 585 240 642 q 172 436 172 529 m 417 1056 l 288 875 l 208 875 l 278 1056 l 417 1056 z "},"ř":{"ha":478,"x_min":50,"x_max":446,"o":"m 71 778 l 172 778 l 172 0 l 71 0 l 71 778 m 172 436 l 151 524 q 163 607 151 560 q 205 698 174 654 q 294 771 236 742 q 446 800 353 800 l 446 693 q 302 667 364 693 q 206 585 240 642 q 172 436 172 529 m 192 885 l 50 1065 l 161 1065 l 282 907 l 213 907 l 333 1065 l 444 1065 l 303 885 l 192 885 z "},"ŗ":{"ha":478,"x_min":56,"x_max":446,"o":"m 71 778 l 172 778 l 172 0 l 71 0 l 71 778 m 172 436 l 151 524 q 163 607 151 560 q 205 698 174 654 q 294 771 236 742 q 446 800 353 800 l 446 693 q 302 667 364 693 q 206 585 240 642 q 172 436 172 529 m 86 -293 l 86 -236 q 115 -225 107 -236 q 124 -194 124 -214 l 56 -194 l 56 -65 l 188 -65 l 188 -194 q 160 -268 188 -243 q 86 -293 132 -293 z "},"s":{"ha":719,"x_min":42,"x_max":678,"o":"m 138 246 q 210 112 144 160 q 372 64 276 64 q 522 101 467 64 q 578 214 578 139 q 549 281 578 257 q 474 317 521 304 q 371 338 426 329 q 259 358 315 346 q 156 392 203 369 q 80 456 108 415 q 51 564 51 497 q 89 681 51 626 q 197 767 126 735 q 361 800 267 800 q 515 766 446 800 q 624 672 583 732 q 665 533 665 613 l 578 533 q 509 667 572 619 q 356 714 446 714 q 203 672 254 714 q 151 564 151 629 q 180 493 151 518 q 256 455 208 468 q 359 433 303 442 q 471 413 415 425 q 574 380 526 401 q 649 319 621 358 q 678 214 678 279 q 640 88 678 140 q 533 6 603 35 q 365 -22 464 -22 q 201 13 274 -22 q 87 109 129 49 q 42 246 44 169 l 138 246 z "},"ś":{"ha":719,"x_min":42,"x_max":678,"o":"m 138 246 q 210 112 144 160 q 372 64 276 64 q 522 101 467 64 q 578 214 578 139 q 549 281 578 257 q 474 317 521 304 q 371 338 426 329 q 259 358 315 346 q 156 392 203 369 q 80 456 108 415 q 51 564 51 497 q 89 681 51 626 q 197 767 126 735 q 361 800 267 800 q 515 766 446 800 q 624 672 583 732 q 665 533 665 613 l 578 533 q 509 667 572 619 q 356 714 446 714 q 203 672 254 714 q 151 564 151 629 q 180 493 151 518 q 256 455 208 468 q 359 433 303 442 q 471 413 415 425 q 574 380 526 401 q 649 319 621 358 q 678 214 678 279 q 640 88 678 140 q 533 6 603 35 q 365 -22 464 -22 q 201 13 274 -22 q 87 109 129 49 q 42 246 44 169 l 138 246 m 529 1056 l 400 875 l 321 875 l 390 1056 l 529 1056 z "},"š":{"ha":719,"x_min":42,"x_max":678,"o":"m 138 246 q 210 112 144 160 q 372 64 276 64 q 522 101 467 64 q 578 214 578 139 q 549 281 578 257 q 474 317 521 304 q 371 338 426 329 q 259 358 315 346 q 156 392 203 369 q 80 456 108 415 q 51 564 51 497 q 89 681 51 626 q 197 767 126 735 q 361 800 267 800 q 515 766 446 800 q 624 672 583 732 q 665 533 665 613 l 578 533 q 509 667 572 619 q 356 714 446 714 q 203 672 254 714 q 151 564 151 629 q 180 493 151 518 q 256 455 208 468 q 359 433 303 442 q 471 413 415 425 q 574 380 526 401 q 649 319 621 358 q 678 214 678 279 q 640 88 678 140 q 533 6 603 35 q 365 -22 464 -22 q 201 13 274 -22 q 87 109 129 49 q 42 246 44 169 l 138 246 m 304 885 l 163 1065 l 274 1065 l 394 907 l 325 907 l 446 1065 l 557 1065 l 415 885 l 304 885 z "},"ş":{"ha":719,"x_min":42,"x_max":678,"o":"m 138 246 q 210 112 144 160 q 372 64 276 64 q 522 101 467 64 q 578 214 578 139 q 549 281 578 257 q 474 317 521 304 q 371 338 426 329 q 259 358 315 346 q 156 392 203 369 q 80 456 108 415 q 51 564 51 497 q 89 681 51 626 q 197 767 126 735 q 361 800 267 800 q 515 766 446 800 q 624 672 583 732 q 665 533 665 613 l 578 533 q 509 667 572 619 q 356 714 446 714 q 203 672 254 714 q 151 564 151 629 q 180 493 151 518 q 256 455 208 468 q 359 433 303 442 q 471 413 415 425 q 574 380 526 401 q 649 319 621 358 q 678 214 678 279 q 640 88 678 140 q 533 6 603 35 q 365 -22 464 -22 q 201 13 274 -22 q 87 109 129 49 q 42 246 44 169 l 138 246 m 340 56 l 428 56 l 428 -124 l 340 -124 l 340 56 m 408 -124 l 408 -49 q 531 -76 492 -49 q 569 -162 569 -104 q 533 -250 569 -222 q 425 -278 496 -278 l 308 -278 l 308 -203 l 408 -203 q 463 -197 440 -203 q 486 -162 486 -192 q 463 -128 486 -133 q 408 -124 440 -124 z "},"ŝ":{"ha":719,"x_min":42,"x_max":678,"o":"m 138 246 q 210 112 144 160 q 372 64 276 64 q 522 101 467 64 q 578 214 578 139 q 549 281 578 257 q 474 317 521 304 q 371 338 426 329 q 259 358 315 346 q 156 392 203 369 q 80 456 108 415 q 51 564 51 497 q 89 681 51 626 q 197 767 126 735 q 361 800 267 800 q 515 766 446 800 q 624 672 583 732 q 665 533 665 613 l 578 533 q 509 667 572 619 q 356 714 446 714 q 203 672 254 714 q 151 564 151 629 q 180 493 151 518 q 256 455 208 468 q 359 433 303 442 q 471 413 415 425 q 574 380 526 401 q 649 319 621 358 q 678 214 678 279 q 640 88 678 140 q 533 6 603 35 q 365 -22 464 -22 q 201 13 274 -22 q 87 109 129 49 q 42 246 44 169 l 138 246 m 415 1056 l 557 875 l 446 875 l 325 1033 l 394 1033 l 274 875 l 163 875 l 304 1056 l 415 1056 z "},"ș":{"ha":719,"x_min":42,"x_max":678,"o":"m 138 246 q 210 112 144 160 q 372 64 276 64 q 522 101 467 64 q 578 214 578 139 q 549 281 578 257 q 474 317 521 304 q 371 338 426 329 q 259 358 315 346 q 156 392 203 369 q 80 456 108 415 q 51 564 51 497 q 89 681 51 626 q 197 767 126 735 q 361 800 267 800 q 515 766 446 800 q 624 672 583 732 q 665 533 665 613 l 578 533 q 509 667 572 619 q 356 714 446 714 q 203 672 254 714 q 151 564 151 629 q 180 493 151 518 q 256 455 208 468 q 359 433 303 442 q 471 413 415 425 q 574 380 526 401 q 649 319 621 358 q 678 214 678 279 q 640 88 678 140 q 533 6 603 35 q 365 -22 464 -22 q 201 13 274 -22 q 87 109 129 49 q 42 246 44 169 l 138 246 m 324 -293 l 324 -236 q 353 -225 344 -236 q 361 -194 361 -214 l 293 -194 l 293 -65 l 425 -65 l 425 -194 q 397 -268 425 -243 q 324 -293 369 -293 z "},"ß":{"ha":840,"x_min":79,"x_max":799,"o":"m 79 0 l 79 692 q 109 865 79 786 q 210 993 139 944 q 408 1042 282 1042 q 583 1008 507 1042 q 701 908 658 974 q 744 743 744 842 q 707 606 744 663 q 604 528 669 549 q 699 494 656 525 q 771 412 743 464 q 799 288 799 360 q 747 113 799 176 q 609 25 696 50 q 417 0 522 0 l 318 0 l 318 92 l 417 92 q 516 99 467 92 q 605 127 565 107 q 669 186 644 147 q 693 288 693 225 q 655 403 693 364 q 553 458 617 443 q 417 472 490 472 l 318 472 l 318 564 l 363 564 q 467 569 418 564 q 556 590 517 574 q 617 644 594 607 q 639 743 639 681 q 579 897 639 847 q 408 947 519 947 q 290 919 335 947 q 221 849 244 892 q 189 764 197 807 q 181 692 181 721 l 181 0 l 79 0 z "},"t":{"ha":510,"x_min":36,"x_max":468,"o":"m 181 0 l 181 972 l 282 972 l 282 86 l 468 86 l 468 0 l 181 0 m 36 692 l 36 778 l 446 778 l 446 692 l 36 692 z "},"ť":{"ha":510,"x_min":36,"x_max":504,"o":"m 181 0 l 181 972 l 282 972 l 282 86 l 468 86 l 468 0 l 181 0 m 36 692 l 36 778 l 446 778 l 446 692 l 36 692 m 403 814 l 403 871 q 432 882 424 871 q 440 913 440 893 l 372 913 l 372 1042 l 504 1042 l 504 913 q 476 839 504 864 q 403 814 449 814 z "},"ţ":{"ha":510,"x_min":36,"x_max":510,"o":"m 181 0 l 181 972 l 282 972 l 282 86 l 468 86 l 468 0 l 181 0 m 36 692 l 36 778 l 446 778 l 446 692 l 36 692 m 281 56 l 368 56 l 368 -124 l 281 -124 l 281 56 m 349 -124 l 349 -49 q 471 -76 432 -49 q 510 -162 510 -104 q 473 -250 510 -222 q 365 -278 436 -278 l 249 -278 l 249 -203 l 349 -203 q 403 -197 381 -203 q 426 -162 426 -192 q 403 -128 426 -133 q 349 -124 381 -124 z "},"ț":{"ha":510,"x_min":36,"x_max":468,"o":"m 181 0 l 181 972 l 282 972 l 282 86 l 468 86 l 468 0 l 181 0 m 36 692 l 36 778 l 446 778 l 446 692 l 36 692 m 264 -293 l 264 -236 q 293 -225 285 -236 q 301 -194 301 -214 l 233 -194 l 233 -65 l 365 -65 l 365 -194 q 338 -268 365 -243 q 264 -293 310 -293 z "},"u":{"ha":772,"x_min":68,"x_max":701,"o":"m 701 0 l 600 0 l 600 778 l 701 778 l 701 0 m 600 383 l 622 238 q 608 157 622 201 q 559 72 593 113 q 470 4 525 31 q 333 -22 415 -22 q 199 8 258 -22 q 103 110 139 39 q 68 299 68 181 l 68 778 l 169 778 l 169 317 q 188 181 169 236 q 247 96 207 125 q 354 67 288 67 q 479 108 424 67 q 567 220 535 149 q 600 383 600 292 z "},"ú":{"ha":772,"x_min":68,"x_max":701,"o":"m 701 0 l 600 0 l 600 778 l 701 778 l 701 0 m 600 383 l 622 238 q 608 157 622 201 q 559 72 593 113 q 470 4 525 31 q 333 -22 415 -22 q 199 8 258 -22 q 103 110 139 39 q 68 299 68 181 l 68 778 l 169 778 l 169 317 q 188 181 169 236 q 247 96 207 125 q 354 67 288 67 q 479 108 424 67 q 567 220 535 149 q 600 383 600 292 m 556 1056 l 426 875 l 347 875 l 417 1056 l 556 1056 z "},"ŭ":{"ha":772,"x_min":68,"x_max":701,"o":"m 701 0 l 600 0 l 600 778 l 701 778 l 701 0 m 600 383 l 622 238 q 608 157 622 201 q 559 72 593 113 q 470 4 525 31 q 333 -22 415 -22 q 199 8 258 -22 q 103 110 139 39 q 68 299 68 181 l 68 778 l 169 778 l 169 317 q 188 181 169 236 q 247 96 207 125 q 354 67 288 67 q 479 108 424 67 q 567 220 535 149 q 600 383 600 292 m 579 1047 q 518 926 571 968 q 388 883 465 883 q 256 926 310 883 q 194 1047 203 968 l 296 1047 q 388 968 306 968 q 451 987 428 968 q 479 1047 474 1006 l 579 1047 z "},"û":{"ha":772,"x_min":68,"x_max":701,"o":"m 701 0 l 600 0 l 600 778 l 701 778 l 701 0 m 600 383 l 622 238 q 608 157 622 201 q 559 72 593 113 q 470 4 525 31 q 333 -22 415 -22 q 199 8 258 -22 q 103 110 139 39 q 68 299 68 181 l 68 778 l 169 778 l 169 317 q 188 181 169 236 q 247 96 207 125 q 354 67 288 67 q 479 108 424 67 q 567 220 535 149 q 600 383 600 292 m 442 1056 l 583 875 l 472 875 l 351 1033 l 421 1033 l 300 875 l 189 875 l 331 1056 l 442 1056 z "},"ü":{"ha":772,"x_min":68,"x_max":701,"o":"m 701 0 l 600 0 l 600 778 l 701 778 l 701 0 m 600 383 l 622 238 q 608 157 622 201 q 559 72 593 113 q 470 4 525 31 q 333 -22 415 -22 q 199 8 258 -22 q 103 110 139 39 q 68 299 68 181 l 68 778 l 169 778 l 169 317 q 188 181 169 236 q 247 96 207 125 q 354 67 288 67 q 479 108 424 67 q 567 220 535 149 q 600 383 600 292 m 210 1036 l 336 1036 l 336 906 l 210 906 l 210 1036 m 436 1036 l 563 1036 l 563 906 l 436 906 l 436 1036 z "},"ù":{"ha":772,"x_min":68,"x_max":701,"o":"m 701 0 l 600 0 l 600 778 l 701 778 l 701 0 m 600 383 l 622 238 q 608 157 622 201 q 559 72 593 113 q 470 4 525 31 q 333 -22 415 -22 q 199 8 258 -22 q 103 110 139 39 q 68 299 68 181 l 68 778 l 169 778 l 169 317 q 188 181 169 236 q 247 96 207 125 q 354 67 288 67 q 479 108 424 67 q 567 220 535 149 q 600 383 600 292 m 346 875 l 217 1056 l 356 1056 l 425 875 l 346 875 z "},"ű":{"ha":772,"x_min":68,"x_max":701,"o":"m 701 0 l 600 0 l 600 778 l 701 778 l 701 0 m 600 383 l 622 238 q 608 157 622 201 q 559 72 593 113 q 470 4 525 31 q 333 -22 415 -22 q 199 8 258 -22 q 103 110 139 39 q 68 299 68 181 l 68 778 l 169 778 l 169 317 q 188 181 169 236 q 247 96 207 125 q 354 67 288 67 q 479 108 424 67 q 567 220 535 149 q 600 383 600 292 m 422 1056 l 321 875 l 242 875 l 283 1056 l 422 1056 m 614 1056 l 513 875 l 433 875 l 475 1056 l 614 1056 z "},"ū":{"ha":772,"x_min":68,"x_max":701,"o":"m 701 0 l 600 0 l 600 778 l 701 778 l 701 0 m 600 383 l 622 238 q 608 157 622 201 q 559 72 593 113 q 470 4 525 31 q 333 -22 415 -22 q 199 8 258 -22 q 103 110 139 39 q 68 299 68 181 l 68 778 l 169 778 l 169 317 q 188 181 169 236 q 247 96 207 125 q 354 67 288 67 q 479 108 424 67 q 567 220 535 149 q 600 383 600 292 m 194 1013 l 576 1013 l 576 926 l 194 926 l 194 1013 z "},"ų":{"ha":772,"x_min":68,"x_max":708,"o":"m 701 0 l 600 0 l 600 778 l 701 778 l 701 0 m 600 383 l 622 238 q 608 157 622 201 q 559 72 593 113 q 470 4 525 31 q 333 -22 415 -22 q 199 8 258 -22 q 103 110 139 39 q 68 299 68 181 l 68 778 l 169 778 l 169 317 q 188 181 169 236 q 247 96 207 125 q 354 67 288 67 q 479 108 424 67 q 567 220 535 149 q 600 383 600 292 m 701 0 q 643 -23 675 -8 q 588 -60 611 -37 q 564 -117 564 -83 q 582 -163 564 -147 q 625 -184 600 -179 q 669 -189 650 -189 l 708 -189 l 708 -278 l 667 -278 q 527 -240 578 -278 q 476 -144 476 -203 q 521 -36 476 -78 q 638 49 565 6 l 701 0 z "},"ů":{"ha":772,"x_min":68,"x_max":701,"o":"m 701 0 l 600 0 l 600 778 l 701 778 l 701 0 m 600 383 l 622 238 q 608 157 622 201 q 559 72 593 113 q 470 4 525 31 q 333 -22 415 -22 q 199 8 258 -22 q 103 110 139 39 q 68 299 68 181 l 68 778 l 169 778 l 169 317 q 188 181 169 236 q 247 96 207 125 q 354 67 288 67 q 479 108 424 67 q 567 220 535 149 q 600 383 600 292 m 386 871 q 300 906 336 871 q 264 992 264 942 q 300 1076 264 1040 q 386 1111 336 1111 q 472 1076 436 1111 q 508 992 508 1040 q 472 906 508 942 q 386 871 436 871 m 386 935 q 424 952 410 935 q 439 992 439 969 q 424 1031 439 1014 q 386 1047 410 1047 q 349 1031 364 1047 q 333 992 333 1014 q 349 952 333 969 q 386 935 364 935 z "},"ũ":{"ha":772,"x_min":68,"x_max":701,"o":"m 701 0 l 600 0 l 600 778 l 701 778 l 701 0 m 600 383 l 622 238 q 608 157 622 201 q 559 72 593 113 q 470 4 525 31 q 333 -22 415 -22 q 199 8 258 -22 q 103 110 139 39 q 68 299 68 181 l 68 778 l 169 778 l 169 317 q 188 181 169 236 q 247 96 207 125 q 354 67 288 67 q 479 108 424 67 q 567 220 535 149 q 600 383 600 292 m 313 949 q 281 933 292 949 q 271 893 271 917 l 193 893 q 211 973 193 943 q 256 1015 229 1003 q 308 1028 282 1028 q 374 1011 349 1028 q 421 977 400 994 q 465 960 442 960 q 497 976 488 960 q 506 1015 506 992 l 582 1015 q 565 935 582 965 q 522 891 547 904 q 471 878 497 878 q 410 895 438 878 q 360 931 383 913 q 313 949 336 949 z "},"v":{"ha":742,"x_min":32,"x_max":710,"o":"m 32 778 l 143 778 l 397 0 l 296 0 l 32 778 m 710 778 l 446 0 l 344 0 l 599 778 l 710 778 z "},"w":{"ha":1029,"x_min":32,"x_max":997,"o":"m 32 778 l 142 778 l 328 0 l 240 0 l 32 778 m 550 778 l 361 0 l 268 0 l 457 778 l 550 778 m 479 778 l 572 778 l 761 0 l 668 0 l 479 778 m 997 778 l 789 0 l 701 0 l 888 778 l 997 778 z "},"ẃ":{"ha":1029,"x_min":32,"x_max":997,"o":"m 32 778 l 142 778 l 328 0 l 240 0 l 32 778 m 550 778 l 361 0 l 268 0 l 457 778 l 550 778 m 479 778 l 572 778 l 761 0 l 668 0 l 479 778 m 997 778 l 789 0 l 701 0 l 888 778 l 997 778 m 685 1056 l 556 875 l 476 875 l 546 1056 l 685 1056 z "},"ŵ":{"ha":1029,"x_min":32,"x_max":997,"o":"m 32 778 l 142 778 l 328 0 l 240 0 l 32 778 m 550 778 l 361 0 l 268 0 l 457 778 l 550 778 m 479 778 l 572 778 l 761 0 l 668 0 l 479 778 m 997 778 l 789 0 l 701 0 l 888 778 l 997 778 m 571 1056 l 713 875 l 601 875 l 481 1033 l 550 1033 l 429 875 l 318 875 l 460 1056 l 571 1056 z "},"ẅ":{"ha":1029,"x_min":32,"x_max":997,"o":"m 32 778 l 142 778 l 328 0 l 240 0 l 32 778 m 550 778 l 361 0 l 268 0 l 457 778 l 550 778 m 479 778 l 572 778 l 761 0 l 668 0 l 479 778 m 997 778 l 789 0 l 701 0 l 888 778 l 997 778 m 339 1036 l 465 1036 l 465 906 l 339 906 l 339 1036 m 565 1036 l 692 1036 l 692 906 l 565 906 l 565 1036 z "},"ẁ":{"ha":1029,"x_min":32,"x_max":997,"o":"m 32 778 l 142 778 l 328 0 l 240 0 l 32 778 m 550 778 l 361 0 l 268 0 l 457 778 l 550 778 m 479 778 l 572 778 l 761 0 l 668 0 l 479 778 m 997 778 l 789 0 l 701 0 l 888 778 l 997 778 m 475 875 l 346 1056 l 485 1056 l 554 875 l 475 875 z "},"x":{"ha":685,"x_min":35,"x_max":650,"o":"m 39 778 l 154 778 l 650 0 l 535 0 l 39 778 m 646 778 l 150 0 l 35 0 l 531 778 l 646 778 z "},"y":{"ha":742,"x_min":32,"x_max":710,"o":"m 344 0 l 599 778 l 710 778 l 446 0 l 344 0 m 81 -278 l 81 -192 l 286 -192 l 369 67 l 468 67 l 357 -278 l 81 -278 m 296 0 l 32 778 l 143 778 l 397 0 l 296 0 z "},"ý":{"ha":742,"x_min":32,"x_max":710,"o":"m 344 0 l 599 778 l 710 778 l 446 0 l 344 0 m 81 -278 l 81 -192 l 286 -192 l 369 67 l 468 67 l 357 -278 l 81 -278 m 296 0 l 32 778 l 143 778 l 397 0 l 296 0 m 540 1056 l 411 875 l 332 875 l 401 1056 l 540 1056 z "},"ŷ":{"ha":742,"x_min":32,"x_max":710,"o":"m 344 0 l 599 778 l 710 778 l 446 0 l 344 0 m 81 -278 l 81 -192 l 286 -192 l 369 67 l 468 67 l 357 -278 l 81 -278 m 296 0 l 32 778 l 143 778 l 397 0 l 296 0 m 426 1056 l 568 875 l 457 875 l 336 1033 l 406 1033 l 285 875 l 174 875 l 315 1056 l 426 1056 z "},"ÿ":{"ha":742,"x_min":32,"x_max":710,"o":"m 344 0 l 599 778 l 710 778 l 446 0 l 344 0 m 81 -278 l 81 -192 l 286 -192 l 369 67 l 468 67 l 357 -278 l 81 -278 m 296 0 l 32 778 l 143 778 l 397 0 l 296 0 m 194 1036 l 321 1036 l 321 906 l 194 906 l 194 1036 m 421 1036 l 547 1036 l 547 906 l 421 906 l 421 1036 z "},"ỳ":{"ha":742,"x_min":32,"x_max":710,"o":"m 344 0 l 599 778 l 710 778 l 446 0 l 344 0 m 81 -278 l 81 -192 l 286 -192 l 369 67 l 468 67 l 357 -278 l 81 -278 m 296 0 l 32 778 l 143 778 l 397 0 l 296 0 m 331 875 l 201 1056 l 340 1056 l 410 875 l 331 875 z "},"ỹ":{"ha":742,"x_min":32,"x_max":710,"o":"m 344 0 l 599 778 l 710 778 l 446 0 l 344 0 m 81 -278 l 81 -192 l 286 -192 l 369 67 l 468 67 l 357 -278 l 81 -278 m 296 0 l 32 778 l 143 778 l 397 0 l 296 0 m 297 949 q 266 933 276 949 q 256 893 256 917 l 178 893 q 196 973 178 943 q 240 1015 214 1003 q 293 1028 267 1028 q 359 1011 333 1028 q 406 977 385 994 q 450 960 426 960 q 481 976 472 960 q 490 1015 490 992 l 567 1015 q 549 935 567 965 q 507 891 532 904 q 456 878 482 878 q 395 895 422 878 q 344 931 368 913 q 297 949 321 949 z "},"z":{"ha":686,"x_min":40,"x_max":646,"o":"m 51 778 l 642 778 l 642 714 l 554 692 l 51 692 l 51 778 m 101 0 l 40 64 l 581 778 l 642 778 l 642 714 l 101 0 m 646 0 l 40 0 l 40 64 l 126 86 l 646 86 l 646 0 z "},"ź":{"ha":686,"x_min":40,"x_max":646,"o":"m 51 778 l 642 778 l 642 714 l 554 692 l 51 692 l 51 778 m 101 0 l 40 64 l 581 778 l 642 778 l 642 714 l 101 0 m 646 0 l 40 0 l 40 64 l 126 86 l 646 86 l 646 0 m 513 1056 l 383 875 l 304 875 l 374 1056 l 513 1056 z "},"ž":{"ha":686,"x_min":40,"x_max":646,"o":"m 51 778 l 642 778 l 642 714 l 554 692 l 51 692 l 51 778 m 101 0 l 40 64 l 581 778 l 642 778 l 642 714 l 101 0 m 646 0 l 40 0 l 40 64 l 126 86 l 646 86 l 646 0 m 288 885 l 146 1065 l 257 1065 l 378 907 l 308 907 l 429 1065 l 540 1065 l 399 885 l 288 885 z "},"ż":{"ha":686,"x_min":40,"x_max":646,"o":"m 51 778 l 642 778 l 642 714 l 554 692 l 51 692 l 51 778 m 101 0 l 40 64 l 581 778 l 642 778 l 642 714 l 101 0 m 646 0 l 40 0 l 40 64 l 126 86 l 646 86 l 646 0 m 279 1032 l 407 1032 l 407 904 l 279 904 l 279 1032 z "},"ꞌ":{"ha":271,"x_min":76,"x_max":194,"o":"m 76 994 l 194 994 l 167 608 l 104 608 l 76 994 z "},"ª":{"ha":490,"x_min":49,"x_max":442,"o":"m 360 781 l 442 781 l 442 514 l 360 514 l 360 781 m 251 994 q 394 937 346 994 q 442 781 442 879 l 360 781 q 349 854 360 824 q 315 901 339 885 q 251 918 292 918 q 163 885 189 918 q 136 808 136 853 l 49 808 q 72 899 49 857 q 141 968 96 942 q 251 994 186 994 m 365 801 l 383 732 q 204 719 263 743 q 146 650 146 696 q 170 592 146 611 q 240 572 194 572 q 303 588 276 572 q 344 633 329 604 q 360 699 360 661 l 390 650 q 339 542 379 583 q 221 500 299 500 q 106 538 153 500 q 60 646 60 576 q 86 733 60 700 q 156 781 113 765 q 254 801 200 797 q 365 801 308 804 z "},"º":{"ha":574,"x_min":49,"x_max":525,"o":"m 288 500 q 114 569 179 500 q 49 746 49 638 q 114 925 49 856 q 288 994 179 994 q 413 963 360 994 q 495 875 465 931 q 525 746 525 819 q 460 569 525 638 q 288 500 394 500 m 288 578 q 397 624 357 578 q 438 746 438 669 q 397 870 438 824 q 288 917 357 917 q 177 870 218 917 q 136 746 136 824 q 177 624 136 669 q 288 578 218 578 z "},"⁄":{"ha":128,"x_min":-250,"x_max":386,"o":"m 292 972 l 386 972 l -156 0 l -250 0 l 292 972 z "},"½":{"ha":913,"x_min":21,"x_max":888,"o":"m 138 972 l 225 972 l 225 486 l 138 486 l 138 972 m 21 972 l 156 972 l 156 896 l 21 896 l 21 972 m 21 564 l 156 564 l 156 486 l 21 486 l 21 564 m 206 564 l 342 564 l 342 486 l 206 486 l 206 564 m 654 972 l 749 972 l 207 0 l 113 0 l 654 972 m 515 0 q 545 108 517 64 q 615 183 574 153 q 699 238 657 214 q 768 288 740 263 q 796 346 796 313 q 773 403 796 385 q 710 421 750 421 q 639 397 663 421 q 613 332 615 372 l 522 332 q 576 451 522 406 q 715 497 631 497 q 846 451 806 497 q 886 346 886 406 q 859 261 886 294 q 792 203 832 228 q 713 151 753 178 q 647 90 674 125 q 619 0 619 54 l 515 0 m 572 76 l 888 76 l 888 0 l 515 0 l 572 76 z "},"¼":{"ha":906,"x_min":21,"x_max":886,"o":"m 138 972 l 225 972 l 225 486 l 138 486 l 138 972 m 21 972 l 156 972 l 156 896 l 21 896 l 21 972 m 21 564 l 156 564 l 156 486 l 21 486 l 21 564 m 206 564 l 342 564 l 342 486 l 206 486 l 206 564 m 654 972 l 749 972 l 207 0 l 113 0 l 654 972 m 728 486 l 814 486 l 814 0 l 728 0 l 728 486 m 519 188 l 886 188 l 886 113 l 519 113 l 519 188 m 707 486 l 796 486 l 554 113 l 511 113 l 511 186 l 707 486 z "},"¾":{"ha":985,"x_min":28,"x_max":965,"o":"m 175 772 q 281 788 250 772 q 313 840 313 803 q 291 884 313 865 q 225 903 269 903 q 151 881 179 903 q 119 818 122 858 l 28 818 q 54 904 28 867 q 125 963 81 942 q 221 983 169 983 q 354 941 304 983 q 404 840 404 899 q 392 786 404 813 q 349 742 379 760 q 269 719 319 724 l 269 740 q 375 700 343 736 q 407 618 407 664 q 358 517 407 560 q 221 475 308 475 q 125 496 169 475 q 54 554 81 517 q 28 640 28 592 l 119 640 q 149 580 122 604 q 224 556 175 556 q 293 576 269 556 q 317 625 317 596 q 283 678 317 664 q 175 693 249 693 l 175 772 m 733 972 l 828 972 l 286 0 l 192 0 l 733 972 m 807 486 l 893 486 l 893 0 l 807 0 l 807 486 m 599 188 l 965 188 l 965 113 l 599 113 l 599 188 m 786 486 l 875 486 l 633 113 l 590 113 l 590 186 l 786 486 z "},"⅛":{"ha":953,"x_min":21,"x_max":907,"o":"m 138 972 l 225 972 l 225 486 l 138 486 l 138 972 m 21 972 l 156 972 l 156 896 l 21 896 l 21 972 m 21 564 l 156 564 l 156 486 l 21 486 l 21 564 m 206 564 l 342 564 l 342 486 l 206 486 l 206 564 m 654 972 l 749 972 l 207 0 l 113 0 l 654 972 m 721 -11 q 585 31 633 -11 q 536 132 536 74 q 554 199 536 168 q 614 244 572 231 q 558 289 575 260 q 540 354 540 318 q 590 455 540 413 q 721 497 640 497 q 853 455 803 497 q 903 354 903 413 q 885 289 903 318 q 828 244 868 260 q 889 199 871 231 q 907 132 907 168 q 858 31 907 74 q 721 -11 810 -11 m 721 69 q 794 92 774 69 q 815 140 815 114 q 794 192 815 172 q 721 211 772 211 q 649 192 671 211 q 626 140 626 172 q 649 91 626 113 q 721 69 671 69 m 721 282 q 791 302 768 282 q 814 353 814 322 q 790 398 814 379 q 721 417 765 417 q 654 399 679 417 q 629 353 629 381 q 651 302 629 322 q 721 282 674 282 z "},"⅜":{"ha":1032,"x_min":28,"x_max":986,"o":"m 175 772 q 281 788 250 772 q 313 840 313 803 q 291 884 313 865 q 225 903 269 903 q 151 881 179 903 q 119 818 122 858 l 28 818 q 54 904 28 867 q 125 963 81 942 q 221 983 169 983 q 354 941 304 983 q 404 840 404 899 q 392 786 404 813 q 349 742 379 760 q 269 719 319 724 l 269 740 q 375 700 343 736 q 407 618 407 664 q 358 517 407 560 q 221 475 308 475 q 125 496 169 475 q 54 554 81 517 q 28 640 28 592 l 119 640 q 149 580 122 604 q 224 556 175 556 q 293 576 269 556 q 317 625 317 596 q 283 678 317 664 q 175 693 249 693 l 175 772 m 733 972 l 828 972 l 286 0 l 192 0 l 733 972 m 800 -11 q 664 31 713 -11 q 615 132 615 74 q 633 199 615 168 q 693 244 651 231 q 637 289 654 260 q 619 354 619 318 q 669 455 619 413 q 800 497 719 497 q 932 455 882 497 q 982 354 982 413 q 965 289 982 318 q 907 244 947 260 q 968 199 950 231 q 986 132 986 168 q 938 31 986 74 q 800 -11 889 -11 m 800 69 q 874 92 853 69 q 894 140 894 114 q 873 192 894 172 q 800 211 851 211 q 728 192 750 211 q 706 140 706 172 q 728 91 706 113 q 800 69 750 69 m 800 282 q 870 302 847 282 q 893 353 893 322 q 869 398 893 379 q 800 417 844 417 q 733 399 758 417 q 708 353 708 381 q 731 302 708 322 q 800 282 753 282 z "},"⅝":{"ha":1011,"x_min":28,"x_max":965,"o":"m 235 813 q 360 765 317 813 q 404 643 404 717 q 356 524 404 572 q 218 475 307 475 q 124 496 167 475 q 54 554 81 517 q 28 640 28 592 l 118 640 q 148 577 121 601 q 222 553 175 553 q 291 581 268 553 q 314 646 314 610 q 291 709 314 685 q 221 733 268 733 q 157 719 183 733 q 118 685 131 704 l 67 685 q 92 735 72 706 q 147 789 111 765 q 235 813 182 813 m 31 685 l 82 972 l 169 972 l 115 685 l 31 685 m 103 972 l 363 972 l 363 896 l 103 896 l 103 972 m 713 972 l 807 972 l 265 0 l 171 0 l 713 972 m 779 -11 q 643 31 692 -11 q 594 132 594 74 q 613 199 594 168 q 672 244 631 231 q 616 289 633 260 q 599 354 599 318 q 649 455 599 413 q 779 497 699 497 q 911 455 861 497 q 961 354 961 413 q 944 289 961 318 q 886 244 926 260 q 947 199 929 231 q 965 132 965 168 q 917 31 965 74 q 779 -11 868 -11 m 779 69 q 853 92 832 69 q 874 140 874 114 q 852 192 874 172 q 779 211 831 211 q 707 192 729 211 q 685 140 685 172 q 707 91 685 113 q 779 69 729 69 m 779 282 q 849 302 826 282 q 872 353 872 322 q 848 398 872 379 q 779 417 824 417 q 713 399 738 417 q 688 353 688 381 q 710 302 688 322 q 779 282 732 282 z "},"⅞":{"ha":917,"x_min":21,"x_max":871,"o":"m 128 486 q 174 772 128 644 q 301 972 221 900 l 354 972 l 354 910 q 283 814 314 871 q 234 676 251 757 q 217 486 217 596 l 128 486 m 21 972 l 331 972 l 331 896 l 21 896 l 21 972 m 618 972 l 713 972 l 171 0 l 76 0 l 618 972 m 685 -11 q 549 31 597 -11 q 500 132 500 74 q 518 199 500 168 q 578 244 536 231 q 522 289 539 260 q 504 354 504 318 q 554 455 504 413 q 685 497 604 497 q 817 455 767 497 q 867 354 867 413 q 849 289 867 318 q 792 244 832 260 q 853 199 835 231 q 871 132 871 168 q 822 31 871 74 q 685 -11 774 -11 m 685 69 q 758 92 738 69 q 779 140 779 114 q 758 192 779 172 q 685 211 736 211 q 613 192 635 211 q 590 140 590 172 q 613 91 590 113 q 685 69 635 69 m 685 282 q 755 302 732 282 q 778 353 778 322 q 753 398 778 379 q 685 417 729 417 q 618 399 643 417 q 593 353 593 381 q 615 302 593 322 q 685 282 638 282 z "},"₀":{"ha":501,"x_min":46,"x_max":456,"o":"m 251 -11 q 136 23 182 -11 q 68 115 90 57 q 46 243 46 174 q 68 372 46 314 q 136 463 90 429 q 251 497 182 497 q 367 463 322 497 q 434 370 413 428 q 456 243 456 313 q 434 116 456 174 q 367 24 413 58 q 251 -11 322 -11 m 251 69 q 317 94 292 69 q 355 158 343 118 q 367 243 367 199 q 355 328 367 289 q 317 392 343 368 q 251 417 292 417 q 164 365 192 417 q 136 243 136 313 q 164 122 136 175 q 251 69 192 69 z "},"₁":{"ha":363,"x_min":21,"x_max":342,"o":"m 138 486 l 225 486 l 225 0 l 138 0 l 138 486 m 21 486 l 156 486 l 156 410 l 21 410 l 21 486 m 21 78 l 156 78 l 156 0 l 21 0 l 21 78 m 206 78 l 342 78 l 342 0 l 206 0 l 206 78 z "},"₂":{"ha":422,"x_min":25,"x_max":397,"o":"m 25 0 q 55 108 26 64 q 125 183 83 153 q 208 238 167 214 q 278 288 250 263 q 306 346 306 313 q 283 403 306 385 q 219 421 260 421 q 149 397 172 421 q 122 332 125 372 l 32 332 q 86 451 32 406 q 225 497 140 497 q 356 451 315 497 q 396 346 396 406 q 369 261 396 294 q 302 203 342 228 q 223 151 263 178 q 156 90 183 125 q 129 0 129 54 l 25 0 m 82 76 l 397 76 l 397 0 l 25 0 l 82 76 z "},"₃":{"ha":453,"x_min":28,"x_max":407,"o":"m 175 286 q 281 301 250 286 q 313 354 313 317 q 291 398 313 379 q 225 417 269 417 q 151 394 179 417 q 119 332 122 372 l 28 332 q 54 418 28 381 q 125 476 81 456 q 221 497 169 497 q 354 455 304 497 q 404 354 404 413 q 392 300 404 326 q 349 256 379 274 q 269 233 319 238 l 269 254 q 375 214 343 250 q 407 132 407 178 q 358 31 407 74 q 221 -11 308 -11 q 125 10 169 -11 q 54 68 81 31 q 28 154 28 106 l 119 154 q 149 94 122 118 q 224 69 175 69 q 293 90 269 69 q 317 139 317 110 q 283 192 317 178 q 175 207 249 207 l 175 286 z "},"₄":{"ha":415,"x_min":21,"x_max":396,"o":"m 238 486 l 324 486 l 324 0 l 238 0 l 238 486 m 29 188 l 396 188 l 396 113 l 29 113 l 29 188 m 217 486 l 306 486 l 64 113 l 21 113 l 21 186 l 217 486 z "},"₅":{"ha":425,"x_min":28,"x_max":404,"o":"m 235 326 q 360 278 317 326 q 404 157 404 231 q 356 38 404 86 q 218 -11 307 -11 q 124 10 167 -11 q 54 68 81 31 q 28 154 28 106 l 118 154 q 148 91 121 115 q 222 67 175 67 q 291 95 268 67 q 314 160 314 124 q 291 223 314 199 q 221 247 268 247 q 157 233 183 247 q 118 199 131 218 l 67 199 q 92 249 72 219 q 147 303 111 279 q 235 326 182 326 m 31 199 l 82 486 l 169 486 l 115 199 l 31 199 m 103 486 l 363 486 l 363 410 l 103 410 l 103 486 z "},"₆":{"ha":471,"x_min":46,"x_max":425,"o":"m 319 349 q 299 394 315 372 q 238 417 282 417 q 165 379 197 417 q 131 250 133 342 l 107 253 q 158 304 122 282 q 243 326 193 326 q 376 278 328 326 q 425 157 425 229 q 376 38 425 86 q 239 -11 326 -11 q 143 11 188 -11 q 72 86 99 33 q 46 229 46 139 q 96 427 46 357 q 242 497 146 497 q 358 456 315 497 q 414 349 401 415 l 319 349 m 144 161 q 170 96 144 122 q 239 69 196 69 q 310 95 285 69 q 336 160 336 121 q 310 224 336 200 q 240 247 285 247 q 170 224 196 247 q 144 161 144 200 z "},"₇":{"ha":375,"x_min":21,"x_max":354,"o":"m 128 0 q 174 286 128 158 q 301 486 221 414 l 354 486 l 354 424 q 283 328 314 385 q 234 190 251 271 q 217 0 217 110 l 128 0 m 21 486 l 331 486 l 331 410 l 21 410 l 21 486 z "},"₈":{"ha":463,"x_min":46,"x_max":417,"o":"m 231 -11 q 94 31 143 -11 q 46 132 46 74 q 64 199 46 168 q 124 244 82 231 q 67 289 85 260 q 50 354 50 318 q 100 455 50 413 q 231 497 150 497 q 363 455 313 497 q 413 354 413 413 q 395 289 413 318 q 338 244 378 260 q 399 199 381 231 q 417 132 417 168 q 368 31 417 74 q 231 -11 319 -11 m 231 69 q 304 92 283 69 q 325 140 325 114 q 303 192 325 172 q 231 211 282 211 q 158 192 181 211 q 136 140 136 172 q 158 91 136 113 q 231 69 181 69 m 231 282 q 301 302 278 282 q 324 353 324 322 q 299 398 324 379 q 231 417 275 417 q 164 399 189 417 q 139 353 139 381 q 161 302 139 322 q 231 282 183 282 z "},"₉":{"ha":471,"x_min":46,"x_max":425,"o":"m 151 138 q 172 92 156 115 q 233 69 189 69 q 307 106 274 69 q 342 238 340 143 l 365 233 q 315 182 351 204 q 228 160 279 160 q 94 208 143 160 q 46 328 46 257 q 95 449 46 400 q 232 497 144 497 q 328 475 285 497 q 399 400 372 453 q 425 256 425 347 q 375 59 425 129 q 229 -11 325 -11 q 114 29 157 -11 q 58 138 71 69 l 151 138 m 326 325 q 301 391 326 365 q 232 417 276 417 q 162 391 188 417 q 136 326 136 365 q 162 263 136 288 q 232 239 188 239 q 301 263 276 239 q 326 325 326 286 z "},"⁰":{"ha":501,"x_min":46,"x_max":456,"o":"m 251 475 q 136 509 182 475 q 68 601 90 543 q 46 729 46 660 q 68 858 46 800 q 136 949 90 915 q 251 983 182 983 q 367 949 322 983 q 434 856 413 914 q 456 729 456 799 q 434 602 456 660 q 367 510 413 544 q 251 475 322 475 m 251 556 q 317 580 292 556 q 355 644 343 604 q 367 729 367 685 q 355 815 367 775 q 317 878 343 854 q 251 903 292 903 q 164 851 192 903 q 136 729 136 799 q 164 608 136 661 q 251 556 192 556 z "},"¹":{"ha":363,"x_min":21,"x_max":342,"o":"m 138 972 l 225 972 l 225 486 l 138 486 l 138 972 m 21 972 l 156 972 l 156 896 l 21 896 l 21 972 m 21 564 l 156 564 l 156 486 l 21 486 l 21 564 m 206 564 l 342 564 l 342 486 l 206 486 l 206 564 z "},"²":{"ha":422,"x_min":25,"x_max":397,"o":"m 25 486 q 55 594 26 550 q 125 669 83 639 q 208 724 167 700 q 278 774 250 749 q 306 832 306 799 q 283 889 306 871 q 219 907 260 907 q 149 883 172 907 q 122 818 125 858 l 32 818 q 86 938 32 892 q 225 983 140 983 q 356 938 315 983 q 396 832 396 892 q 369 747 396 781 q 302 689 342 714 q 223 638 263 664 q 156 576 183 611 q 129 486 129 540 l 25 486 m 82 563 l 397 563 l 397 486 l 25 486 l 82 563 z "},"³":{"ha":453,"x_min":28,"x_max":407,"o":"m 175 772 q 281 788 250 772 q 313 840 313 803 q 291 884 313 865 q 225 903 269 903 q 151 881 179 903 q 119 818 122 858 l 28 818 q 54 904 28 867 q 125 963 81 942 q 221 983 169 983 q 354 941 304 983 q 404 840 404 899 q 392 786 404 813 q 349 742 379 760 q 269 719 319 724 l 269 740 q 375 700 343 736 q 407 618 407 664 q 358 517 407 560 q 221 475 308 475 q 125 496 169 475 q 54 554 81 517 q 28 640 28 592 l 119 640 q 149 580 122 604 q 224 556 175 556 q 293 576 269 556 q 317 625 317 596 q 283 678 317 664 q 175 693 249 693 l 175 772 z "},"⁴":{"ha":415,"x_min":21,"x_max":396,"o":"m 238 972 l 324 972 l 324 486 l 238 486 l 238 972 m 29 674 l 396 674 l 396 599 l 29 599 l 29 674 m 217 972 l 306 972 l 64 599 l 21 599 l 21 672 l 217 972 z "},"⁵":{"ha":425,"x_min":28,"x_max":404,"o":"m 235 813 q 360 765 317 813 q 404 643 404 717 q 356 524 404 572 q 218 475 307 475 q 124 496 167 475 q 54 554 81 517 q 28 640 28 592 l 118 640 q 148 577 121 601 q 222 553 175 553 q 291 581 268 553 q 314 646 314 610 q 291 709 314 685 q 221 733 268 733 q 157 719 183 733 q 118 685 131 704 l 67 685 q 92 735 72 706 q 147 789 111 765 q 235 813 182 813 m 31 685 l 82 972 l 169 972 l 115 685 l 31 685 m 103 972 l 363 972 l 363 896 l 103 896 l 103 972 z "},"⁶":{"ha":471,"x_min":46,"x_max":425,"o":"m 319 835 q 299 881 315 858 q 238 903 282 903 q 165 865 197 903 q 131 736 133 828 l 107 739 q 158 790 122 768 q 243 813 193 813 q 376 764 328 813 q 425 643 425 715 q 376 524 425 572 q 239 475 326 475 q 143 497 188 475 q 72 572 99 519 q 46 715 46 625 q 96 913 46 843 q 242 983 146 983 q 358 942 315 983 q 414 835 401 901 l 319 835 m 144 647 q 170 582 144 608 q 239 556 196 556 q 310 581 285 556 q 336 646 336 607 q 310 710 336 686 q 240 733 285 733 q 170 710 196 733 q 144 647 144 686 z "},"⁷":{"ha":375,"x_min":21,"x_max":354,"o":"m 128 486 q 174 772 128 644 q 301 972 221 900 l 354 972 l 354 910 q 283 814 314 871 q 234 676 251 757 q 217 486 217 596 l 128 486 m 21 972 l 331 972 l 331 896 l 21 896 l 21 972 z "},"⁸":{"ha":463,"x_min":46,"x_max":417,"o":"m 231 475 q 94 517 143 475 q 46 618 46 560 q 64 685 46 654 q 124 731 82 717 q 67 775 85 746 q 50 840 50 804 q 100 941 50 899 q 231 983 150 983 q 363 941 313 983 q 413 840 413 899 q 395 775 413 804 q 338 731 378 746 q 399 685 381 717 q 417 618 417 654 q 368 517 417 560 q 231 475 319 475 m 231 556 q 304 578 283 556 q 325 626 325 600 q 303 678 325 658 q 231 697 282 697 q 158 678 181 697 q 136 626 136 658 q 158 577 136 599 q 231 556 181 556 m 231 768 q 301 788 278 768 q 324 839 324 808 q 299 884 324 865 q 231 903 275 903 q 164 885 189 903 q 139 839 139 867 q 161 788 139 808 q 231 768 183 768 z "},"⁹":{"ha":471,"x_min":46,"x_max":425,"o":"m 151 624 q 172 578 156 601 q 233 556 189 556 q 307 592 274 556 q 342 724 340 629 l 365 719 q 315 668 351 690 q 228 646 279 646 q 94 694 143 646 q 46 814 46 743 q 95 935 46 886 q 232 983 144 983 q 328 961 285 983 q 399 886 372 939 q 425 742 425 833 q 375 545 425 615 q 229 475 325 475 q 114 515 157 475 q 58 624 71 556 l 151 624 m 326 811 q 301 877 326 851 q 232 903 276 903 q 162 877 188 903 q 136 813 136 851 q 162 749 136 774 q 232 725 188 725 q 301 749 276 725 q 326 811 326 772 z "}," ":{"ha":292,"x_min":0,"x_max":0,"o":""}," ":{"ha":292,"x_min":0,"x_max":0,"o":""}," ":{"ha":833,"x_min":0,"x_max":0,"o":""}," ":{"ha":833,"x_min":0,"x_max":0,"o":""},"-":{"ha":564,"x_min":64,"x_max":501,"o":"m 64 488 l 501 488 l 501 401 l 64 401 l 64 488 z "},"–":{"ha":807,"x_min":64,"x_max":744,"o":"m 64 488 l 744 488 l 744 401 l 64 401 l 64 488 z "},"—":{"ha":1011,"x_min":63,"x_max":949,"o":"m 63 488 l 949 488 l 949 401 l 63 401 l 63 488 z "},"_":{"ha":807,"x_min":64,"x_max":744,"o":"m 64 -42 l 744 -42 l 744 -128 l 64 -128 l 64 -42 z "},"(":{"ha":336,"x_min":46,"x_max":301,"o":"m 218 994 l 301 994 q 217 794 251 892 q 164 596 182 697 q 146 378 146 494 q 164 160 146 261 q 217 -39 182 58 q 301 -239 251 -136 l 218 -239 q 131 -58 169 -150 q 69 141 92 35 q 46 378 46 247 q 69 615 46 508 q 131 813 92 721 q 218 994 169 906 z "},")":{"ha":336,"x_min":35,"x_max":290,"o":"m 118 994 q 206 813 167 906 q 267 615 244 721 q 290 378 290 508 q 267 141 290 247 q 206 -58 244 35 q 118 -239 167 -150 l 35 -239 q 120 -39 86 -136 q 172 160 154 58 q 190 378 190 261 q 172 596 190 494 q 120 794 154 697 q 35 994 86 892 l 118 994 z "},"{":{"ha":497,"x_min":28,"x_max":463,"o":"m 450 -239 q 274 -197 336 -239 q 189 -83 213 -154 q 165 78 165 -11 q 138 255 165 188 q 28 332 110 322 l 28 424 q 138 501 110 435 q 165 678 165 568 q 189 838 165 767 q 274 952 213 910 q 450 994 336 994 l 463 994 l 463 921 l 450 921 q 332 892 374 921 q 274 801 290 863 q 258 640 258 739 q 224 448 258 510 q 135 378 189 386 q 224 308 189 369 q 258 115 258 246 q 274 -45 258 17 q 332 -136 290 -107 q 450 -165 374 -165 l 463 -165 l 463 -239 l 450 -239 z "},"}":{"ha":497,"x_min":35,"x_max":469,"o":"m 35 -239 l 35 -165 l 47 -165 q 166 -136 125 -165 q 223 -45 207 -107 q 239 115 239 17 q 274 308 239 246 q 363 378 308 369 q 274 448 308 386 q 239 640 239 510 q 223 801 239 739 q 166 892 207 863 q 47 921 125 921 l 35 921 l 35 994 l 47 994 q 224 952 163 994 q 308 838 285 910 q 332 678 332 767 q 360 501 332 568 q 469 424 388 435 l 469 332 q 360 255 388 322 q 332 78 332 188 q 308 -83 332 -11 q 224 -197 285 -154 q 47 -239 163 -239 l 35 -239 z "},"[":{"ha":415,"x_min":79,"x_max":381,"o":"m 79 972 l 179 972 l 179 -217 l 79 -217 l 79 972 m 179 972 l 381 972 l 381 899 l 179 899 l 179 972 m 179 -143 l 381 -143 l 381 -217 l 179 -217 l 179 -143 z "},"]":{"ha":415,"x_min":35,"x_max":336,"o":"m 336 972 l 336 -217 l 236 -217 l 236 972 l 336 972 m 236 972 l 236 899 l 35 899 l 35 972 l 236 972 m 236 -143 l 236 -217 l 35 -217 l 35 -143 l 236 -143 z "},"‚":{"ha":229,"x_min":49,"x_max":181,"o":"m 49 129 l 181 129 l 181 0 q 153 -74 181 -49 q 79 -99 125 -99 l 79 -42 q 108 -31 100 -42 q 117 0 117 -19 l 49 0 l 49 129 z "},"„":{"ha":403,"x_min":49,"x_max":354,"o":"m 222 129 l 354 129 l 354 0 q 326 -74 354 -49 q 253 -99 299 -99 l 253 -42 q 282 -31 274 -42 q 290 0 290 -19 l 222 0 l 222 129 m 49 129 l 181 129 l 181 0 q 153 -74 181 -49 q 79 -99 125 -99 l 79 -42 q 108 -31 100 -42 q 117 0 117 -19 l 49 0 l 49 129 z "},"“":{"ha":403,"x_min":49,"x_max":354,"o":"m 181 836 l 49 836 l 49 965 q 76 1039 49 1014 q 150 1064 104 1064 l 150 1007 q 121 996 129 1007 q 113 965 113 985 l 181 965 l 181 836 m 354 836 l 222 836 l 222 965 q 250 1039 222 1014 q 324 1064 278 1064 l 324 1007 q 294 996 303 1007 q 286 965 286 985 l 354 965 l 354 836 z "},"”":{"ha":403,"x_min":49,"x_max":354,"o":"m 222 1042 l 354 1042 l 354 913 q 326 839 354 864 q 253 814 299 814 l 253 871 q 282 882 274 871 q 290 913 290 893 l 222 913 l 222 1042 m 49 1042 l 181 1042 l 181 913 q 153 839 181 864 q 79 814 125 814 l 79 871 q 108 882 100 871 q 117 913 117 893 l 49 913 l 49 1042 z "},"‘":{"ha":229,"x_min":49,"x_max":181,"o":"m 181 836 l 49 836 l 49 965 q 76 1039 49 1014 q 150 1064 104 1064 l 150 1007 q 121 996 129 1007 q 113 965 113 985 l 181 965 l 181 836 z "},"’":{"ha":229,"x_min":49,"x_max":181,"o":"m 49 1042 l 181 1042 l 181 913 q 153 839 181 864 q 79 814 125 814 l 79 871 q 108 882 100 871 q 117 913 117 893 l 49 913 l 49 1042 z "},"«":{"ha":654,"x_min":49,"x_max":599,"o":"m 247 701 l 361 701 l 163 385 l 361 68 l 247 68 l 49 385 l 247 701 m 485 701 l 599 701 l 400 385 l 599 68 l 485 68 l 286 385 l 485 701 z "},"»":{"ha":654,"x_min":56,"x_max":606,"o":"m 407 701 l 606 385 l 407 68 l 293 68 l 492 385 l 293 701 l 407 701 m 169 701 l 368 385 l 169 68 l 56 68 l 254 385 l 56 701 l 169 701 z "},"‹":{"ha":417,"x_min":49,"x_max":361,"o":"m 247 701 l 361 701 l 163 385 l 361 68 l 247 68 l 49 385 l 247 701 z "},"›":{"ha":417,"x_min":56,"x_max":368,"o":"m 169 701 l 368 385 l 169 68 l 56 68 l 254 385 l 56 701 l 169 701 z "},"\"":{"ha":403,"x_min":49,"x_max":354,"o":"m 222 1042 l 354 1042 l 354 913 q 326 839 354 864 q 253 814 299 814 l 253 871 q 282 882 274 871 q 290 913 290 893 l 222 913 l 222 1042 m 49 1042 l 181 1042 l 181 913 q 153 839 181 864 q 79 814 125 814 l 79 871 q 108 882 100 871 q 117 913 117 893 l 49 913 l 49 1042 z "},"'":{"ha":229,"x_min":49,"x_max":181,"o":"m 49 1042 l 181 1042 l 181 913 q 153 839 181 864 q 79 814 125 814 l 79 871 q 108 882 100 871 q 117 913 117 893 l 49 913 l 49 1042 z "},".":{"ha":221,"x_min":49,"x_max":172,"o":"m 49 129 l 172 129 l 172 0 l 49 0 l 49 129 z "},",":{"ha":229,"x_min":49,"x_max":181,"o":"m 49 129 l 181 129 l 181 0 q 153 -74 181 -49 q 79 -99 125 -99 l 79 -42 q 108 -31 100 -42 q 117 0 117 -19 l 49 0 l 49 129 z "},":":{"ha":235,"x_min":56,"x_max":179,"o":"m 56 129 l 179 129 l 179 0 l 56 0 l 56 129 m 56 778 l 179 778 l 179 649 l 56 649 l 56 778 z "},";":{"ha":243,"x_min":56,"x_max":188,"o":"m 86 -99 l 86 -42 q 115 -31 107 -42 q 124 0 124 -19 l 56 0 l 56 129 l 188 129 l 188 0 q 160 -74 188 -49 q 86 -99 132 -99 m 56 649 l 56 778 l 179 778 l 179 649 l 56 649 z "},"…":{"ha":749,"x_min":49,"x_max":700,"o":"m 313 129 l 436 129 l 436 0 l 313 0 l 313 129 m 576 129 l 700 129 l 700 0 l 576 0 l 576 129 m 49 129 l 172 129 l 172 0 l 49 0 l 49 129 z "},"!":{"ha":271,"x_min":74,"x_max":197,"o":"m 82 972 l 190 972 l 190 264 l 82 264 l 82 972 m 74 129 l 197 129 l 197 0 l 74 0 l 74 129 z "},"¡":{"ha":271,"x_min":74,"x_max":197,"o":"m 82 -194 l 82 514 l 190 514 l 190 -194 l 82 -194 m 74 649 l 74 778 l 197 778 l 197 649 l 74 649 z "},"?":{"ha":710,"x_min":35,"x_max":675,"o":"m 276 264 q 297 381 276 333 q 351 461 318 428 q 422 521 385 494 q 492 573 458 547 q 546 631 525 599 q 567 710 567 664 q 510 846 567 797 q 368 894 453 894 q 203 829 258 894 q 142 664 149 764 l 35 664 q 78 837 35 763 q 197 953 122 911 q 361 994 271 994 q 535 955 465 994 q 640 850 604 915 q 675 710 675 785 q 654 604 675 647 q 600 530 633 561 q 530 473 567 499 q 460 419 493 447 q 406 355 426 392 q 385 264 385 318 l 276 264 m 269 0 l 269 129 l 393 129 l 393 0 l 269 0 z "},"¿":{"ha":738,"x_min":49,"x_max":689,"o":"m 447 514 q 426 398 447 446 q 372 317 406 350 q 302 257 339 283 q 232 205 265 231 q 178 147 199 179 q 157 68 157 114 q 214 -68 157 -19 q 356 -117 271 -117 q 521 -51 465 -117 q 582 114 576 14 l 689 114 q 645 -58 689 17 q 527 -175 601 -133 q 363 -217 453 -217 q 188 -176 258 -217 q 83 -72 118 -136 q 49 68 49 -7 q 69 174 49 132 q 124 248 90 217 q 194 305 157 279 q 264 358 231 331 q 318 423 297 386 q 339 514 339 460 l 447 514 m 454 778 l 454 649 l 331 649 l 331 778 l 454 778 z "},"·":{"ha":221,"x_min":49,"x_max":172,"o":"m 49 453 l 172 453 l 172 324 l 49 324 l 49 453 z "},"•":{"ha":289,"x_min":49,"x_max":240,"o":"m 144 361 q 77 390 106 361 q 49 458 49 419 q 77 526 49 499 q 144 554 106 554 q 213 526 185 554 q 240 458 240 499 q 213 390 240 419 q 144 361 185 361 z "},"*":{"ha":533,"x_min":46,"x_max":488,"o":"m 360 621 l 243 806 l 267 824 l 290 840 l 431 672 l 360 621 m 174 621 l 103 672 l 243 840 l 267 824 l 290 806 l 174 621 m 257 796 l 46 850 l 72 932 l 275 851 l 267 824 l 257 796 m 238 824 l 224 1042 l 310 1042 l 296 824 l 267 824 l 238 824 m 276 796 l 267 824 l 258 851 l 461 932 l 488 850 l 276 796 z "},"#":{"ha":925,"x_min":35,"x_max":890,"o":"m 110 736 l 890 736 l 890 644 l 110 644 l 110 736 m 35 321 l 815 321 l 815 229 l 35 229 l 35 321 m 325 972 l 425 972 l 244 0 l 144 0 l 325 972 m 681 972 l 781 972 l 600 0 l 500 0 l 681 972 z "},"/":{"ha":454,"x_min":35,"x_max":419,"o":"m 313 972 l 419 972 l 142 0 l 35 0 l 313 972 z "},"\\":{"ha":454,"x_min":35,"x_max":419,"o":"m 142 972 l 419 0 l 313 0 l 35 972 l 142 972 z "},"฿":{"ha":846,"x_min":79,"x_max":804,"o":"m 335 1042 l 422 1042 l 422 -69 l 335 -69 l 335 1042 m 79 972 l 183 972 l 183 0 l 79 0 l 79 972 m 156 536 l 382 536 q 533 553 474 536 q 620 607 592 569 q 649 707 649 644 q 623 806 649 768 q 538 863 597 844 q 375 881 478 881 l 156 881 l 156 972 l 375 972 q 567 948 481 972 q 706 865 654 924 q 757 701 757 806 q 728 599 757 649 q 645 516 699 549 q 519 483 592 483 l 519 508 q 657 480 592 508 q 763 397 722 451 q 804 265 804 343 q 753 103 804 160 q 615 23 701 46 q 422 0 528 0 l 156 0 l 156 92 l 422 92 q 576 108 515 92 q 666 161 636 124 q 696 265 696 199 q 667 365 696 325 q 578 424 638 404 q 426 444 518 444 l 156 444 l 156 536 z "},"¢":{"ha":847,"x_min":42,"x_max":804,"o":"m 439 -22 q 229 30 318 -22 q 91 175 140 82 q 42 388 42 268 q 91 601 42 508 q 229 747 140 694 q 439 800 318 800 q 624 753 544 800 q 749 633 703 707 q 801 472 794 558 l 696 472 q 660 584 689 531 q 576 672 631 638 q 439 706 522 706 q 282 665 347 706 q 182 552 217 624 q 147 388 147 481 q 182 224 147 296 q 282 113 217 153 q 439 72 347 72 q 585 108 529 72 q 667 203 640 144 q 701 326 694 261 l 804 326 q 752 147 797 226 q 628 23 707 68 q 439 -22 549 -22 m 385 -69 l 385 847 l 472 847 l 472 -69 l 385 -69 z "},"¤":{"ha":589,"x_min":28,"x_max":561,"o":"m 296 239 q 197 265 242 239 q 126 336 153 292 q 100 435 100 381 q 126 534 100 490 q 197 603 153 578 q 294 629 240 629 q 394 603 350 629 q 464 533 438 576 q 490 433 490 489 q 465 335 490 379 q 395 265 439 292 q 296 239 351 239 m 93 167 l 28 232 l 143 347 l 208 282 l 93 167 m 143 519 l 28 635 l 93 700 l 208 585 l 143 519 m 294 328 q 372 360 343 328 q 400 436 400 393 q 373 508 400 478 q 297 539 346 539 q 219 508 249 539 q 189 433 189 476 q 218 360 189 392 q 294 328 247 328 m 496 167 l 381 282 l 446 347 l 561 232 l 496 167 m 446 519 l 381 585 l 496 700 l 561 635 l 446 519 z "},"$":{"ha":874,"x_min":56,"x_max":818,"o":"m 440 6 q 235 47 319 6 q 104 159 150 88 q 56 319 58 231 l 168 319 q 240 162 175 218 q 447 106 304 106 q 651 149 592 106 q 710 263 710 193 q 674 346 710 315 q 581 394 639 376 q 455 424 524 411 q 317 452 386 436 q 190 496 247 468 q 97 571 132 524 q 61 694 61 618 q 99 828 61 767 q 220 926 138 889 q 436 963 303 963 q 631 923 550 963 q 757 813 713 883 q 801 650 801 743 l 689 650 q 663 767 686 719 q 585 838 639 814 q 431 863 531 863 q 276 843 333 863 q 194 789 218 824 q 169 708 169 754 q 205 618 169 651 q 298 566 240 585 q 425 534 356 547 q 563 506 494 521 q 690 464 632 490 q 783 391 747 438 q 818 269 818 344 q 723 75 818 144 q 440 6 628 6 m 383 -85 l 383 1042 l 481 1042 l 481 -85 l 383 -85 z "},"€":{"ha":1113,"x_min":39,"x_max":1067,"o":"m 622 -22 q 360 47 468 -22 q 197 231 253 115 q 142 488 142 346 q 173 684 142 592 q 265 846 204 776 q 416 955 326 915 q 622 994 506 994 q 928 891 818 994 q 1061 613 1039 788 l 951 613 q 925 709 944 660 q 868 801 906 758 q 771 869 831 843 q 622 894 711 894 q 417 838 500 894 q 292 690 333 782 q 250 488 250 597 q 292 283 250 376 q 417 134 333 190 q 622 78 500 78 q 780 107 717 78 q 881 183 843 136 q 938 286 919 231 q 960 396 956 342 l 1067 396 q 1003 176 1057 271 q 855 30 950 82 q 622 -22 760 -22 m 39 318 l 39 410 l 560 410 l 560 318 l 39 318 m 39 521 l 39 613 l 560 613 l 560 521 l 39 521 z "},"₴":{"ha":971,"x_min":56,"x_max":915,"o":"m 56 651 l 915 651 l 915 560 l 56 560 l 56 651 m 56 424 l 915 424 l 915 332 l 56 332 l 56 424 m 736 628 q 757 663 750 643 q 764 708 764 683 q 697 844 764 794 q 496 894 629 894 q 311 846 375 894 q 232 707 247 797 l 115 707 q 178 858 126 793 q 312 958 231 922 q 489 994 393 994 q 693 956 607 994 q 826 851 779 917 q 872 708 872 786 q 860 626 872 663 l 736 628 m 272 375 q 224 333 242 358 q 206 268 206 307 q 279 133 206 183 q 475 83 353 83 q 664 133 585 83 q 763 276 743 183 l 879 276 q 813 126 867 192 q 674 22 758 60 q 483 -17 589 -17 q 200 58 303 -17 q 97 268 97 132 q 103 326 97 300 q 119 374 110 351 l 272 375 z "},"₽":{"ha":983,"x_min":72,"x_max":929,"o":"m 197 972 l 301 972 l 301 0 l 197 0 l 197 972 m 72 453 l 506 453 l 506 361 l 72 361 l 72 453 m 506 453 q 677 472 607 453 q 784 538 747 490 q 821 668 821 585 q 784 798 821 751 q 677 863 747 844 q 506 881 607 881 l 506 972 q 734 943 639 972 q 879 847 829 914 q 929 668 929 781 q 879 489 929 557 q 734 391 829 421 q 506 361 639 361 l 506 453 m 274 972 l 506 972 l 506 881 l 274 881 l 274 972 m 72 264 l 506 264 l 506 172 l 72 172 l 72 264 z "},"₹":{"ha":789,"x_min":54,"x_max":710,"o":"m 189 361 l 189 453 q 423 498 342 453 q 504 668 504 543 q 467 798 504 751 q 360 863 431 844 q 189 881 290 881 l 189 944 q 367 933 289 944 q 501 890 446 921 q 584 806 556 860 q 613 668 613 751 q 562 489 613 557 q 417 391 511 421 q 189 361 322 361 m 54 361 l 54 453 l 189 453 l 189 361 l 54 361 m 465 0 l 54 361 l 54 383 l 158 390 l 619 0 l 465 0 m 54 621 l 54 713 l 710 713 l 710 621 l 54 621 m 54 881 l 54 972 l 710 972 l 710 881 l 54 881 z "},"₪":{"ha":893,"x_min":79,"x_max":814,"o":"m 500 247 l 500 796 q 483 856 500 833 q 431 878 465 878 l 117 878 l 117 972 l 449 972 q 523 955 488 972 q 581 899 558 938 q 604 797 604 861 l 604 247 l 500 247 m 79 0 l 79 972 l 183 972 l 183 0 l 79 0 m 444 0 q 371 17 407 0 q 312 74 335 35 q 289 175 289 113 l 289 725 l 393 725 l 393 176 q 410 117 393 139 q 463 94 428 94 l 776 94 l 776 0 l 444 0 m 710 0 l 710 972 l 814 972 l 814 0 l 710 0 z "},"£":{"ha":813,"x_min":85,"x_max":733,"o":"m 185 32 l 100 65 q 185 185 149 121 q 222 308 222 249 q 205 414 222 368 q 165 503 188 460 q 124 594 142 546 q 107 710 107 643 q 142 850 107 785 q 247 955 176 915 q 421 994 317 994 q 582 953 511 994 q 693 837 653 911 q 733 664 733 763 l 626 664 q 572 829 621 764 q 414 894 524 894 q 272 846 329 894 q 215 710 215 797 q 233 616 215 663 q 272 522 250 569 q 312 422 294 474 q 329 310 329 369 q 293 165 329 229 q 185 32 257 101 m 99 0 l 99 65 l 201 94 l 722 94 l 722 0 l 99 0 m 85 419 l 85 511 l 606 511 l 606 419 l 85 419 z "},"₩":{"ha":1357,"x_min":49,"x_max":1308,"o":"m 335 0 l 83 972 l 192 972 l 429 0 l 335 0 m 468 0 l 374 0 l 611 972 l 719 972 l 468 0 m 889 0 l 638 972 l 746 972 l 983 0 l 889 0 m 1022 0 l 928 0 l 1165 972 l 1274 972 l 1022 0 m 49 672 l 1308 672 l 1308 581 l 49 581 l 49 672 m 49 403 l 1308 403 l 1308 311 l 49 311 l 49 403 z "},"¥":{"ha":829,"x_min":49,"x_max":781,"o":"m 382 526 l 49 972 l 171 972 l 433 631 l 397 631 l 658 972 l 781 972 l 447 526 l 382 526 m 363 647 l 467 647 l 467 0 l 363 0 l 363 647 m 154 613 l 675 613 l 675 521 l 154 521 l 154 613 m 154 410 l 675 410 l 675 318 l 154 318 l 154 410 z "},"+":{"ha":807,"x_min":64,"x_max":744,"o":"m 64 560 l 744 560 l 744 468 l 64 468 l 64 560 m 449 854 l 449 174 l 358 174 l 358 854 l 449 854 z "},"−":{"ha":750,"x_min":63,"x_max":688,"o":"m 63 560 l 688 560 l 688 468 l 63 468 l 63 560 z "},"×":{"ha":847,"x_min":149,"x_max":697,"o":"m 214 789 l 697 306 l 631 240 l 149 721 l 214 789 m 697 722 l 215 240 l 149 306 l 631 788 l 697 722 z "},"÷":{"ha":807,"x_min":64,"x_max":744,"o":"m 64 560 l 744 560 l 744 468 l 64 468 l 64 560 m 403 668 q 353 689 374 668 q 332 739 332 710 q 353 790 332 768 q 403 811 374 811 q 453 790 432 811 q 475 739 475 768 q 453 689 475 710 q 403 668 432 668 m 403 217 q 353 238 374 217 q 332 288 332 258 q 353 339 332 318 q 403 360 374 360 q 454 339 433 360 q 475 288 475 318 q 454 238 475 258 q 403 217 433 217 z "},"=":{"ha":807,"x_min":64,"x_max":744,"o":"m 64 700 l 744 700 l 744 608 l 64 608 l 64 700 m 64 422 l 744 422 l 744 331 l 64 331 l 64 422 z "},"≠":{"ha":807,"x_min":64,"x_max":744,"o":"m 443 849 l 543 849 l 351 179 l 251 179 l 443 849 m 64 700 l 744 700 l 744 608 l 64 608 l 64 700 m 64 422 l 744 422 l 744 331 l 64 331 l 64 422 z "},">":{"ha":889,"x_min":61,"x_max":839,"o":"m 61 200 l 61 303 l 763 519 l 763 511 l 61 726 l 61 829 l 839 579 l 839 450 l 61 200 z "},"<":{"ha":882,"x_min":50,"x_max":828,"o":"m 828 200 l 50 450 l 50 579 l 828 829 l 828 726 l 126 511 l 126 519 l 828 303 l 828 200 z "},"≥":{"ha":896,"x_min":63,"x_max":840,"o":"m 64 228 l 840 228 l 840 142 l 64 142 l 64 228 m 63 332 l 63 438 l 840 576 l 840 485 l 63 332 m 63 836 l 840 614 l 840 518 l 63 726 l 63 836 z "},"≤":{"ha":896,"x_min":56,"x_max":833,"o":"m 832 228 l 832 142 l 56 142 l 56 228 l 832 228 m 833 332 l 56 485 l 56 576 l 833 438 l 833 332 m 833 836 l 833 726 l 56 518 l 56 614 l 833 836 z "},"±":{"ha":904,"x_min":64,"x_max":840,"o":"m 840 232 l 840 140 l 64 140 l 64 232 l 840 232 m 64 632 l 840 632 l 840 543 l 64 543 l 64 632 m 497 854 l 497 319 l 406 319 l 406 854 l 497 854 z "},"≈":{"ha":756,"x_min":63,"x_max":693,"o":"m 243 386 q 179 360 200 386 q 158 278 158 333 l 63 278 q 88 401 63 358 q 151 459 113 443 q 232 475 190 475 q 319 458 281 475 q 392 419 358 442 q 455 379 425 396 q 514 363 485 363 q 581 392 564 363 q 597 469 597 422 l 693 469 q 678 370 693 410 q 638 309 663 331 q 582 278 613 288 q 522 269 551 269 q 436 287 475 269 q 365 328 397 304 q 302 369 332 351 q 243 386 272 386 m 243 678 q 179 651 200 678 q 158 569 158 625 l 63 569 q 88 692 63 650 q 151 751 113 735 q 232 767 190 767 q 319 750 281 767 q 392 710 358 733 q 455 671 425 688 q 514 654 485 654 q 581 684 564 654 q 597 761 597 714 l 693 761 q 678 662 693 701 q 638 601 663 622 q 582 570 613 579 q 522 561 551 561 q 436 578 475 561 q 365 619 397 596 q 302 660 332 643 q 243 678 272 678 z "},"~":{"ha":756,"x_min":63,"x_max":693,"o":"m 243 468 q 179 442 200 468 q 158 360 158 415 l 63 360 q 88 483 63 440 q 151 541 113 525 q 232 557 190 557 q 319 540 281 557 q 392 501 358 524 q 455 461 425 478 q 514 444 485 444 q 581 474 564 444 q 597 551 597 504 l 693 551 q 678 452 693 492 q 638 391 663 413 q 582 360 613 369 q 522 351 551 351 q 436 369 475 351 q 365 410 397 386 q 302 451 332 433 q 243 468 272 468 z "},"¬":{"ha":807,"x_min":63,"x_max":743,"o":"m 63 557 l 743 557 l 743 465 l 63 465 l 63 557 m 651 233 l 651 532 l 743 532 l 743 233 l 651 233 z "},"^":{"ha":524,"x_min":49,"x_max":475,"o":"m 49 506 l 204 972 l 292 972 l 153 506 l 49 506 m 371 506 l 232 972 l 319 972 l 475 506 l 371 506 z "},"∞":{"ha":1178,"x_min":49,"x_max":1129,"o":"m 332 228 q 185 263 249 228 q 85 363 121 299 q 49 513 49 428 q 85 663 49 599 q 185 764 121 728 q 332 800 249 800 q 458 769 403 800 q 552 690 513 738 q 614 590 592 642 l 564 590 q 626 690 588 642 q 721 769 665 738 q 847 800 776 800 q 994 764 931 800 q 1093 663 1057 728 q 1129 513 1129 599 q 1094 363 1129 428 q 995 263 1058 299 q 850 228 932 228 q 722 259 778 228 q 626 338 665 290 q 564 435 588 385 l 614 435 q 552 338 592 385 q 458 259 513 290 q 332 228 403 228 m 335 322 q 450 358 403 322 q 526 448 497 394 q 567 554 554 501 l 565 471 q 525 579 554 525 q 449 669 496 633 q 335 706 403 706 q 206 653 254 706 q 157 513 157 600 q 206 374 157 426 q 335 322 254 322 m 843 322 q 972 374 924 322 q 1021 513 1021 426 q 972 653 1021 600 q 843 706 924 706 q 729 669 776 706 q 653 579 682 633 q 613 471 625 525 l 611 554 q 652 448 624 501 q 728 358 681 394 q 843 322 775 322 z "},"∫":{"ha":532,"x_min":28,"x_max":504,"o":"m 214 656 q 222 780 214 722 q 254 881 229 838 q 330 948 279 924 q 467 972 381 972 l 504 972 l 504 893 l 467 893 q 372 869 403 893 q 330 792 340 844 q 319 656 319 740 l 319 206 q 312 81 319 139 q 278 -19 304 24 q 202 -87 253 -62 q 65 -111 151 -111 l 28 -111 l 28 -32 l 65 -32 q 161 -8 129 -32 q 203 69 193 17 q 214 206 214 121 l 214 656 z "},"∏":{"ha":888,"x_min":35,"x_max":853,"o":"m 215 972 l 319 972 l 319 0 l 215 0 l 215 972 m 568 972 l 672 972 l 672 0 l 568 0 l 568 972 m 35 972 l 853 972 l 853 881 l 35 881 l 35 972 z "},"∑":{"ha":826,"x_min":79,"x_max":761,"o":"m 79 972 l 756 972 l 756 878 l 108 878 l 133 951 l 440 508 l 440 463 l 135 21 l 110 94 l 761 94 l 761 0 l 79 0 l 79 106 l 378 542 l 378 431 l 79 865 l 79 972 z "},"√":{"ha":817,"x_min":32,"x_max":792,"o":"m 32 778 l 143 778 l 358 0 l 268 0 l 32 778 m 606 972 l 393 0 l 306 0 l 490 972 l 606 972 m 515 972 l 792 972 l 792 878 l 515 878 l 515 972 z "},"∂":{"ha":844,"x_min":42,"x_max":771,"o":"m 392 -22 q 210 28 289 -22 q 86 166 131 78 q 42 367 42 254 q 86 569 42 481 q 210 708 131 657 q 392 758 289 758 q 561 708 482 758 q 683 557 640 658 l 661 564 q 533 842 631 738 q 250 951 435 947 l 250 1042 q 492 990 392 1042 q 653 849 592 939 q 742 642 714 758 q 771 394 771 525 q 722 172 771 265 q 588 28 674 78 q 392 -22 503 -22 m 399 72 q 549 110 489 72 q 639 215 608 149 q 669 367 669 282 q 639 520 669 453 q 549 626 608 588 q 399 664 489 664 q 268 628 325 664 q 179 526 211 593 q 147 367 147 460 q 179 209 147 275 q 268 108 211 143 q 399 72 325 72 z "},"%":{"ha":1278,"x_min":49,"x_max":1229,"o":"m 853 972 l 969 972 l 428 0 l 311 0 l 853 972 m 296 385 q 156 426 211 385 q 75 536 101 467 q 49 690 49 606 q 75 844 49 775 q 156 953 101 913 q 296 994 211 994 q 435 953 381 994 q 515 844 489 913 q 542 690 542 775 q 515 536 542 606 q 435 426 489 467 q 296 385 381 385 m 296 475 q 400 537 363 475 q 438 690 438 599 q 400 842 438 781 q 296 904 363 904 q 190 842 228 904 q 153 690 153 781 q 190 537 153 599 q 296 475 228 475 m 983 -22 q 844 19 899 -22 q 763 129 789 60 q 736 283 736 199 q 763 437 736 368 q 844 547 789 506 q 983 588 899 588 q 1122 547 1068 588 q 1203 437 1176 506 q 1229 283 1229 368 q 1203 129 1229 199 q 1122 19 1176 60 q 983 -22 1068 -22 m 983 68 q 1088 130 1050 68 q 1125 283 1125 192 q 1088 435 1125 374 q 983 497 1050 497 q 878 435 915 497 q 840 283 840 374 q 878 130 840 192 q 983 68 915 68 z "},"‰":{"ha":1833,"x_min":49,"x_max":1785,"o":"m 1539 -22 q 1399 19 1454 -22 q 1318 129 1344 60 q 1292 283 1292 199 q 1318 437 1292 368 q 1399 547 1344 506 q 1539 588 1454 588 q 1678 547 1624 588 q 1758 437 1732 506 q 1785 283 1785 368 q 1758 129 1785 199 q 1678 19 1732 60 q 1539 -22 1624 -22 m 1539 68 q 1643 130 1606 68 q 1681 283 1681 192 q 1643 435 1681 374 q 1539 497 1606 497 q 1433 435 1471 497 q 1396 283 1396 374 q 1433 130 1396 192 q 1539 68 1471 68 m 853 972 l 969 972 l 428 0 l 311 0 l 853 972 m 296 385 q 156 426 211 385 q 75 536 101 467 q 49 690 49 606 q 75 844 49 775 q 156 953 101 913 q 296 994 211 994 q 435 953 381 994 q 515 844 489 913 q 542 690 542 775 q 515 536 542 606 q 435 426 489 467 q 296 385 381 385 m 296 475 q 400 537 363 475 q 438 690 438 599 q 400 842 438 781 q 296 904 363 904 q 190 842 228 904 q 153 690 153 781 q 190 537 153 599 q 296 475 228 475 m 983 -22 q 844 19 899 -22 q 763 129 789 60 q 736 283 736 199 q 763 437 736 368 q 844 547 789 506 q 983 588 899 588 q 1122 547 1068 588 q 1203 437 1176 506 q 1229 283 1229 368 q 1203 129 1229 199 q 1122 19 1176 60 q 983 -22 1068 -22 m 983 68 q 1088 130 1050 68 q 1125 283 1125 192 q 1088 435 1125 374 q 983 497 1050 497 q 878 435 915 497 q 840 283 840 374 q 878 130 840 192 q 983 68 915 68 z "},"↑":{"ha":856,"x_min":63,"x_max":793,"o":"m 428 994 l 793 629 l 729 565 l 435 860 l 479 878 l 479 0 l 376 0 l 376 878 l 421 860 l 126 565 l 63 629 l 428 994 z "},"↗":{"ha":864,"x_min":61,"x_max":799,"o":"m 282 971 l 799 971 l 799 454 l 708 454 l 708 869 l 753 851 l 133 232 l 61 304 l 682 925 l 700 881 l 282 881 l 282 971 z "},"→":{"ha":1118,"x_min":63,"x_max":1057,"o":"m 1057 474 l 692 108 l 628 172 l 922 467 l 940 422 l 63 422 l 63 525 l 940 525 l 922 481 l 628 775 l 692 839 l 1057 474 z "},"↘":{"ha":863,"x_min":63,"x_max":800,"o":"m 283 0 l 283 90 l 701 90 l 683 46 l 63 667 l 135 739 l 754 119 l 710 101 l 710 517 l 800 517 l 800 0 l 283 0 z "},"↓":{"ha":856,"x_min":63,"x_max":793,"o":"m 428 -1 l 63 364 l 126 428 l 421 133 l 376 115 l 376 993 l 479 993 l 479 115 l 435 133 l 729 428 l 793 364 l 428 -1 z "},"↙":{"ha":863,"x_min":63,"x_max":800,"o":"m 579 0 l 63 0 l 63 517 l 153 517 l 153 101 l 108 119 l 728 739 l 800 667 l 179 46 l 161 90 l 579 90 l 579 0 z "},"←":{"ha":1118,"x_min":63,"x_max":1057,"o":"m 63 475 l 428 840 l 492 776 l 197 482 l 179 526 l 1057 526 l 1057 424 l 179 424 l 197 468 l 492 174 l 428 110 l 63 475 z "},"↖":{"ha":864,"x_min":63,"x_max":800,"o":"m 579 971 l 579 881 l 161 881 l 179 925 l 800 304 l 728 232 l 108 851 l 153 869 l 153 454 l 63 454 l 63 971 l 579 971 z "},"↔":{"ha":1238,"x_min":63,"x_max":1175,"o":"m 428 111 l 63 476 l 428 842 l 492 778 l 242 528 l 996 528 l 746 778 l 810 842 l 1175 476 l 810 111 l 746 175 l 996 425 l 242 425 l 492 175 l 428 111 z "},"↕":{"ha":856,"x_min":63,"x_max":793,"o":"m 428 -22 l 63 343 l 126 407 l 376 157 l 376 815 l 126 565 l 63 629 l 428 994 l 793 629 l 729 565 l 479 815 l 479 157 l 729 407 l 793 343 l 428 -22 z "},"@":{"ha":1143,"x_min":46,"x_max":1097,"o":"m 571 -89 q 353 -49 450 -89 q 188 61 257 -10 q 83 226 119 132 q 46 431 46 321 q 83 634 46 539 q 188 801 119 729 q 353 915 257 874 q 571 956 450 956 q 787 915 690 956 q 953 801 883 874 q 1060 634 1022 729 q 1097 431 1097 539 q 1068 281 1097 340 q 991 193 1039 222 q 885 164 943 164 q 794 185 836 164 q 725 251 751 206 q 699 371 699 297 l 699 685 l 799 685 l 799 375 q 822 286 799 314 q 889 258 846 258 q 935 269 911 258 q 975 317 958 281 q 992 431 992 354 q 962 594 992 517 q 876 731 932 671 q 743 826 821 792 q 571 861 665 861 q 399 826 475 861 q 268 731 322 792 q 185 594 214 671 q 157 431 157 517 q 208 219 157 317 q 351 64 258 122 q 571 6 444 6 q 715 31 650 6 q 838 93 781 56 l 900 22 q 808 -37 858 -12 q 698 -76 757 -62 q 571 -89 639 -89 m 532 164 q 408 198 464 164 q 320 292 353 232 q 288 431 288 351 q 320 572 288 511 q 408 667 353 632 q 531 701 464 701 q 643 672 597 701 q 704 600 689 643 l 721 282 q 688 229 714 257 q 621 183 661 201 q 532 164 581 164 m 549 254 q 658 302 617 254 q 699 431 699 350 q 658 560 699 513 q 549 608 617 608 q 433 558 474 608 q 393 431 393 508 q 433 304 393 354 q 549 254 474 254 z "},"&":{"ha":918,"x_min":42,"x_max":883,"o":"m 767 699 l 767 0 l 663 0 l 663 699 l 767 699 m 883 536 l 883 444 l 419 444 q 268 424 328 444 q 179 365 208 404 q 150 265 150 325 q 180 158 150 199 q 270 97 210 117 q 424 78 331 78 l 690 78 l 690 0 l 424 0 q 231 23 318 0 q 93 103 144 46 q 42 265 42 160 q 83 397 42 343 q 189 480 124 451 q 326 508 254 508 l 326 483 q 201 516 254 483 q 118 599 147 549 q 89 701 89 649 q 140 865 89 806 q 278 948 192 924 q 471 972 365 972 l 663 972 l 663 881 l 471 881 q 309 863 369 881 q 223 806 249 844 q 197 707 197 768 q 226 607 197 644 q 314 553 254 569 q 464 536 374 536 l 883 536 z "},"¶":{"ha":806,"x_min":54,"x_max":726,"o":"m 372 513 q 138 565 222 513 q 54 743 54 617 q 138 921 54 869 q 372 972 222 972 l 372 903 l 372 582 l 372 513 m 372 -278 l 372 972 l 476 972 l 476 -278 l 372 -278 m 553 -278 l 553 972 l 657 972 l 657 -278 l 553 -278 m 406 881 l 406 972 l 726 972 l 726 881 l 406 881 z "},"§":{"ha":719,"x_min":42,"x_max":678,"o":"m 468 276 q 527 306 503 288 q 565 352 551 325 q 578 414 578 379 q 549 480 578 457 q 474 515 521 503 q 371 535 426 526 q 259 555 315 543 q 156 589 203 567 q 80 651 108 611 q 51 758 51 692 q 89 875 51 821 q 197 962 126 929 q 361 994 267 994 q 515 961 446 994 q 624 867 583 928 q 665 728 665 807 l 578 728 q 509 861 572 814 q 356 908 446 908 q 203 866 254 908 q 151 758 151 824 q 180 688 151 713 q 256 650 208 663 q 359 630 303 638 q 471 611 415 622 q 574 579 526 600 q 649 519 621 558 q 678 414 678 479 q 647 296 678 346 q 556 217 615 246 l 468 276 m 249 601 q 176 548 201 583 q 151 468 151 513 q 180 397 151 422 q 256 360 208 372 q 359 340 303 347 q 471 321 415 332 q 574 289 526 310 q 649 228 621 268 q 678 124 678 189 q 640 -3 678 50 q 533 -84 603 -56 q 365 -112 464 -112 q 201 -77 274 -112 q 87 19 129 -42 q 42 156 44 79 l 138 156 q 210 22 144 69 q 372 -26 276 -26 q 522 11 467 -26 q 578 124 578 49 q 549 190 578 167 q 474 224 521 213 q 371 244 426 236 q 259 265 315 253 q 156 299 203 276 q 80 361 108 321 q 51 468 51 401 q 79 569 51 521 q 158 650 107 617 l 249 601 z "},"©":{"ha":1108,"x_min":46,"x_max":1063,"o":"m 554 -22 q 352 16 444 -22 q 191 124 260 54 q 84 285 122 193 q 46 486 46 378 q 84 687 46 594 q 191 849 122 779 q 352 956 260 918 q 554 994 444 994 q 756 956 664 994 q 917 849 849 918 q 1024 687 986 779 q 1063 486 1063 594 q 1024 285 1063 378 q 917 124 986 193 q 756 16 849 54 q 554 -22 664 -22 m 554 69 q 715 101 640 69 q 844 189 789 132 q 931 322 900 246 q 963 486 963 397 q 931 651 963 575 q 844 783 900 726 q 715 872 789 840 q 554 903 640 903 q 394 872 468 903 q 264 783 319 840 q 177 651 208 726 q 146 486 146 575 q 177 322 146 397 q 264 189 208 246 q 394 101 319 132 q 554 69 468 69 m 826 440 q 749 254 819 328 q 556 181 678 181 q 401 219 467 181 q 298 327 335 258 q 261 485 261 396 q 298 644 261 575 q 401 753 335 714 q 556 792 467 792 q 693 757 635 792 q 786 667 751 722 q 825 549 821 613 l 718 549 q 674 649 711 606 q 556 693 638 693 q 415 638 463 693 q 367 485 367 583 q 415 333 367 388 q 556 279 463 279 q 651 301 617 279 q 701 360 685 324 q 722 440 718 397 l 826 440 z "},"®":{"ha":1108,"x_min":46,"x_max":1063,"o":"m 554 -22 q 352 16 444 -22 q 191 124 260 54 q 84 285 122 193 q 46 486 46 378 q 84 687 46 594 q 191 849 122 779 q 352 956 260 918 q 554 994 444 994 q 756 956 664 994 q 917 849 849 918 q 1024 687 986 779 q 1063 486 1063 594 q 1024 285 1063 378 q 917 124 986 193 q 756 16 849 54 q 554 -22 664 -22 m 554 69 q 715 101 640 69 q 844 189 789 132 q 931 322 900 246 q 963 486 963 397 q 931 651 963 575 q 844 783 900 726 q 715 872 789 840 q 554 903 640 903 q 394 872 468 903 q 264 783 319 840 q 177 651 208 726 q 146 486 146 575 q 177 322 146 397 q 264 189 208 246 q 394 101 319 132 q 554 69 468 69 m 347 201 l 347 779 l 539 779 q 731 732 665 779 q 797 590 797 685 q 756 468 797 513 q 632 410 714 424 l 651 478 l 785 201 l 665 201 l 576 401 l 451 401 l 451 201 l 347 201 m 451 496 l 539 496 q 647 514 608 496 q 686 594 686 532 q 647 666 686 647 q 539 685 608 685 l 451 685 l 451 496 z "},"™":{"ha":1017,"x_min":49,"x_max":961,"o":"m 199 972 l 283 972 l 283 456 l 199 456 l 199 972 m 49 972 l 433 972 l 433 894 l 49 894 l 49 972 m 665 456 l 496 972 l 581 972 l 747 456 l 665 456 m 771 456 l 690 456 l 856 972 l 942 972 l 771 456 m 475 972 l 554 972 l 554 456 l 475 456 l 475 972 m 882 972 l 961 972 l 961 456 l 882 456 l 882 972 z "},"°":{"ha":489,"x_min":49,"x_max":440,"o":"m 244 604 q 147 631 192 604 q 75 701 101 657 q 49 799 49 746 q 75 897 49 853 q 147 968 101 942 q 244 994 192 994 q 343 968 299 994 q 414 897 388 942 q 440 799 440 853 q 414 701 440 746 q 343 631 388 657 q 244 604 299 604 m 244 693 q 319 724 289 693 q 349 799 349 756 q 319 874 349 843 q 244 906 289 906 q 170 874 200 906 q 140 799 140 843 q 170 724 140 756 q 244 693 200 693 z "},"|":{"ha":260,"x_min":79,"x_max":181,"o":"m 79 1042 l 181 1042 l 181 -69 l 79 -69 l 79 1042 z "},"¦":{"ha":260,"x_min":79,"x_max":181,"o":"m 79 597 l 79 1042 l 181 1042 l 181 597 l 79 597 m 181 375 l 181 -69 l 79 -69 l 79 375 l 181 375 z "},"†":{"ha":588,"x_min":28,"x_max":560,"o":"m 243 1042 l 344 1042 l 344 -69 l 243 -69 l 243 1042 m 28 757 l 560 757 l 560 665 l 28 665 l 28 757 z "},"‡":{"ha":588,"x_min":28,"x_max":560,"o":"m 243 1042 l 344 1042 l 344 -69 l 243 -69 l 243 1042 m 28 743 l 560 743 l 560 651 l 28 651 l 28 743 m 28 349 l 560 349 l 560 257 l 28 257 l 28 349 z "},"̈":{"ha":0,"x_min":35,"x_max":388,"o":"m 35 1036 l 161 1036 l 161 906 l 35 906 l 35 1036 m 261 1036 l 388 1036 l 388 906 l 261 906 l 261 1036 z "},"̇":{"ha":0,"x_min":35,"x_max":163,"o":"m 35 1032 l 163 1032 l 163 904 l 35 904 l 35 1032 z "},"̀":{"ha":0,"x_min":-1,"x_max":207,"o":"m 128 875 l -1 1056 l 138 1056 l 207 875 l 128 875 z "},"́":{"ha":0,"x_min":86,"x_max":294,"o":"m 294 1056 l 165 875 l 86 875 l 156 1056 l 294 1056 z "},"̋":{"ha":0,"x_min":35,"x_max":407,"o":"m 215 1056 l 114 875 l 35 875 l 76 1056 l 215 1056 m 407 1056 l 306 875 l 226 875 l 268 1056 l 407 1056 z "},"̂":{"ha":0,"x_min":-7,"x_max":388,"o":"m 246 1056 l 388 875 l 276 875 l 156 1033 l 225 1033 l 104 875 l -7 875 l 135 1056 l 246 1056 z "},"̌":{"ha":0,"x_min":-7,"x_max":388,"o":"m 135 885 l -7 1065 l 104 1065 l 225 907 l 156 907 l 276 1065 l 388 1065 l 246 885 l 135 885 z "},"̆":{"ha":0,"x_min":7,"x_max":392,"o":"m 392 1047 q 331 926 383 968 q 200 883 278 883 q 69 926 122 883 q 7 1047 15 968 l 108 1047 q 200 968 118 968 q 263 987 240 968 q 292 1047 286 1006 l 392 1047 z "},"̊":{"ha":0,"x_min":26,"x_max":271,"o":"m 149 871 q 63 906 99 871 q 26 992 26 942 q 63 1076 26 1040 q 149 1111 99 1111 q 235 1076 199 1111 q 271 992 271 1040 q 235 906 271 942 q 149 871 199 871 m 149 935 q 187 952 172 935 q 201 992 201 969 q 187 1031 201 1014 q 149 1047 172 1047 q 111 1031 126 1047 q 96 992 96 1014 q 111 952 96 969 q 149 935 126 935 z "},"̃":{"ha":0,"x_min":28,"x_max":417,"o":"m 147 949 q 116 933 126 949 q 106 893 106 917 l 28 893 q 46 973 28 943 q 90 1015 64 1003 q 143 1028 117 1028 q 209 1011 183 1028 q 256 977 235 994 q 300 960 276 960 q 331 976 322 960 q 340 1015 340 992 l 417 1015 q 399 935 417 965 q 357 891 382 904 q 306 878 332 878 q 245 895 272 878 q 194 931 218 913 q 147 949 171 949 z "},"̄":{"ha":0,"x_min":78,"x_max":460,"o":"m 78 1013 l 460 1013 l 460 926 l 78 926 l 78 1013 z "},"̒":{"ha":0,"x_min":49,"x_max":181,"o":"m 150 1101 l 150 1044 q 121 1033 129 1044 q 113 1003 113 1022 l 181 1003 l 181 874 l 49 874 l 49 1003 q 76 1076 49 1051 q 150 1101 104 1101 z "},"̦":{"ha":0,"x_min":49,"x_max":181,"o":"m 79 -293 l 79 -236 q 108 -225 100 -236 q 117 -194 117 -214 l 49 -194 l 49 -65 l 181 -65 l 181 -194 q 153 -268 181 -243 q 79 -293 125 -293 z "},"̧":{"ha":0,"x_min":28,"x_max":289,"o":"m 60 56 l 147 56 l 147 -124 l 60 -124 l 60 56 m 128 -124 l 128 -49 q 250 -76 211 -49 q 289 -162 289 -104 q 252 -250 289 -222 q 144 -278 215 -278 l 28 -278 l 28 -203 l 128 -203 q 183 -197 160 -203 q 206 -162 206 -192 q 183 -128 206 -133 q 128 -124 160 -124 z "},"̨":{"ha":0,"x_min":44,"x_max":276,"o":"m 269 0 q 211 -23 243 -8 q 156 -60 179 -37 q 132 -117 132 -83 q 150 -163 132 -147 q 193 -184 168 -179 q 238 -189 218 -189 l 276 -189 l 276 -278 l 235 -278 q 95 -240 146 -278 q 44 -144 44 -203 q 89 -36 44 -78 q 206 49 133 6 l 269 0 z "},"¨":{"ha":422,"x_min":35,"x_max":388,"o":"m 35 1036 l 161 1036 l 161 906 l 35 906 l 35 1036 m 261 1036 l 388 1036 l 388 906 l 261 906 l 261 1036 z "},"˙":{"ha":197,"x_min":35,"x_max":163,"o":"m 35 1032 l 163 1032 l 163 904 l 35 904 l 35 1032 z "},"`":{"ha":250,"x_min":-1,"x_max":207,"o":"m 128 875 l -1 1056 l 138 1056 l 207 875 l 128 875 z "},"´":{"ha":250,"x_min":86,"x_max":294,"o":"m 294 1056 l 165 875 l 86 875 l 156 1056 l 294 1056 z "},"˝":{"ha":442,"x_min":35,"x_max":407,"o":"m 215 1056 l 114 875 l 35 875 l 76 1056 l 215 1056 m 407 1056 l 306 875 l 226 875 l 268 1056 l 407 1056 z "},"ˆ":{"ha":381,"x_min":-7,"x_max":388,"o":"m 246 1056 l 388 875 l 276 875 l 156 1033 l 225 1033 l 104 875 l -7 875 l 135 1056 l 246 1056 z "},"ˇ":{"ha":381,"x_min":-7,"x_max":388,"o":"m 135 885 l -7 1065 l 104 1065 l 225 907 l 156 907 l 276 1065 l 388 1065 l 246 885 l 135 885 z "},"˘":{"ha":397,"x_min":7,"x_max":392,"o":"m 392 1047 q 331 926 383 968 q 200 883 278 883 q 69 926 122 883 q 7 1047 15 968 l 108 1047 q 200 968 118 968 q 263 987 240 968 q 292 1047 286 1006 l 392 1047 z "},"˚":{"ha":297,"x_min":26,"x_max":271,"o":"m 149 871 q 63 906 99 871 q 26 992 26 942 q 63 1076 26 1040 q 149 1111 99 1111 q 235 1076 199 1111 q 271 992 271 1040 q 235 906 271 942 q 149 871 199 871 m 149 935 q 187 952 172 935 q 201 992 201 969 q 187 1031 201 1014 q 149 1047 172 1047 q 111 1031 126 1047 q 96 992 96 1014 q 111 952 96 969 q 149 935 126 935 z "},"˜":{"ha":440,"x_min":28,"x_max":417,"o":"m 147 949 q 116 933 126 949 q 106 893 106 917 l 28 893 q 46 973 28 943 q 90 1015 64 1003 q 143 1028 117 1028 q 209 1011 183 1028 q 256 977 235 994 q 300 960 276 960 q 331 976 322 960 q 340 1015 340 992 l 417 1015 q 399 935 417 965 q 357 891 382 904 q 306 878 332 878 q 245 895 272 878 q 194 931 218 913 q 147 949 171 949 z "},"¯":{"ha":536,"x_min":78,"x_max":460,"o":"m 78 1013 l 460 1013 l 460 926 l 78 926 l 78 1013 z "},"¸":{"ha":358,"x_min":28,"x_max":289,"o":"m 60 56 l 147 56 l 147 -124 l 60 -124 l 60 56 m 128 -124 l 128 -49 q 250 -76 211 -49 q 289 -162 289 -104 q 252 -250 289 -222 q 144 -278 215 -278 l 28 -278 l 28 -203 l 128 -203 q 183 -197 160 -203 q 206 -162 206 -192 q 183 -128 206 -133 q 128 -124 160 -124 z "},"˛":{"ha":325,"x_min":44,"x_max":276,"o":"m 269 0 q 211 -23 243 -8 q 156 -60 179 -37 q 132 -117 132 -83 q 150 -163 132 -147 q 193 -184 168 -179 q 238 -189 218 -189 l 276 -189 l 276 -278 l 235 -278 q 95 -240 146 -278 q 44 -144 44 -203 q 89 -36 44 -78 q 206 49 133 6 l 269 0 z "}}}
